<svg width="1366" height="80" viewBox="0 0 1366 80" fill="none" xmlns="http://www.w3.org/2000/svg">
<rect width="1366" height="80" fill="#251D63"/>
<g filter="url(#filter0_d_9234_5069)">
<path d="M1103 22C1103 17.5817 1106.58 14 1111 14H1245C1249.42 14 1253 17.5817 1253 22V58C1253 62.4183 1249.42 66 1245 66H1111C1106.58 66 1103 62.4183 1103 58V22Z" fill="url(#paint0_linear_9234_5069)" shape-rendering="crispEdges"/>
<path d="M1129.99 46H1127.26L1122.68 39.056V46H1119.94V34.688H1122.68L1127.26 41.696V34.688H1129.99V46ZM1134.62 36.864V39.232H1138.44V41.296H1134.62V43.808H1138.92V46H1131.88V34.688H1138.92V36.864H1134.62ZM1147.34 46L1144.96 42.48L1142.91 46H1139.77L1143.39 40.176L1139.66 34.688H1142.91L1145.23 38.096L1147.23 34.688H1150.35L1146.78 40.384L1150.59 46H1147.34ZM1159.78 34.688V36.864H1156.7V46H1153.95V36.864H1150.91V34.688H1159.78Z" fill="white"/>
<path d="M1229.67 38.7416L1228.02 37.0999L1225.35 34.4249C1224.78 33.8666 1223.82 34.2666 1223.82 35.0666V40.2583V44.9333C1223.82 45.7333 1224.78 46.1333 1225.35 45.5666L1229.67 41.2499C1230.36 40.5666 1230.36 39.4333 1229.67 38.7416Z" fill="white"/>
</g>
<rect opacity="0.3" x="420" y="37" width="380" height="12" rx="6" fill="#9EAFFF"/>
<rect x="420" y="37" width="100" height="12" rx="6" fill="url(#paint1_linear_9234_5069)"/>
<path d="M811.833 46.568V45.032L817.449 37.608H819.401V44.968H820.985V46.568H819.401V49H817.561V46.568H811.833ZM817.689 39.784L813.721 44.968H817.689V39.784ZM831.292 33.896L826.94 51.816H825.164L829.516 33.896H831.292ZM831.867 47.576C833.595 46.392 834.976 45.2347 836.011 44.104C837.056 42.9627 837.579 41.9067 837.579 40.936C837.579 40.36 837.435 39.9013 837.147 39.56C836.869 39.2187 836.416 39.048 835.787 39.048C835.136 39.048 834.645 39.2613 834.315 39.688C833.984 40.104 833.797 40.7013 833.755 41.48H831.979C832.053 40.1893 832.448 39.2027 833.163 38.52C833.888 37.8373 834.811 37.496 835.931 37.496C837.029 37.496 837.888 37.7893 838.507 38.376C839.136 38.952 839.451 39.752 839.451 40.776C839.451 41.5973 839.195 42.4293 838.683 43.272C838.181 44.1147 837.541 44.8933 836.763 45.608C835.984 46.312 835.179 46.92 834.347 47.432H839.707V48.92H831.867V47.576ZM841.137 43.272C841.137 45.0747 841.457 46.488 842.097 47.512C842.737 48.5253 843.803 49.032 845.297 49.032C846.79 49.032 847.857 48.52 848.497 47.496C849.137 46.472 849.457 45.064 849.457 43.272C849.457 41.4907 849.137 40.0933 848.497 39.08C847.857 38.056 846.79 37.544 845.297 37.544C843.803 37.544 842.737 38.0507 842.097 39.064C841.457 40.0773 841.137 41.48 841.137 43.272ZM847.633 43.272C847.633 44.5733 847.473 45.5707 847.153 46.264C846.833 46.9573 846.214 47.304 845.297 47.304C844.369 47.304 843.745 46.9573 843.425 46.264C843.105 45.5707 842.945 44.5733 842.945 43.272C842.945 41.9813 843.105 40.9947 843.425 40.312C843.745 39.6293 844.369 39.288 845.297 39.288C846.214 39.288 846.833 39.6347 847.153 40.328C847.473 41.0107 847.633 41.992 847.633 43.272ZM863.911 51.128L861.895 48.936C861.405 49.064 860.893 49.128 860.359 49.128C859.303 49.128 858.349 48.8827 857.495 48.392C856.653 47.8907 855.986 47.2027 855.495 46.328C855.005 45.4427 854.759 44.4453 854.759 43.336C854.759 42.2267 855.005 41.2347 855.495 40.36C855.986 39.4747 856.653 38.7867 857.495 38.296C858.349 37.8053 859.303 37.56 860.359 37.56C861.405 37.56 862.349 37.8053 863.191 38.296C864.045 38.7867 864.711 39.4747 865.191 40.36C865.682 41.2347 865.927 42.2267 865.927 43.336C865.927 44.4027 865.698 45.368 865.239 46.232C864.781 47.096 864.157 47.7787 863.367 48.28L866.167 51.128H863.911ZM856.631 43.336C856.631 44.1573 856.786 44.8773 857.095 45.496C857.415 46.1147 857.858 46.5893 858.423 46.92C858.989 47.2507 859.634 47.416 860.359 47.416C861.074 47.416 861.709 47.2507 862.263 46.92C862.829 46.5893 863.266 46.1147 863.575 45.496C863.895 44.8773 864.055 44.1573 864.055 43.336C864.055 42.5147 863.895 41.7947 863.575 41.176C863.266 40.5573 862.829 40.0827 862.263 39.752C861.709 39.4213 861.074 39.256 860.359 39.256C859.634 39.256 858.989 39.4213 858.423 39.752C857.858 40.0827 857.415 40.5573 857.095 41.176C856.786 41.7947 856.631 42.5147 856.631 43.336ZM875.896 40.184V49H874.056V47.08C873.832 47.7307 873.443 48.2373 872.888 48.6C872.333 48.952 871.688 49.128 870.952 49.128C869.928 49.128 869.107 48.7973 868.488 48.136C867.869 47.4747 867.56 46.5307 867.56 45.304V40.184H869.384V45.112C869.384 45.912 869.587 46.5307 869.992 46.968C870.397 47.3947 870.952 47.608 871.656 47.608C872.381 47.608 872.963 47.3733 873.4 46.904C873.837 46.4347 874.056 45.752 874.056 44.856V40.184H875.896ZM886.273 44.168C886.273 44.4667 886.251 44.728 886.209 44.952H879.425C879.457 45.8587 879.707 46.5307 880.177 46.968C880.646 47.4053 881.227 47.624 881.921 47.624C882.529 47.624 883.041 47.4693 883.457 47.16C883.883 46.8507 884.145 46.44 884.241 45.928H886.193C886.075 46.5467 885.83 47.096 885.457 47.576C885.083 48.056 884.598 48.4347 884.001 48.712C883.403 48.9787 882.737 49.112 882.001 49.112C881.147 49.112 880.39 48.9307 879.729 48.568C879.078 48.2053 878.566 47.6827 878.193 47C877.819 46.3173 877.633 45.512 877.633 44.584C877.633 43.6667 877.819 42.8667 878.193 42.184C878.566 41.5013 879.078 40.9787 879.729 40.616C880.39 40.2533 881.147 40.072 882.001 40.072C882.865 40.072 883.617 40.2533 884.257 40.616C884.907 40.968 885.403 41.4587 885.745 42.088C886.097 42.7067 886.273 43.4 886.273 44.168ZM884.433 44.12C884.454 43.544 884.353 43.064 884.129 42.68C883.915 42.2853 883.617 41.9973 883.233 41.816C882.859 41.624 882.449 41.528 882.001 41.528C881.286 41.528 880.689 41.7467 880.209 42.184C879.729 42.6213 879.467 43.2667 879.425 44.12H884.433ZM890.93 40.072C891.964 40.072 892.791 40.3387 893.41 40.872C894.039 41.3947 894.423 42.0987 894.562 42.984H892.834C892.759 42.504 892.551 42.12 892.21 41.832C891.879 41.5333 891.436 41.384 890.882 41.384C890.423 41.384 890.066 41.496 889.81 41.72C889.564 41.9333 889.442 42.2267 889.442 42.6C889.442 42.8773 889.532 43.1013 889.714 43.272C889.895 43.4427 890.119 43.576 890.386 43.672C890.663 43.768 891.052 43.8747 891.554 43.992C892.215 44.1413 892.748 44.296 893.154 44.456C893.57 44.616 893.922 44.872 894.21 45.224C894.508 45.5653 894.658 46.0347 894.658 46.632C894.658 47.368 894.375 47.9653 893.81 48.424C893.255 48.8827 892.503 49.112 891.554 49.112C890.455 49.112 889.564 48.856 888.882 48.344C888.21 47.832 887.804 47.1173 887.666 46.2H889.442C889.495 46.68 889.708 47.0693 890.082 47.368C890.455 47.6667 890.946 47.816 891.554 47.816C891.991 47.816 892.332 47.704 892.578 47.48C892.834 47.2453 892.962 46.952 892.962 46.6C892.962 46.2907 892.866 46.0453 892.674 45.864C892.482 45.6827 892.242 45.544 891.954 45.448C891.666 45.3413 891.271 45.2347 890.77 45.128C890.13 44.9787 889.607 44.8293 889.202 44.68C888.807 44.5307 888.466 44.2907 888.178 43.96C887.9 43.6187 887.762 43.16 887.762 42.584C887.762 41.8373 888.039 41.2347 888.594 40.776C889.159 40.3067 889.938 40.072 890.93 40.072ZM900.919 47.416V49H899.799C898.86 49 898.145 48.776 897.655 48.328C897.175 47.8693 896.935 47.112 896.935 46.056V41.736H895.671V40.184H896.935V37.992H898.775V40.184H900.903V41.736H898.775V46.088C898.775 46.5893 898.865 46.936 899.047 47.128C899.239 47.32 899.569 47.416 900.039 47.416H900.919ZM902.371 37.624C902.371 37.3147 902.478 37.0587 902.691 36.856C902.905 36.6533 903.187 36.552 903.539 36.552C903.891 36.552 904.174 36.6533 904.387 36.856C904.611 37.0587 904.723 37.3147 904.723 37.624C904.723 37.9333 904.611 38.184 904.387 38.376C904.174 38.568 903.891 38.664 903.539 38.664C903.187 38.664 902.905 38.568 902.691 38.376C902.478 38.184 902.371 37.9333 902.371 37.624ZM904.451 40.184V49H902.627V40.184H904.451ZM910.691 40.072C911.544 40.072 912.312 40.2533 912.995 40.616C913.677 40.9787 914.211 41.5013 914.595 42.184C914.979 42.8667 915.171 43.6667 915.171 44.584C915.171 45.512 914.979 46.3173 914.595 47C914.211 47.6827 913.677 48.2053 912.995 48.568C912.312 48.9307 911.544 49.112 910.691 49.112C909.837 49.112 909.069 48.9307 908.387 48.568C907.715 48.2053 907.181 47.6827 906.787 47C906.403 46.3067 906.211 45.5013 906.211 44.584C906.211 43.6667 906.403 42.8667 906.787 42.184C907.181 41.5013 907.715 40.9787 908.387 40.616C909.069 40.2533 909.837 40.072 910.691 40.072ZM910.691 41.656C910.221 41.656 909.789 41.7627 909.395 41.976C909 42.1893 908.68 42.52 908.435 42.968C908.2 43.4053 908.083 43.944 908.083 44.584C908.083 45.2347 908.2 45.7787 908.435 46.216C908.68 46.6533 909 46.9787 909.395 47.192C909.789 47.4053 910.221 47.512 910.691 47.512C911.16 47.512 911.592 47.4053 911.987 47.192C912.381 46.9787 912.696 46.6533 912.931 46.216C913.176 45.7787 913.299 45.2347 913.299 44.584C913.299 43.944 913.176 43.4053 912.931 42.968C912.696 42.52 912.381 42.1893 911.987 41.976C911.592 41.7627 911.16 41.656 910.691 41.656ZM921.852 40.04C922.876 40.04 923.698 40.3707 924.316 41.032C924.935 41.6933 925.244 42.6373 925.244 43.864V49H923.42V44.056C923.42 43.2667 923.218 42.6587 922.812 42.232C922.407 41.7947 921.852 41.576 921.148 41.576C920.423 41.576 919.842 41.8107 919.404 42.28C918.967 42.7387 918.748 43.416 918.748 44.312V49H916.924V40.184H918.748V42.12C918.983 41.4587 919.378 40.9467 919.932 40.584C920.487 40.2213 921.127 40.04 921.852 40.04ZM930.273 40.072C931.308 40.072 932.135 40.3387 932.753 40.872C933.383 41.3947 933.767 42.0987 933.905 42.984H932.177C932.103 42.504 931.895 42.12 931.553 41.832C931.223 41.5333 930.78 41.384 930.225 41.384C929.767 41.384 929.409 41.496 929.153 41.72C928.908 41.9333 928.785 42.2267 928.785 42.6C928.785 42.8773 928.876 43.1013 929.057 43.272C929.239 43.4427 929.463 43.576 929.729 43.672C930.007 43.768 930.396 43.8747 930.897 43.992C931.559 44.1413 932.092 44.296 932.497 44.456C932.913 44.616 933.265 44.872 933.553 45.224C933.852 45.5653 934.001 46.0347 934.001 46.632C934.001 47.368 933.719 47.9653 933.153 48.424C932.599 48.8827 931.847 49.112 930.897 49.112C929.799 49.112 928.908 48.856 928.225 48.344C927.553 47.832 927.148 47.1173 927.009 46.2H928.785C928.839 46.68 929.052 47.0693 929.425 47.368C929.799 47.6667 930.289 47.816 930.897 47.816C931.335 47.816 931.676 47.704 931.921 47.48C932.177 47.2453 932.305 46.952 932.305 46.6C932.305 46.2907 932.209 46.0453 932.017 45.864C931.825 45.6827 931.585 45.544 931.297 45.448C931.009 45.3413 930.615 45.2347 930.113 45.128C929.473 44.9787 928.951 44.8293 928.545 44.68C928.151 44.5307 927.809 44.2907 927.521 43.96C927.244 43.6187 927.105 43.16 927.105 42.584C927.105 41.8373 927.383 41.2347 927.937 40.776C928.503 40.3067 929.281 40.072 930.273 40.072Z" fill="white"/>
<rect x="96.5" y="14.5" width="186" height="51" rx="7.5" stroke="url(#paint2_linear_9234_5069)"/>
<path d="M151.464 44.7676V50.7027C151.464 51.4162 150.954 52 150.253 52H133.609C132.908 52 132.334 51.4162 132.334 50.7027V29.2973C132.334 28.5838 132.908 28 133.609 28H150.253C150.954 28 151.464 28.5838 151.464 29.2973V35.2324C151.464 35.9459 150.891 36.5297 150.189 36.5297C149.488 36.5297 148.914 35.9459 148.914 35.2324V30.5946H134.885V49.4054H148.914V44.7676C148.914 44.0541 149.488 43.4703 150.189 43.4703C150.891 43.4703 151.464 44.0541 151.464 44.7676ZM161.285 39.027L156.311 33.9027C155.801 33.3838 155.004 33.3838 154.493 33.9027C153.983 34.4216 153.983 35.2324 154.493 35.7514L157.331 38.6703L141.867 38.7027C141.166 38.7027 140.592 39.2865 140.592 40C140.592 40.7135 141.166 41.2973 141.867 41.2973L157.331 41.2649L154.493 44.1838C153.983 44.7027 154.015 45.5135 154.493 46.0324C154.748 46.2919 155.067 46.4216 155.386 46.4216C155.705 46.4216 156.056 46.2919 156.279 46.0324L161.285 40.9081C161.795 40.3568 161.795 39.5459 161.285 39.027Z" fill="white"/>
<path d="M179.173 36.96V39.232H182.837V41.344H179.173V43.808H183.317V46H176.437V34.768H183.317V36.96H179.173ZM195.142 46H192.406L187.83 39.072V46H185.094V34.768H187.83L192.406 41.728V34.768H195.142V46ZM201.333 34.768C202.517 34.768 203.551 35.0027 204.437 35.472C205.322 35.9413 206.005 36.6027 206.485 37.456C206.975 38.2987 207.221 39.2747 207.221 40.384C207.221 41.4827 206.975 42.4587 206.485 43.312C206.005 44.1653 205.317 44.8267 204.421 45.296C203.535 45.7653 202.506 46 201.333 46H197.125V34.768H201.333ZM201.157 43.632C202.191 43.632 202.997 43.3493 203.573 42.784C204.149 42.2187 204.437 41.4187 204.437 40.384C204.437 39.3493 204.149 38.544 203.573 37.968C202.997 37.392 202.191 37.104 201.157 37.104H199.861V43.632H201.157ZM220.22 34.768V36.96H217.244V46H214.508V36.96H211.532V34.768H220.22ZM224.33 36.96V39.232H227.994V41.344H224.33V43.808H228.474V46H221.594V34.768H228.474V36.96H224.33ZM234.314 46.112C233.492 46.112 232.756 45.9787 232.106 45.712C231.455 45.4453 230.932 45.0507 230.538 44.528C230.154 44.0053 229.951 43.376 229.93 42.64H232.842C232.884 43.056 233.028 43.376 233.274 43.6C233.519 43.8133 233.839 43.92 234.234 43.92C234.639 43.92 234.959 43.8293 235.194 43.648C235.428 43.456 235.546 43.1947 235.546 42.864C235.546 42.5867 235.45 42.3573 235.258 42.176C235.076 41.9947 234.847 41.8453 234.57 41.728C234.303 41.6107 233.919 41.4773 233.418 41.328C232.692 41.104 232.1 40.88 231.642 40.656C231.183 40.432 230.788 40.1013 230.458 39.664C230.127 39.2267 229.962 38.656 229.962 37.952C229.962 36.9067 230.34 36.0907 231.098 35.504C231.855 34.9067 232.842 34.608 234.058 34.608C235.295 34.608 236.292 34.9067 237.05 35.504C237.807 36.0907 238.212 36.912 238.266 37.968H235.306C235.284 37.6053 235.151 37.3227 234.906 37.12C234.66 36.9067 234.346 36.8 233.962 36.8C233.631 36.8 233.364 36.8907 233.162 37.072C232.959 37.2427 232.858 37.4933 232.858 37.824C232.858 38.1867 233.028 38.4693 233.37 38.672C233.711 38.8747 234.244 39.0933 234.97 39.328C235.695 39.5733 236.282 39.808 236.73 40.032C237.188 40.256 237.583 40.5813 237.914 41.008C238.244 41.4347 238.41 41.984 238.41 42.656C238.41 43.296 238.244 43.8773 237.914 44.4C237.594 44.9227 237.124 45.3387 236.506 45.648C235.887 45.9573 235.156 46.112 234.314 46.112ZM248.174 34.768V36.96H245.198V46H242.462V36.96H239.486V34.768H248.174Z" fill="white"/>
<defs>
<filter id="filter0_d_9234_5069" x="1079" y="2" width="198" height="100" filterUnits="userSpaceOnUse" color-interpolation-filters="sRGB">
<feFlood flood-opacity="0" result="BackgroundImageFix"/>
<feColorMatrix in="SourceAlpha" type="matrix" values="0 0 0 0 0 0 0 0 0 0 0 0 0 0 0 0 0 0 127 0" result="hardAlpha"/>
<feOffset dy="12"/>
<feGaussianBlur stdDeviation="12"/>
<feComposite in2="hardAlpha" operator="out"/>
<feColorMatrix type="matrix" values="0 0 0 0 0.0916603 0 0 0 0 0.33835 0 0 0 0 0.999928 0 0 0 0.4 0"/>
<feBlend mode="normal" in2="BackgroundImageFix" result="effect1_dropShadow_9234_5069"/>
<feBlend mode="normal" in="SourceGraphic" in2="effect1_dropShadow_9234_5069" result="shape"/>
</filter>
<linearGradient id="paint0_linear_9234_5069" x1="1109" y1="38.7619" x2="1252.88" y2="46.0252" gradientUnits="userSpaceOnUse">
<stop stop-color="#2D6CDF"/>
<stop offset="1" stop-color="#6757D8"/>
</linearGradient>
<linearGradient id="paint1_linear_9234_5069" x1="424" y1="42.7143" x2="518.164" y2="56.4465" gradientUnits="userSpaceOnUse">
<stop stop-color="#22D1EE"/>
<stop offset="1" stop-color="#03E2E2"/>
</linearGradient>
<linearGradient id="paint2_linear_9234_5069" x1="103.48" y1="38.7619" x2="282.602" y2="50.0345" gradientUnits="userSpaceOnUse">
<stop stop-color="#2D6CDF"/>
<stop offset="1" stop-color="#6757D8"/>
</linearGradient>
</defs>
</svg>
