<svg id="Group_1349" data-name="Group 1349" xmlns="http://www.w3.org/2000/svg" width="110" height="110" viewBox="0 0 110 110">
  <rect id="Rectangle_627" data-name="Rectangle 627" width="110" height="110" fill="none"/>
  <g id="document" transform="translate(21 13.399)">
    <path id="Path_7216" data-name="Path 7216" d="M61.786,22.644,42.23,3.088a2.534,2.534,0,0,0-1.954-.837H12.338A5.6,5.6,0,0,0,6.75,7.839v67.05a5.6,5.6,0,0,0,5.588,5.588h44.7a5.6,5.6,0,0,0,5.588-5.588V24.6a2.539,2.539,0,0,0-.837-1.954ZM40.275,8.954,55.92,24.6H40.275ZM57.038,74.887h-44.7V7.836h22.35V24.6a5.6,5.6,0,0,0,5.588,5.588H57.038Z" transform="translate(0 0)" fill="#606872"/>
    <path id="Path_7217" data-name="Path 7217" d="M11.25,24.75H44.775v5.588H11.25Z" transform="translate(6.675 33.374)" fill="#606872"/>
    <path id="Path_7218" data-name="Path 7218" d="M11.25,18H44.775v5.588H11.25Z" transform="translate(6.675 23.361)" fill="#606872"/>
  </g>
</svg>
