<?xml version="1.0" encoding="UTF-8" standalone="no"?><!-- Generator: Gravit.io --><svg xmlns="http://www.w3.org/2000/svg" xmlns:xlink="http://www.w3.org/1999/xlink" style="isolation:isolate" viewBox="0 0 225 60" width="225pt" height="60pt"><g><g><linearGradient id="_lgradient_2" x1="0.42549522377889826" y1="0.6641987795741771" x2="0.6003203986040733" y2="0.3425204235712246" gradientTransform="matrix(42.9,0,0,42.9,2.123,15.903)" gradientUnits="userSpaceOnUse"><stop offset="0%" stop-opacity="1" style="stop-color:rgb(4,152,222)"/><stop offset="100%" stop-opacity="1" style="stop-color:rgb(38,52,148)"/></linearGradient><path d=" M 43.554 43.964 C 44.503 41.543 45.023 40.108 45.023 37.353 C 45.023 25.514 35.412 15.903 23.573 15.903 C 11.735 15.903 2.123 25.514 2.123 37.353 L 2.123 37.353 C 2.123 49.192 11.735 58.803 23.573 58.803 C 27.344 58.803 30.888 57.828 33.968 56.117 C 34.789 55.661 35.577 55.152 35.577 55.152 C 35.992 54.845 36.328 54.284 36.328 53.901 L 36.328 53.901 L 36.328 53.78 C 36.328 53.615 36.224 53.396 36.095 53.291 Q 35.54 52.841 35.13 53.053 C 33.015 54.146 30.615 54.764 28.071 54.764 C 19.567 54.764 12.663 47.86 12.663 39.355 L 12.663 39.355 C 12.663 30.851 19.567 23.947 28.071 23.947 C 28.714 23.947 29.348 23.986 29.97 24.063 C 37.148 25.204 42.628 31.199 42.628 38.414 C 42.628 40.379 42.221 42.253 41.485 43.964 L 43.554 43.964 Z " fill-rule="evenodd" fill="url(#_lgradient_2)"/><linearGradient id="_lgradient_3" x1="0.31864990066168486" y1="0.35176767003074455" x2="0.5945006022397021" y2="0.9575573324578928" gradientTransform="matrix(33.638,0,0,52.067,11.385,1.197)" gradientUnits="userSpaceOnUse"><stop offset="0%" stop-opacity="1" style="stop-color:rgb(4,152,222)"/><stop offset="97.82608695652173%" stop-opacity="1" style="stop-color:rgb(251,221,5)"/></linearGradient><path d=" M 15.328 14.585 C 14.585 14.501 13.896 14.401 13.278 14.285 C 11.27 13.91 10.781 12.401 12.188 10.919 L 20.932 1.702 L 20.932 1.702 C 21.571 1.029 22.609 1.029 23.248 1.702 L 31.993 10.919 C 33.398 12.401 32.908 13.901 30.898 14.264 C 30.27 14.378 29.582 14.477 28.85 14.561 L 28.85 37.053 L 28.85 37.053 L 28.85 37.053 C 29.811 40.693 33.071 43.375 36.94 43.375 C 40.766 43.375 43.996 40.753 44.993 37.173 C 45.013 37.484 45.023 37.798 45.023 38.114 C 45.023 46.475 38.37 53.264 30.175 53.264 C 21.981 53.264 15.328 46.475 15.328 38.114 L 15.328 38.114 L 15.328 14.585 Z " fill-rule="evenodd" fill="url(#_lgradient_3)"/></g><path d=" M 59.481 25.32 C 55.618 25.711 53.501 27.694 53.189 31.215 C 53.107 32.149 53.108 39.732 53.191 40.626 C 53.577 44.785 56.764 46.963 61.801 46.509 C 66.273 46.106 68.255 44.075 68.361 39.784 L 68.396 38.37 L 66.481 38.37 L 64.566 38.37 L 64.564 39.339 C 64.557 42.272 63.643 43.201 60.761 43.201 C 58.464 43.201 57.526 42.629 57.088 40.965 C 56.958 40.47 56.882 32.896 56.995 31.673 C 57.203 29.408 58.164 28.627 60.753 28.617 C 63.54 28.607 64.466 29.432 64.549 31.999 L 64.583 33.031 L 66.481 33.031 L 68.38 33.031 L 68.38 32.125 C 68.379 28.865 67.261 26.969 64.733 25.939 C 63.451 25.417 61.178 25.148 59.481 25.32 Z  M 75.814 25.674 C 75.739 25.848 69.142 46.152 69.142 46.21 C 69.142 46.233 70.024 46.251 71.1 46.251 L 73.059 46.251 L 73.719 44.185 L 74.38 42.12 L 78.073 42.12 L 81.767 42.12 L 82.426 44.185 L 83.085 46.251 L 85.043 46.251 C 86.121 46.251 87.002 46.231 87.002 46.207 C 87.002 46.183 85.626 41.914 83.944 36.721 C 82.262 31.528 80.759 26.886 80.605 26.405 L 80.323 25.532 L 78.1 25.532 L 75.877 25.532 L 75.814 25.674 Z  M 89.036 35.891 L 89.036 46.251 L 90.974 46.251 L 92.913 46.251 L 92.913 42.146 L 92.913 38.04 L 95.121 38.071 C 97.931 38.11 98.508 38.23 99.13 38.905 C 99.793 39.624 99.865 39.993 99.872 42.692 C 99.878 45.029 99.917 45.399 100.222 45.998 L 100.352 46.251 L 102.377 46.251 L 104.402 46.251 L 104.189 45.849 C 103.804 45.125 103.719 44.601 103.652 42.533 C 103.52 38.495 103.002 37.446 100.84 36.842 C 100.468 36.739 100.456 36.73 100.635 36.688 C 102.934 36.149 103.797 34.774 103.807 31.633 C 103.817 28.837 103.223 27.502 101.525 26.499 C 100.053 25.629 99.268 25.537 93.373 25.533 L 89.036 25.532 L 89.036 35.891 Z  M 107.531 35.891 L 107.531 46.251 L 113.887 46.251 L 120.242 46.251 L 120.242 44.599 L 120.242 42.946 L 115.793 42.946 L 111.344 42.946 L 111.344 40.118 L 111.344 37.29 L 115.221 37.29 L 119.098 37.29 L 119.098 35.796 L 119.098 34.302 L 115.221 34.302 L 111.344 34.302 L 111.344 31.601 L 111.344 28.9 L 115.793 28.9 L 120.242 28.9 L 120.242 27.215 L 120.242 25.532 L 113.887 25.532 L 107.531 25.532 L 107.531 35.891 Z  M 123.484 35.891 L 123.484 46.251 L 129.839 46.251 L 136.195 46.251 L 136.195 44.599 L 136.195 42.946 L 131.746 42.946 L 127.297 42.946 L 127.297 40.118 L 127.297 37.29 L 131.174 37.29 L 135.051 37.29 L 135.051 35.796 L 135.051 34.302 L 131.174 34.302 L 127.297 34.302 L 127.297 31.601 L 127.297 28.9 L 131.746 28.9 L 136.195 28.9 L 136.195 27.215 L 136.195 25.532 L 129.839 25.532 L 123.484 25.532 L 123.484 35.891 Z  M 139.437 35.891 L 139.437 46.251 L 141.375 46.251 L 143.314 46.251 L 143.314 42.146 L 143.314 38.04 L 145.522 38.071 C 148.332 38.11 148.908 38.23 149.531 38.905 C 150.194 39.624 150.266 39.993 150.273 42.692 C 150.279 45.029 150.318 45.399 150.623 45.998 L 150.752 46.251 L 152.777 46.251 L 154.803 46.251 L 154.589 45.849 C 154.205 45.125 154.12 44.601 154.053 42.533 C 153.921 38.495 153.402 37.446 151.241 36.842 C 150.869 36.739 150.857 36.73 151.036 36.688 C 153.335 36.149 154.198 34.774 154.208 31.633 C 154.218 28.837 153.625 27.502 151.926 26.499 C 150.454 25.629 149.67 25.537 143.774 25.533 L 139.437 25.532 L 139.437 35.891 Z  M 98.174 28.987 C 99.525 29.336 100.032 30.16 100.031 32.004 C 100.029 34.725 99.449 35.117 95.344 35.174 L 92.913 35.208 L 92.913 32.016 L 92.913 28.824 L 95.344 28.854 C 97.309 28.878 97.851 28.903 98.174 28.987 Z  M 148.575 28.987 C 149.926 29.336 150.433 30.16 150.431 32.004 C 150.429 34.725 149.85 35.117 145.745 35.174 L 143.314 35.208 L 143.314 32.016 L 143.314 28.824 L 145.745 28.854 C 147.71 28.878 148.253 28.903 148.575 28.987 Z  M 79.541 34.398 C 80.297 36.914 80.93 39.01 80.947 39.053 C 80.971 39.116 80.37 39.133 78.072 39.133 C 75.555 39.133 75.171 39.12 75.202 39.04 C 75.227 38.974 77.627 31.02 78.021 29.694 L 78.059 29.567 L 78.111 29.694 C 78.14 29.764 78.784 31.881 79.541 34.398 Z " fill-rule="evenodd" fill="rgb(255,255,255)"/><path d=" M 185.488 46.213 L 189.835 46.213 L 182.463 25.683 L 177.676 25.683 L 170.303 46.213 L 174.621 46.213 L 175.972 42.306 L 184.137 42.306 L 185.488 46.213 Z  M 183.021 39.017 L 177.088 39.017 L 180.055 30.441 L 183.021 39.017 Z  M 202.552 40.163 C 202.552 41.895 201.378 42.865 199.38 42.865 L 195.239 42.865 L 195.239 37.343 L 199.292 37.343 C 201.29 37.343 202.552 38.4 202.552 40.163 Z  M 202.053 31.616 C 202.053 33.29 200.937 34.171 198.999 34.171 L 195.239 34.171 L 195.239 29.031 L 198.999 29.031 C 200.937 29.031 202.053 29.971 202.053 31.616 Z  M 206.723 40.662 C 206.723 38.253 205.078 36.109 202.758 35.698 C 204.755 35.052 206.253 33.495 206.253 30.999 C 206.253 27.944 203.874 25.712 199.586 25.712 L 191.127 25.712 L 191.127 46.213 L 199.968 46.213 C 204.227 46.213 206.723 43.922 206.723 40.662 Z  M 222.877 40.28 C 222.877 33.055 212.362 35.346 212.362 31.234 C 212.362 29.56 213.566 28.767 215.182 28.825 C 216.944 28.855 218.031 29.912 218.119 31.263 L 222.642 31.263 C 222.378 27.563 219.499 25.418 215.299 25.418 C 211.07 25.418 208.074 27.65 208.074 31.351 C 208.045 38.782 218.618 36.109 218.618 40.544 C 218.618 42.013 217.473 43.041 215.534 43.041 C 213.625 43.041 212.538 41.954 212.421 40.309 L 208.015 40.309 C 208.074 44.186 211.364 46.418 215.622 46.418 C 220.292 46.418 222.877 43.511 222.877 40.28 Z  M 157.498 25.712 L 157.498 46.213 L 169.246 46.213 L 169.246 42.953 L 161.61 42.953 L 161.61 25.712 L 157.498 25.712 Z " fill="rgb(255,255,255)"/></g></svg>