<svg width="360" height="110" viewBox="0 0 360 110" fill="none" xmlns="http://www.w3.org/2000/svg">
<rect width="360" height="110" fill="#251D63"/>
<rect opacity="0.3" x="16" y="17" width="217" height="8" rx="4" fill="#9EAFFF"/>
<rect x="16" y="17" width="23" height="8" rx="4" fill="url(#paint0_linear_9242_4760)"/>
<path d="M256.051 16.264C256.611 16.264 257.091 16.364 257.491 16.564C257.891 16.756 258.191 17.024 258.391 17.368C258.599 17.712 258.703 18.096 258.703 18.52C258.703 19.056 258.551 19.504 258.247 19.864C257.951 20.216 257.531 20.428 256.987 20.5V20.56C257.571 20.728 258.027 20.98 258.355 21.316C258.691 21.644 258.859 22.1 258.859 22.684C258.859 23.396 258.623 23.976 258.151 24.424C257.679 24.864 257.003 25.084 256.123 25.084C255.219 25.084 254.491 24.856 253.939 24.4C253.387 23.936 253.071 23.252 252.991 22.348H254.347C254.395 22.828 254.567 23.212 254.863 23.5C255.159 23.78 255.559 23.92 256.063 23.92C256.535 23.92 256.895 23.796 257.143 23.548C257.399 23.3 257.527 22.98 257.527 22.588C257.527 22.116 257.343 21.756 256.975 21.508C256.615 21.26 256.091 21.136 255.403 21.136H255.079V20.008H255.403C256.707 20.024 257.359 19.58 257.359 18.676C257.359 18.284 257.239 17.976 256.999 17.752C256.759 17.528 256.431 17.416 256.015 17.416C255.599 17.416 255.251 17.544 254.971 17.8C254.691 18.048 254.523 18.412 254.467 18.892H253.123C253.179 18.06 253.459 17.416 253.963 16.96C254.467 16.496 255.163 16.264 256.051 16.264ZM266.973 13.672L263.709 27.112H262.377L265.641 13.672H266.973ZM267.404 23.932C268.7 23.044 269.736 22.176 270.512 21.328C271.296 20.472 271.688 19.68 271.688 18.952C271.688 18.52 271.58 18.176 271.364 17.92C271.156 17.664 270.816 17.536 270.344 17.536C269.856 17.536 269.488 17.696 269.24 18.016C268.992 18.328 268.852 18.776 268.82 19.36H267.488C267.544 18.392 267.84 17.652 268.376 17.14C268.92 16.628 269.612 16.372 270.452 16.372C271.276 16.372 271.92 16.592 272.384 17.032C272.856 17.464 273.092 18.064 273.092 18.832C273.092 19.448 272.9 20.072 272.516 20.704C272.14 21.336 271.66 21.92 271.076 22.456C270.492 22.984 269.888 23.44 269.264 23.824H273.284V24.94H267.404V23.932ZM274.356 20.704C274.356 22.056 274.596 23.116 275.076 23.884C275.556 24.644 276.356 25.024 277.476 25.024C278.596 25.024 279.396 24.64 279.876 23.872C280.356 23.104 280.596 22.048 280.596 20.704C280.596 19.368 280.356 18.32 279.876 17.56C279.396 16.792 278.596 16.408 277.476 16.408C276.356 16.408 275.556 16.788 275.076 17.548C274.596 18.308 274.356 19.36 274.356 20.704ZM279.228 20.704C279.228 21.68 279.108 22.428 278.868 22.948C278.628 23.468 278.164 23.728 277.476 23.728C276.78 23.728 276.312 23.468 276.072 22.948C275.832 22.428 275.712 21.68 275.712 20.704C275.712 19.736 275.832 18.996 276.072 18.484C276.312 17.972 276.78 17.716 277.476 17.716C278.164 17.716 278.628 17.976 278.868 18.496C279.108 19.008 279.228 19.744 279.228 20.704ZM291.437 26.596L289.925 24.952C289.557 25.048 289.173 25.096 288.773 25.096C287.981 25.096 287.265 24.912 286.625 24.544C285.993 24.168 285.493 23.652 285.125 22.996C284.757 22.332 284.573 21.584 284.573 20.752C284.573 19.92 284.757 19.176 285.125 18.52C285.493 17.856 285.993 17.34 286.625 16.972C287.265 16.604 287.981 16.42 288.773 16.42C289.557 16.42 290.265 16.604 290.897 16.972C291.537 17.34 292.037 17.856 292.397 18.52C292.765 19.176 292.949 19.92 292.949 20.752C292.949 21.552 292.777 22.276 292.433 22.924C292.089 23.572 291.621 24.084 291.029 24.46L293.129 26.596H291.437ZM285.977 20.752C285.977 21.368 286.093 21.908 286.325 22.372C286.565 22.836 286.897 23.192 287.321 23.44C287.745 23.688 288.229 23.812 288.773 23.812C289.309 23.812 289.785 23.688 290.201 23.44C290.625 23.192 290.953 22.836 291.185 22.372C291.425 21.908 291.545 21.368 291.545 20.752C291.545 20.136 291.425 19.596 291.185 19.132C290.953 18.668 290.625 18.312 290.201 18.064C289.785 17.816 289.309 17.692 288.773 17.692C288.229 17.692 287.745 17.816 287.321 18.064C286.897 18.312 286.565 18.668 286.325 19.132C286.093 19.596 285.977 20.136 285.977 20.752ZM300.426 18.388V25H299.046V23.56C298.878 24.048 298.586 24.428 298.17 24.7C297.754 24.964 297.27 25.096 296.718 25.096C295.95 25.096 295.334 24.848 294.87 24.352C294.406 23.856 294.174 23.148 294.174 22.228V18.388H295.542V22.084C295.542 22.684 295.694 23.148 295.998 23.476C296.302 23.796 296.718 23.956 297.246 23.956C297.79 23.956 298.226 23.78 298.554 23.428C298.882 23.076 299.046 22.564 299.046 21.892V18.388H300.426ZM308.208 21.376C308.208 21.6 308.192 21.796 308.16 21.964H303.072C303.096 22.644 303.284 23.148 303.636 23.476C303.988 23.804 304.424 23.968 304.944 23.968C305.4 23.968 305.784 23.852 306.096 23.62C306.416 23.388 306.612 23.08 306.684 22.696H308.148C308.06 23.16 307.876 23.572 307.596 23.932C307.316 24.292 306.952 24.576 306.504 24.784C306.056 24.984 305.556 25.084 305.004 25.084C304.364 25.084 303.796 24.948 303.3 24.676C302.812 24.404 302.428 24.012 302.148 23.5C301.868 22.988 301.728 22.384 301.728 21.688C301.728 21 301.868 20.4 302.148 19.888C302.428 19.376 302.812 18.984 303.3 18.712C303.796 18.44 304.364 18.304 305.004 18.304C305.652 18.304 306.216 18.44 306.696 18.712C307.184 18.976 307.556 19.344 307.812 19.816C308.076 20.28 308.208 20.8 308.208 21.376ZM306.828 21.34C306.844 20.908 306.768 20.548 306.6 20.26C306.44 19.964 306.216 19.748 305.928 19.612C305.648 19.468 305.34 19.396 305.004 19.396C304.468 19.396 304.02 19.56 303.66 19.888C303.3 20.216 303.104 20.7 303.072 21.34H306.828ZM311.701 18.304C312.477 18.304 313.097 18.504 313.561 18.904C314.033 19.296 314.321 19.824 314.425 20.488H313.129C313.073 20.128 312.917 19.84 312.661 19.624C312.413 19.4 312.081 19.288 311.665 19.288C311.321 19.288 311.053 19.372 310.861 19.54C310.677 19.7 310.585 19.92 310.585 20.2C310.585 20.408 310.653 20.576 310.789 20.704C310.925 20.832 311.093 20.932 311.293 21.004C311.501 21.076 311.793 21.156 312.169 21.244C312.665 21.356 313.065 21.472 313.369 21.592C313.681 21.712 313.945 21.904 314.161 22.168C314.385 22.424 314.497 22.776 314.497 23.224C314.497 23.776 314.285 24.224 313.861 24.568C313.445 24.912 312.881 25.084 312.169 25.084C311.345 25.084 310.677 24.892 310.165 24.508C309.661 24.124 309.357 23.588 309.253 22.9H310.585C310.625 23.26 310.785 23.552 311.065 23.776C311.345 24 311.713 24.112 312.169 24.112C312.497 24.112 312.753 24.028 312.937 23.86C313.129 23.684 313.225 23.464 313.225 23.2C313.225 22.968 313.153 22.784 313.009 22.648C312.865 22.512 312.685 22.408 312.469 22.336C312.253 22.256 311.957 22.176 311.581 22.096C311.101 21.984 310.709 21.872 310.405 21.76C310.109 21.648 309.853 21.468 309.637 21.22C309.429 20.964 309.325 20.62 309.325 20.188C309.325 19.628 309.533 19.176 309.949 18.832C310.373 18.48 310.957 18.304 311.701 18.304ZM319.193 23.812V25H318.353C317.649 25 317.113 24.832 316.745 24.496C316.385 24.152 316.205 23.584 316.205 22.792V19.552H315.257V18.388H316.205V16.744H317.585V18.388H319.181V19.552H317.585V22.816C317.585 23.192 317.653 23.452 317.789 23.596C317.933 23.74 318.181 23.812 318.533 23.812H319.193ZM320.282 16.468C320.282 16.236 320.362 16.044 320.522 15.892C320.682 15.74 320.894 15.664 321.158 15.664C321.422 15.664 321.634 15.74 321.794 15.892C321.962 16.044 322.046 16.236 322.046 16.468C322.046 16.7 321.962 16.888 321.794 17.032C321.634 17.176 321.422 17.248 321.158 17.248C320.894 17.248 320.682 17.176 320.522 17.032C320.362 16.888 320.282 16.7 320.282 16.468ZM321.842 18.388V25H320.474V18.388H321.842ZM326.522 18.304C327.162 18.304 327.738 18.44 328.25 18.712C328.762 18.984 329.162 19.376 329.45 19.888C329.738 20.4 329.882 21 329.882 21.688C329.882 22.384 329.738 22.988 329.45 23.5C329.162 24.012 328.762 24.404 328.25 24.676C327.738 24.948 327.162 25.084 326.522 25.084C325.882 25.084 325.306 24.948 324.794 24.676C324.29 24.404 323.89 24.012 323.594 23.5C323.306 22.98 323.162 22.376 323.162 21.688C323.162 21 323.306 20.4 323.594 19.888C323.89 19.376 324.29 18.984 324.794 18.712C325.306 18.44 325.882 18.304 326.522 18.304ZM326.522 19.492C326.17 19.492 325.846 19.572 325.55 19.732C325.254 19.892 325.014 20.14 324.83 20.476C324.654 20.804 324.566 21.208 324.566 21.688C324.566 22.176 324.654 22.584 324.83 22.912C325.014 23.24 325.254 23.484 325.55 23.644C325.846 23.804 326.17 23.884 326.522 23.884C326.874 23.884 327.198 23.804 327.494 23.644C327.79 23.484 328.026 23.24 328.202 22.912C328.386 22.584 328.478 22.176 328.478 21.688C328.478 21.208 328.386 20.804 328.202 20.476C328.026 20.14 327.79 19.892 327.494 19.732C327.198 19.572 326.874 19.492 326.522 19.492ZM334.893 18.28C335.661 18.28 336.277 18.528 336.741 19.024C337.205 19.52 337.437 20.228 337.437 21.148V25H336.069V21.292C336.069 20.7 335.917 20.244 335.613 19.924C335.309 19.596 334.893 19.432 334.365 19.432C333.821 19.432 333.385 19.608 333.057 19.96C332.729 20.304 332.565 20.812 332.565 21.484V25H331.197V18.388H332.565V19.84C332.741 19.344 333.037 18.96 333.453 18.688C333.869 18.416 334.349 18.28 334.893 18.28ZM341.209 18.304C341.985 18.304 342.605 18.504 343.069 18.904C343.541 19.296 343.829 19.824 343.933 20.488H342.637C342.581 20.128 342.425 19.84 342.169 19.624C341.921 19.4 341.589 19.288 341.173 19.288C340.829 19.288 340.561 19.372 340.369 19.54C340.185 19.7 340.093 19.92 340.093 20.2C340.093 20.408 340.161 20.576 340.297 20.704C340.433 20.832 340.601 20.932 340.801 21.004C341.009 21.076 341.301 21.156 341.677 21.244C342.173 21.356 342.573 21.472 342.877 21.592C343.189 21.712 343.453 21.904 343.669 22.168C343.893 22.424 344.005 22.776 344.005 23.224C344.005 23.776 343.793 24.224 343.369 24.568C342.953 24.912 342.389 25.084 341.677 25.084C340.853 25.084 340.185 24.892 339.673 24.508C339.169 24.124 338.865 23.588 338.761 22.9H340.093C340.133 23.26 340.293 23.552 340.573 23.776C340.853 24 341.221 24.112 341.677 24.112C342.005 24.112 342.261 24.028 342.445 23.86C342.637 23.684 342.733 23.464 342.733 23.2C342.733 22.968 342.661 22.784 342.517 22.648C342.373 22.512 342.193 22.408 341.977 22.336C341.761 22.256 341.465 22.176 341.089 22.096C340.609 21.984 340.217 21.872 339.913 21.76C339.617 21.648 339.361 21.468 339.145 21.22C338.937 20.964 338.833 20.62 338.833 20.188C338.833 19.628 339.041 19.176 339.457 18.832C339.881 18.48 340.465 18.304 341.209 18.304Z" fill="white"/>
<rect x="16.5" y="46.5" width="155" height="47" rx="7.5" stroke="url(#paint1_linear_9242_4760)"/>
<path d="M55.4625 74.7678V80.7029C55.4625 81.4165 54.9523 82.0002 54.2509 82.0002H37.6074C36.9059 82.0002 36.332 81.4165 36.332 80.7029V59.2975C36.332 58.584 36.9059 58.0002 37.6074 58.0002H54.2509C54.9523 58.0002 55.4625 58.584 55.4625 59.2975V65.2327C55.4625 65.9462 54.8886 66.53 54.1871 66.53C53.4857 66.53 52.9117 65.9462 52.9117 65.2327V60.5948H38.8828V79.4056H52.9117V74.7678C52.9117 74.0543 53.4857 73.4705 54.1871 73.4705C54.8886 73.4705 55.4625 74.0543 55.4625 74.7678ZM65.2828 69.0273L60.3088 63.9029C59.7987 63.384 59.0016 63.384 58.4915 63.9029C57.9813 64.4219 57.9813 65.2327 58.4915 65.7516L61.3291 68.6705L45.8654 68.7029C45.1639 68.7029 44.59 69.2867 44.59 70.0002C44.59 70.7138 45.1639 71.2975 45.8654 71.2975L61.3291 71.2651L58.4915 74.184C57.9813 74.7029 58.0132 75.5138 58.4915 76.0327C58.7465 76.2921 59.0654 76.4219 59.3842 76.4219C59.703 76.4219 60.0538 76.2921 60.277 76.0327L65.2828 70.9084C65.7929 70.357 65.7929 69.5462 65.2828 69.0273Z" fill="white"/>
<path d="M83.1733 66.9602V69.2322H86.8373V71.3442H83.1733V73.8082H87.3173V76.0002H80.4373V64.7682H87.3173V66.9602H83.1733ZM99.1416 76.0002H96.4056L91.8296 69.0722V76.0002H89.0936V64.7682H91.8296L96.4056 71.7282V64.7682H99.1416V76.0002ZM105.333 64.7682C106.517 64.7682 107.551 65.0029 108.437 65.4722C109.322 65.9416 110.005 66.6029 110.485 67.4562C110.975 68.2989 111.221 69.2749 111.221 70.3842C111.221 71.4829 110.975 72.4589 110.485 73.3122C110.005 74.1656 109.317 74.8269 108.421 75.2962C107.535 75.7656 106.506 76.0002 105.333 76.0002H101.125V64.7682H105.333ZM105.157 73.6322C106.191 73.6322 106.997 73.3496 107.573 72.7842C108.149 72.2189 108.437 71.4189 108.437 70.3842C108.437 69.3496 108.149 68.5442 107.573 67.9682C106.997 67.3922 106.191 67.1042 105.157 67.1042H103.861V73.6322H105.157ZM124.22 64.7682V66.9602H121.244V76.0002H118.508V66.9602H115.532V64.7682H124.22ZM128.33 66.9602V69.2322H131.994V71.3442H128.33V73.8082H132.474V76.0002H125.594V64.7682H132.474V66.9602H128.33ZM138.314 76.1122C137.492 76.1122 136.756 75.9789 136.106 75.7122C135.455 75.4456 134.932 75.0509 134.538 74.5282C134.154 74.0056 133.951 73.3762 133.93 72.6402H136.842C136.884 73.0562 137.028 73.3762 137.274 73.6002C137.519 73.8136 137.839 73.9202 138.234 73.9202C138.639 73.9202 138.959 73.8296 139.194 73.6482C139.428 73.4562 139.546 73.1949 139.546 72.8642C139.546 72.5869 139.45 72.3576 139.258 72.1762C139.076 71.9949 138.847 71.8456 138.57 71.7282C138.303 71.6109 137.919 71.4776 137.418 71.3282C136.692 71.1042 136.1 70.8802 135.642 70.6562C135.183 70.4322 134.788 70.1016 134.458 69.6642C134.127 69.2269 133.962 68.6562 133.962 67.9522C133.962 66.9069 134.34 66.0909 135.098 65.5042C135.855 64.9069 136.842 64.6082 138.058 64.6082C139.295 64.6082 140.292 64.9069 141.05 65.5042C141.807 66.0909 142.212 66.9122 142.266 67.9682H139.306C139.284 67.6056 139.151 67.3229 138.906 67.1202C138.66 66.9069 138.346 66.8002 137.962 66.8002C137.631 66.8002 137.364 66.8909 137.162 67.0722C136.959 67.2429 136.858 67.4936 136.858 67.8242C136.858 68.1869 137.028 68.4696 137.37 68.6722C137.711 68.8749 138.244 69.0936 138.97 69.3282C139.695 69.5736 140.282 69.8082 140.73 70.0322C141.188 70.2562 141.583 70.5816 141.914 71.0082C142.244 71.4349 142.41 71.9842 142.41 72.6562C142.41 73.2962 142.244 73.8776 141.914 74.4002C141.594 74.9229 141.124 75.3389 140.506 75.6482C139.887 75.9576 139.156 76.1122 138.314 76.1122ZM152.174 64.7682V66.9602H149.198V76.0002H146.462V66.9602H143.486V64.7682H152.174Z" fill="white"/>
<g filter="url(#filter0_d_9242_4760)">
<path d="M188 54C188 49.5817 191.582 46 196 46H336C340.418 46 344 49.5817 344 54V86C344 90.4183 340.418 94 336 94H196C191.582 94 188 90.4183 188 86V54Z" fill="url(#paint2_linear_9242_4760)" shape-rendering="crispEdges"/>
<path d="M217.992 76H215.256L210.68 69.056V76H207.944V64.688H210.68L215.256 71.696V64.688H217.992V76ZM222.618 66.864V69.232H226.442V71.296H222.618V73.808H226.922V76H219.882V64.688H226.922V66.864H222.618ZM235.339 76L232.955 72.48L230.907 76H227.771L231.387 70.176L227.659 64.688H230.907L233.227 68.096L235.227 64.688H238.347L234.779 70.384L238.587 76H235.339ZM247.775 64.688V66.864H244.703V76H241.951V66.864H238.911V64.688H247.775Z" fill="white"/>
<path d="M320.666 68.7416L319.025 67.0999L316.35 64.4249C315.783 63.8666 314.816 64.2666 314.816 65.0666V70.2583V74.9333C314.816 75.7333 315.783 76.1333 316.35 75.5666L320.666 71.2499C321.358 70.5666 321.358 69.4333 320.666 68.7416Z" fill="white"/>
</g>
<defs>
<filter id="filter0_d_9242_4760" x="164" y="34" width="204" height="96" filterUnits="userSpaceOnUse" color-interpolation-filters="sRGB">
<feFlood flood-opacity="0" result="BackgroundImageFix"/>
<feColorMatrix in="SourceAlpha" type="matrix" values="0 0 0 0 0 0 0 0 0 0 0 0 0 0 0 0 0 0 127 0" result="hardAlpha"/>
<feOffset dy="12"/>
<feGaussianBlur stdDeviation="12"/>
<feComposite in2="hardAlpha" operator="out"/>
<feColorMatrix type="matrix" values="0 0 0 0 0.0916603 0 0 0 0 0.33835 0 0 0 0 0.999928 0 0 0 0.4 0"/>
<feBlend mode="normal" in2="BackgroundImageFix" result="effect1_dropShadow_9242_4760"/>
<feBlend mode="normal" in="SourceGraphic" in2="effect1_dropShadow_9242_4760" result="shape"/>
</filter>
<linearGradient id="paint0_linear_9242_4760" x1="16.92" y1="20.8095" x2="38.9825" y2="21.9195" gradientUnits="userSpaceOnUse">
<stop stop-color="#22D1EE"/>
<stop offset="1" stop-color="#03E2E2"/>
</linearGradient>
<linearGradient id="paint1_linear_9242_4760" x1="22.24" y1="68.8571" x2="171.776" y2="77.362" gradientUnits="userSpaceOnUse">
<stop stop-color="#2D6CDF"/>
<stop offset="1" stop-color="#6757D8"/>
</linearGradient>
<linearGradient id="paint2_linear_9242_4760" x1="194.24" y1="68.8571" x2="343.776" y2="77.362" gradientUnits="userSpaceOnUse">
<stop stop-color="#2D6CDF"/>
<stop offset="1" stop-color="#6757D8"/>
</linearGradient>
</defs>
</svg>
