<svg width="118" height="113" viewBox="0 0 118 113" fill="none" xmlns="http://www.w3.org/2000/svg">
<path d="M58.5 5L4.5 46L25 109H93L113 46L58.5 5Z" stroke-width="7"/>
<path d="M58 5V22M113 45.5L89.5 50M92.5 111L80.5 91.5M25.5 109L45.5 77M4 45.5L24.5 50.5M33.5 53L58 32L81 50L76.5 84L52 71L33.5 53Z" stroke-width="4"/>
<path d="M58.5 41V57.5M58.5 57.5L72.5 54.5M58.5 57.5L68 72.5M58.5 57.5L55.5 62M58.5 57.5L42.5 54.5" stroke-width="4"/>
<circle cx="32.5" cy="51.5" r="5.5"/>
<circle cx="58.5" cy="30.5" r="5.5"/>
<circle cx="81.5" cy="50.5" r="5.5"/>
<circle cx="76.5" cy="83.5" r="5.5"/>
<circle cx="50.5" cy="70.5" r="5.5"/>
</svg>
