<svg width="124" height="124" viewBox="0 0 124 124" fill="none" xmlns="http://www.w3.org/2000/svg">
<circle opacity="0.05" cx="62" cy="62" r="62" fill="#1093FF"/>
<path d="M61.973 35.3335C47.253 35.3335 35.333 47.2802 35.333 62.0002C35.333 76.7202 47.253 88.6668 61.973 88.6668C76.7197 88.6668 88.6663 76.7202 88.6663 62.0002C88.6663 47.2802 76.7197 35.3335 61.973 35.3335ZM61.9997 83.3335C50.213 83.3335 40.6663 73.7868 40.6663 62.0002C40.6663 50.2135 50.213 40.6668 61.9997 40.6668C73.7863 40.6668 83.333 50.2135 83.333 62.0002C83.333 73.7868 73.7863 83.3335 61.9997 83.3335ZM61.413 48.6668H61.253C60.1863 48.6668 59.333 49.5202 59.333 50.5868V63.1735C59.333 64.1068 59.813 64.9868 60.6397 65.4668L71.7063 72.1068C72.613 72.6402 73.7863 72.3735 74.3197 71.4668C74.8797 70.5602 74.5863 69.3602 73.653 68.8268L63.333 62.6935V50.5868C63.333 49.5202 62.4797 48.6668 61.413 48.6668Z" fill="#1093FF"/>
</svg>