<svg width="13" height="18" viewBox="0 0 13 18" fill="none" xmlns="http://www.w3.org/2000/svg">
<path d="M1.39907 16.8107L1.39876 16.8104C1.39571 16.8075 1.3895 16.8014 1.38229 16.779C1.37371 16.7523 1.36719 16.7117 1.36719 16.6575V2.09091C1.36719 1.64004 1.80277 1.16016 2.4847 1.16016H10.7017C11.3837 1.16016 11.8192 1.64004 11.8192 2.09091V16.6575C11.8192 16.7117 11.8127 16.7523 11.8041 16.779C11.7969 16.8014 11.7907 16.8075 11.7877 16.8104L11.7874 16.8107C11.7792 16.8185 11.7715 16.8236 11.7535 16.8289C11.74 16.8329 11.7221 16.8364 11.6981 16.8386L7.00942 13.7109L6.59322 13.4332L6.17701 13.7109L1.48834 16.8386C1.46437 16.8364 1.44643 16.8329 1.43295 16.8289C1.41495 16.8236 1.40721 16.8185 1.39907 16.8107Z" stroke="#1093FF" stroke-width="1.5"/>
</svg>