<svg width="12" height="18" viewBox="0 0 12 18" fill="none" xmlns="http://www.w3.org/2000/svg">
<path d="M0.63226 16.995L0.632049 16.9948C0.559457 16.9253 0.523438 16.8142 0.523438 16.6614V2.09482C0.523438 1.47784 1.10076 0.914062 1.89095 0.914062H10.108C10.8982 0.914062 11.4755 1.47784 11.4755 2.09482V16.6614C11.4755 16.8142 11.4395 16.9253 11.3669 16.9948L11.3667 16.995C11.291 17.0676 11.1908 17.0944 11.0481 17.0951C11.0359 17.0945 11.0254 17.0907 11.0163 17.0844L11.0163 17.0843L11.01 17.0801L6.27694 13.9228L5.99947 13.7377L5.72199 13.9228L0.98898 17.0801L0.988948 17.08L0.982662 17.0844C0.9735 17.0907 0.96301 17.0945 0.950858 17.0951C0.808155 17.0944 0.707938 17.0676 0.63226 16.995Z" fill="#1093FF" stroke="#1093FF"/>
</svg>