<svg width="20" height="20" viewBox="0 0 20 20" fill="none" xmlns="http://www.w3.org/2000/svg">
<path d="M15.1149 1H4.88692C3.50732 1 2.38672 2.1214 2.38672 3.5012V16.4996C2.38672 17.88 3.50732 19 4.88692 19H15.1149C16.4921 19 17.6117 17.88 17.6117 16.4996V3.5012C17.6119 2.1214 16.4921 1 15.1149 1ZM16.6121 16.4996C16.6121 17.328 15.9413 18.0002 15.1149 18.0002H4.88692C4.05872 18.0002 3.38652 17.328 3.38652 16.4996V3.5012C3.38652 2.6746 4.05872 2.0006 4.88692 2.0006H15.1149C15.9415 2.0006 16.6121 2.6746 16.6121 3.5012V16.4996Z" fill="white"/>
<path d="M14.9707 3.20898H5.02905C4.89365 3.20898 4.78125 3.31878 4.78125 3.45778V6.70918C4.78125 6.84638 4.89365 6.95878 5.02905 6.95878H14.9707C15.1079 6.95878 15.2193 6.84638 15.2193 6.70918V3.45778C15.2195 3.31878 15.1079 3.20898 14.9707 3.20898ZM14.7203 6.45878H5.28105V3.70798H14.7203V6.45878Z" fill="white"/>
<path d="M14.0724 8.1582H11.356H8.64078H5.92438C5.78718 8.1582 5.67578 8.2696 5.67578 8.4086V11.1212V13.8358V16.5506C5.67578 16.6878 5.78718 16.8008 5.92438 16.8008H8.64078H11.356H14.0724C14.2096 16.8008 14.3228 16.6878 14.3228 16.5506V13.8358V11.121V8.4086C14.3228 8.2696 14.2096 8.1582 14.0724 8.1582ZM6.17478 11.3732H8.39038V13.5854H6.17478V11.3732ZM8.88858 11.3732H11.1056V13.5854H8.88858V11.3732ZM11.6046 11.3732H13.8202V13.5854H11.6046V11.3732ZM13.8202 10.872H11.6046V8.659H13.8202V10.872ZM11.1056 10.872H8.88858V8.659H11.1056V10.872ZM6.17478 8.659H8.39038V10.872H6.17478V8.659ZM6.17478 14.0862H8.39038V16.3002H6.17478V14.0862ZM8.88858 14.0862H11.1056V16.3002H8.88858V14.0862ZM13.8202 16.3002H11.6046V14.0862H13.8202V16.3002Z" fill="white"/>
</svg>
