<svg width="32" height="32" viewBox="0 0 32 32" fill="none" xmlns="http://www.w3.org/2000/svg">
<rect x="3.39844" y="3.39844" width="27.2" height="27.2" rx="2" fill="#92E3A9"/>
<path fill-rule="evenodd" clip-rule="evenodd" d="M15.0055 22.7794L14.2842 22.0581L13.563 22.7794C13.9613 23.1777 14.6071 23.1777 15.0055 22.7794ZM14.2842 20.6156L9.56547 15.8969C9.16713 15.4985 8.5213 15.4985 8.12297 15.8969C7.72464 16.2952 7.72464 16.941 8.12297 17.3394L13.563 22.7794L14.2842 22.0581C15.0055 22.7794 15.0054 22.7794 15.0055 22.7794L25.5013 12.2836C25.8996 11.8852 25.8996 11.2394 25.5013 10.8411C25.103 10.4427 24.4571 10.4427 24.0588 10.8411L14.2842 20.6156Z" fill="white"/>
</svg>
