<svg width="32" height="32" viewBox="0 0 32 32" fill="none" xmlns="http://www.w3.org/2000/svg">
<path d="M25.3327 2.66602H6.66602C5.60515 2.66602 4.58773 3.08744 3.83759 3.83759C3.08744 4.58773 2.66602 5.60515 2.66602 6.66602V27.9993C2.66606 28.2353 2.72874 28.4671 2.84766 28.6709C2.96657 28.8748 3.13746 29.0434 3.34287 29.1596C3.54828 29.2758 3.78085 29.3354 4.01682 29.3323C4.2528 29.3292 4.48372 29.2636 4.68602 29.142L10.086 25.902C10.7077 25.5298 11.4187 25.3331 12.1433 25.3327H25.3327C26.3935 25.3327 27.411 24.9113 28.1611 24.1611C28.9113 23.411 29.3327 22.3935 29.3327 21.3327V6.66602C29.3327 5.60515 28.9113 4.58773 28.1611 3.83759C27.411 3.08744 26.3935 2.66602 25.3327 2.66602ZM26.666 21.3327C26.666 21.6863 26.5255 22.0254 26.2755 22.2755C26.0254 22.5255 25.6863 22.666 25.3327 22.666H12.1433C10.9348 22.6661 9.74892 22.9947 8.71268 23.6167L5.33268 25.6433V6.66602C5.33268 6.31239 5.47316 5.97326 5.72321 5.72321C5.97326 5.47316 6.31239 5.33268 6.66602 5.33268H25.3327C25.6863 5.33268 26.0254 5.47316 26.2755 5.72321C26.5255 5.97326 26.666 6.31239 26.666 6.66602V21.3327Z" fill="#1093FF"/>
<path fill-rule="evenodd" clip-rule="evenodd" d="M23.5798 11.7897H8.42188V10.1055H23.5798V11.7897Z" fill="#1093FF"/>
<path fill-rule="evenodd" clip-rule="evenodd" d="M23.5798 15.1588H8.42188V13.4746H23.5798V15.1588Z" fill="#1093FF"/>
<path fill-rule="evenodd" clip-rule="evenodd" d="M23.5798 18.526H8.42188V16.8418H23.5798V18.526Z" fill="#1093FF"/>
</svg>
