<svg width="18" height="16" viewBox="0 0 18 16" fill="none" xmlns="http://www.w3.org/2000/svg">
<path d="M3.9936 9.16406H0.426989C0.175819 9.16406 0 9.365 0 9.59105V15.5689C0 15.8201 0.200936 15.9959 0.426989 15.9959H3.9936C4.24477 15.9959 4.42059 15.7949 4.42059 15.5689V9.61617C4.44571 9.365 4.24477 9.16406 3.9936 9.16406Z" fill="#1093FF"/>
<path d="M10.4702 4.14062H6.90355C6.65238 4.14062 6.47656 4.34156 6.47656 4.56761V15.5689C6.47656 15.82 6.6775 15.9958 6.90355 15.9958H10.4702C10.7213 15.9958 10.8972 15.7949 10.8972 15.5689V4.59273C10.9223 4.34156 10.7213 4.14062 10.4702 4.14062Z" fill="#C4C4C4"/>
<path d="M16.9584 0H13.3918C13.1407 0 12.9648 0.200936 12.9648 0.426988V15.5725C12.9648 15.8237 13.1658 15.9995 13.3918 15.9995H16.9584C17.2096 15.9995 17.3854 15.7986 17.3854 15.5725V0.426988C17.3854 0.200936 17.1845 0 16.9584 0Z" fill="#C4C4C4"/>
</svg>
