<svg width="32" height="18" viewBox="0 0 32 18" fill="none" xmlns="http://www.w3.org/2000/svg">
<path fill-rule="evenodd" clip-rule="evenodd" d="M6.40278 4.63868C3.94972 5.91853 2.77344 7.51141 2.77344 9.00052C2.77344 10.4896 3.94972 12.0825 6.40278 13.3624C8.80747 14.617 12.1989 15.4229 15.9997 15.4229C19.8005 15.4229 23.1919 14.617 25.5966 13.3624C28.0497 12.0825 29.2259 10.4896 29.2259 9.00052C29.2259 7.51141 28.0497 5.91853 25.5966 4.63868C23.1919 3.38406 19.8005 2.57812 15.9997 2.57812C12.1989 2.57812 8.80747 3.38406 6.40278 4.63868ZM5.47764 2.86551C8.22185 1.43375 11.9436 0.578125 15.9997 0.578125C20.0558 0.578125 23.7775 1.43375 26.5217 2.86551C29.2176 4.27203 31.2259 6.39035 31.2259 9.00052C31.2259 11.6107 29.2176 13.729 26.5217 15.1355C23.7775 16.5673 20.0558 17.4229 15.9997 17.4229C11.9436 17.4229 8.22185 16.5673 5.47764 15.1355C2.78181 13.729 0.773438 11.6107 0.773438 9.00052C0.773438 6.39035 2.78181 4.27203 5.47764 2.86551Z" fill="black"/>
</svg>
