<svg width="78" height="40" viewBox="0 0 78 40" fill="none" xmlns="http://www.w3.org/2000/svg">
<path d="M32.1898 29.1165H36.4923V37.4031C35.3876 38.2395 34.1085 38.8815 32.6549 39.3289C31.2014 39.7763 29.7381 39.9999 28.2652 39.9999C26.1527 39.9999 24.2534 39.5526 22.5673 38.6578C20.8812 37.7435 19.5537 36.4888 18.5846 34.8938C17.635 33.2793 17.1602 31.4605 17.1602 29.4375C17.1602 27.4145 17.635 25.6054 18.5846 24.0103C19.5537 22.3958 20.8909 21.1412 22.5964 20.2464C24.3019 19.3321 26.2206 18.875 28.3524 18.875C30.1354 18.875 31.7537 19.1765 33.2073 19.7795C34.6608 20.3825 35.8818 21.2579 36.8702 22.4056L33.8468 25.2066C32.3933 23.6699 30.6393 22.9016 28.585 22.9016C27.2865 22.9016 26.1334 23.1739 25.1256 23.7186C24.1178 24.2632 23.3329 25.0316 22.7708 26.0236C22.2088 27.0157 21.9278 28.1536 21.9278 29.4375C21.9278 30.7019 22.2088 31.8301 22.7708 32.8221C23.3329 33.8142 24.1081 34.5923 25.0965 35.1564C26.1043 35.701 27.2477 35.9734 28.5269 35.9734C29.8835 35.9734 31.1045 35.6816 32.1898 35.098V29.1165Z" fill="white"/>
<path d="M53.8326 39.6498L49.908 33.9601H49.6754H45.5765V39.6498H40.867V19.2251H49.6754C51.4778 19.2251 53.038 19.5266 54.3558 20.1297C55.6931 20.7327 56.7203 21.5886 57.4374 22.6973C58.1544 23.8061 58.513 25.1191 58.513 26.6364C58.513 28.1536 58.1447 29.4667 57.4083 30.5754C56.6912 31.6647 55.664 32.5012 54.3268 33.0847L58.8909 39.6498H53.8326ZM53.7454 26.6364C53.7454 25.4887 53.3771 24.6134 52.6407 24.0103C51.9042 23.3879 50.8286 23.0766 49.4138 23.0766H45.5765V30.1961H49.4138C50.8286 30.1961 51.9042 29.8849 52.6407 29.2624C53.3771 28.6399 53.7454 27.7646 53.7454 26.6364Z" fill="white"/>
<path d="M78.0007 35.8567V39.6498H62.2443V19.2251H77.6227V23.0183H66.9247V27.4534H76.3727V31.1298H66.9247V35.8567H78.0007Z" fill="white"/>
<g clip-path="url(#clip0)">
<path d="M19.8178 17.1684C16.5797 18.683 14.2718 20.9055 13.1695 23.2127L14.4616 25.9407L30.0349 18.6564L28.7429 15.9284C26.2513 15.3022 23.0564 15.6536 19.8178 17.1684ZM33.4528 9.08066L16.0076 9.22119L4.78705 22.4887L7.69027 22.4578L8.48163 24.1286C7.94101 24.532 8.08694 24.8447 8.26258 25.2155C8.36633 25.4346 8.56091 25.657 8.77261 25.7455L8.77868 27.8717L11.7017 26.5045L10.0634 25.1403C10.1273 24.9229 10.1321 24.6443 10.0284 24.4252C9.85304 24.055 9.13868 23.971 9.08032 23.8478L8.42147 22.4568L12.0495 22.3928L11.9934 22.2744C13.0548 19.8809 15.7452 17.4185 19.1755 15.814C22.607 14.2089 26.2323 13.7173 28.7648 14.4298L28.8209 14.5483L33.4528 9.08066Z" fill="#FFCD03"/>
</g>
<defs>
<clipPath id="clip0">
<rect width="32.9205" height="26.212" fill="white" transform="matrix(0.905811 -0.423682 0.428044 0.903758 0 13.9473)"/>
</clipPath>
</defs>
</svg>
