<svg width="25" height="31" viewBox="0 0 25 31" fill="none" xmlns="http://www.w3.org/2000/svg">
<path d="M12 0C13.6556 0 15.157 0.673644 16.2417 1.75833C17.3264 2.84301 18 4.34443 18 6C18 7.65557 17.3264 9.15699 16.2417 10.2417C15.157 11.3264 13.6556 12 12 12C10.3444 12 8.84301 11.3264 7.75833 10.2417C6.67364 9.15699 6 7.65557 6 6C6 4.34443 6.67364 2.84301 7.75833 1.75833C8.84301 0.673644 10.3444 0 12 0Z" fill="#1093FF"/>
<path d="M5.1193 24.4875H4.3943H0.488015C0.481764 24.4875 0.475514 24.4875 0.475514 24.4875C0.206762 24.4813 -0.0119897 24.25 0.000510397 23.9813C0.0130105 23.675 0.0192606 23.3688 0.0255106 23.0563C0.0630109 21.3625 0.113011 19.4312 0.544265 17.9375C0.925518 16.6187 1.60677 15.575 2.88178 14.6437C4.0943 13.7562 5.85056 12.9812 8.41308 12.1624C8.56308 12.1062 8.73183 12.1249 8.87559 12.2187C9.38184 12.5812 9.94435 12.8624 10.5443 13.0562C11.1256 13.2374 11.7444 13.3374 12.3944 13.3374C13.0444 13.3374 13.6631 13.2374 14.2444 13.0562C14.8444 12.8624 15.4069 12.5812 15.9131 12.2187C16.0319 12.1374 16.1819 12.1062 16.3319 12.1437C19.1569 12.9312 21.0007 13.7812 22.2257 14.7937C23.4945 15.85 24.0882 17.0687 24.4007 18.5687C24.682 19.95 24.7257 21.5688 24.7632 23.0563C24.7695 23.35 24.7757 23.6313 24.7882 23.9313C24.7882 23.95 24.7945 23.9688 24.7945 23.9875C24.7945 24.2625 24.5757 24.4813 24.3007 24.4813H21.5569H19.6694V23.6063C19.6694 23.0688 19.4569 22.55 19.0757 22.1688C18.8882 21.9813 18.6694 21.8313 18.4319 21.7313C18.5319 21.4938 18.5819 21.2313 18.5819 20.9687C18.5819 20.4312 18.3694 19.9125 17.9882 19.5312L17.1069 18.65C16.7257 18.2687 16.2069 18.0562 15.6694 18.0562C15.4069 18.0562 15.1444 18.1062 14.9069 18.2062C14.8069 17.9687 14.6569 17.75 14.4694 17.5625C14.0881 17.1812 13.5756 16.9687 13.0319 16.9687H11.7881C11.2506 16.9687 10.7319 17.1812 10.3506 17.5625C10.1631 17.75 10.0131 17.9687 9.91309 18.2062C9.67559 18.1062 9.41309 18.0562 9.15059 18.0562C8.61308 18.0562 8.09433 18.2687 7.71308 18.65L6.83182 19.5312C6.45057 19.9125 6.23806 20.4312 6.23806 20.9687C6.23806 21.2313 6.28806 21.4938 6.38806 21.7313C6.15056 21.8313 5.93181 21.9813 5.74431 22.1688C5.36306 22.55 5.15055 23.0625 5.15055 23.6063V24.4813L5.1193 24.4875Z" fill="#1093FF"/>
<path fill-rule="evenodd" clip-rule="evenodd" d="M5.61328 24.8563C5.61328 25.2813 5.78828 25.6626 6.06329 25.9438C6.34454 26.2251 6.72579 26.3938 7.15079 26.3938H7.16329L7.15079 26.4063C6.85079 26.7063 6.70079 27.1001 6.70079 27.4938C6.70079 27.8876 6.85079 28.2813 7.15079 28.5813L8.03205 29.4626C8.33205 29.7626 8.72581 29.9126 9.11956 29.9126C9.51331 29.9126 9.90707 29.7626 10.2071 29.4626L10.2196 29.4501V29.4626C10.2196 29.8876 10.3946 30.2689 10.6696 30.5501C10.9508 30.8314 11.3321 31.0001 11.7571 31.0001H13.0008C13.4258 31.0001 13.8071 30.8251 14.0884 30.5501C14.3696 30.2689 14.5384 29.8876 14.5384 29.4626V29.4501L14.5509 29.4626C14.8509 29.7626 15.2446 29.9126 15.6384 29.9126C16.0321 29.9126 16.4259 29.7626 16.7259 29.4626L17.6071 28.5813C17.9071 28.2813 18.0571 27.8876 18.0571 27.4938C18.0571 27.1001 17.9071 26.7063 17.6071 26.4063L17.5946 26.3938H17.6071C18.0321 26.3938 18.4134 26.2188 18.6946 25.9438C18.9759 25.6626 19.1446 25.2813 19.1446 24.8563V23.6126C19.1446 23.1875 18.9696 22.8063 18.6946 22.525C18.4134 22.2438 18.0321 22.075 17.6071 22.075H17.5946L17.6071 22.0625C17.9071 21.7625 18.0571 21.3688 18.0571 20.975C18.0571 20.5813 17.9071 20.1875 17.6071 19.8875L16.7259 19.0063C16.4259 18.7063 16.0321 18.5563 15.6384 18.5563C15.2446 18.5563 14.8509 18.7063 14.5509 19.0063L14.5384 19.0188V19.0063C14.5384 18.5813 14.3634 18.2 14.0884 17.9188C13.8071 17.6375 13.4258 17.4688 13.0008 17.4688H11.7571C11.3321 17.4688 10.9508 17.6438 10.6696 17.9188C10.3883 18.2 10.2196 18.5813 10.2196 19.0063V19.0188L10.2071 19.0063C9.90707 18.7063 9.51331 18.5563 9.11956 18.5563C8.72581 18.5563 8.33205 18.7063 8.03205 19.0063L7.15079 19.8875C6.85079 20.1875 6.70079 20.5813 6.70079 20.975C6.70079 21.3688 6.85079 21.7625 7.15079 22.0625L7.16329 22.075H7.15079C6.72579 22.075 6.34454 22.25 6.06329 22.525C5.78203 22.8063 5.61328 23.1875 5.61328 23.6126V24.8563ZM14.2821 25.9001C13.7946 26.3876 13.1196 26.6876 12.3758 26.6876C11.6321 26.6876 10.9571 26.3876 10.4696 25.9001C9.98207 25.4126 9.68207 24.7376 9.68207 23.9938C9.68207 23.25 9.98207 22.575 10.4696 22.0875C10.9571 21.6 11.6321 21.3 12.3758 21.3C13.1196 21.3 13.7946 21.6 14.2821 22.0875C14.7696 22.575 15.0696 23.25 15.0696 23.9938C15.0696 24.7376 14.7696 25.4126 14.2821 25.9001Z" fill="#1093FF"/>
</svg>
