<svg width="18" height="16" viewBox="0 0 18 16" fill="none" xmlns="http://www.w3.org/2000/svg">
<path d="M3.99349 9.16797H0.426977C0.175814 9.16797 0 9.3689 0 9.59495V15.5726C0 15.8238 0.200931 15.9996 0.426977 15.9996H3.99349C4.24466 15.9996 4.42047 15.7987 4.42047 15.5726V9.62006C4.44559 9.3689 4.24466 9.16797 3.99349 9.16797Z" fill="#1093FF"/>
<path d="M10.4701 4.14062H6.90354C6.65238 4.14062 6.47656 4.34156 6.47656 4.5676V15.5686C6.47656 15.8197 6.67749 15.9955 6.90354 15.9955H10.4701C10.7212 15.9955 10.897 15.7946 10.897 15.5686V4.59272C10.9222 4.34156 10.7212 4.14062 10.4701 4.14062Z" fill="#1093FF"/>
<path d="M16.9544 0H13.3879C13.1368 0 12.9609 0.20093 12.9609 0.426977V15.5721C12.9609 15.8233 13.1619 15.9991 13.3879 15.9991H16.9544C17.2056 15.9991 17.3814 15.7982 17.3814 15.5721V0.426977C17.3814 0.20093 17.1805 0 16.9544 0Z" fill="#1093FF"/>
</svg>
