<svg width="18" height="16" viewBox="0 0 18 16" fill="none" xmlns="http://www.w3.org/2000/svg">
<path d="M3.99356 9.16406H0.426985C0.175817 9.16406 0 9.365 0 9.59105V15.5688C0 15.82 0.200934 15.9958 0.426985 15.9958H3.99356C4.24473 15.9958 4.42055 15.7949 4.42055 15.5688V9.61616C4.44567 9.365 4.24473 9.16406 3.99356 9.16406Z" fill="#1093FF"/>
<path d="M10.4701 4.14062H6.90355C6.65238 4.14062 6.47656 4.34156 6.47656 4.56761V15.5687C6.47656 15.8199 6.6775 15.9957 6.90355 15.9957H10.4701C10.7213 15.9957 10.8971 15.7948 10.8971 15.5687V4.59273C10.9222 4.34156 10.7213 4.14062 10.4701 4.14062Z" fill="#1093FF"/>
<path d="M16.9545 0H13.3879C13.1368 0 12.9609 0.200934 12.9609 0.426985V15.5724C12.9609 15.8236 13.1619 15.9994 13.3879 15.9994H16.9545C17.2057 15.9994 17.3815 15.7984 17.3815 15.5724V0.426985C17.3815 0.200934 17.1806 0 16.9545 0Z" fill="#C4C4C4"/>
</svg>
