<svg width="20" height="20" viewBox="0 0 20 20" fill="none" xmlns="http://www.w3.org/2000/svg">
<path d="M16.0583 16.9034C16.035 16.9034 16.0118 16.9034 16.0118 16.9034C14.685 16.6939 13.5444 16.2982 12.7297 15.7861C12.4038 15.8327 12.0546 15.8559 11.6356 15.8559C8.12076 15.8559 5.23438 13.598 5.23438 10.7815C5.23438 7.98821 8.09748 5.70703 11.6356 5.70703C15.1738 5.70703 18.0369 7.96493 18.0369 10.7815C18.0369 12.3411 17.1524 13.761 15.6393 14.7619C15.5462 14.9481 15.6859 15.7396 16.2911 16.3215C16.4075 16.4146 16.4308 16.6008 16.3609 16.7172C16.3144 16.8336 16.198 16.9034 16.0583 16.9034ZM12.7995 15.0878C12.8693 15.0878 12.9392 15.1111 12.9857 15.1576C13.5211 15.5301 14.3358 15.8559 15.2203 16.0887C14.9643 15.6232 14.8945 15.1576 14.9177 14.8085C14.9643 14.4593 15.1272 14.2964 15.2203 14.2265C16.5471 13.3653 17.3386 12.1083 17.3386 10.8048C17.3619 8.36064 14.8013 6.38207 11.6356 6.38207C8.46992 6.38207 5.90942 8.36065 5.90942 10.7815C5.90942 13.2023 8.46992 15.1809 11.6356 15.1809C12.0546 15.1809 12.4271 15.1576 12.7297 15.0878C12.7529 15.0878 12.7762 15.0878 12.7995 15.0878Z" fill="white" stroke="white" stroke-width="0.3"/>
<path d="M2.99872 13.9029C2.83578 13.9029 2.67284 13.9029 2.5099 13.8796C2.37023 13.8563 2.25385 13.7632 2.20729 13.6236C2.16074 13.4839 2.20729 13.3442 2.32368 13.2744C3.06855 12.6925 3.44099 11.5751 3.58065 11.1562C2.83578 10.2716 2.46334 9.20086 2.46334 8.10683C2.46334 5.38338 4.81435 3.19531 7.74729 3.19531C8.95771 3.19531 10.1216 3.56775 11.0294 4.24279C11.1923 4.35918 11.2156 4.5454 11.0992 4.70834C10.9828 4.87128 10.7966 4.89456 10.6337 4.77817C9.84225 4.19624 8.84133 3.84708 7.77057 3.84708C5.23334 3.84708 3.16166 5.75582 3.16166 8.08355C3.16166 9.0612 3.5341 10.0388 4.23242 10.8303C4.30225 10.9234 4.32553 11.0398 4.30225 11.1329C4.27897 11.2027 4.02292 12.2967 3.34788 13.2046C3.90654 13.158 4.34881 12.9951 4.48847 12.8554C4.60486 12.6925 4.79107 12.6692 4.95402 12.7856C5.11696 12.902 5.14023 13.0882 5.02385 13.2511C4.67469 13.7167 3.8367 13.9029 2.99872 13.9029Z" fill="white" stroke="white" stroke-width="0.3"/>
<path d="M11.7045 12.368C11.6346 12.368 11.5415 12.3447 11.4717 12.2982C11.2156 12.0887 11.0527 11.7395 11.0527 11.3904C11.0527 11.1343 11.1225 10.8084 11.495 10.4825C11.5648 10.436 11.6579 10.3662 11.7743 10.2963C12.17 10.017 12.5657 9.76094 12.5192 9.31867C12.4959 9.01607 12.2166 8.59708 11.6114 8.59708C11.2156 8.59708 10.7734 8.89968 10.7268 9.20229C10.6803 9.38851 10.5173 9.50489 10.3311 9.48161C10.1449 9.43506 10.0285 9.27212 10.0518 9.0859C10.1682 8.45741 10.8665 7.94531 11.6114 7.94531C12.589 7.94531 13.1244 8.64363 13.1709 9.31867C13.2408 10.2032 12.5192 10.6688 12.1467 10.9248C12.0769 10.9714 11.9838 11.0412 11.9605 11.0645C11.8209 11.1809 11.751 11.3205 11.751 11.4369C11.751 11.5998 11.8441 11.7395 11.9372 11.8093C12.0769 11.9257 12.1002 12.1352 11.9838 12.2749C11.914 12.3214 11.7976 12.368 11.7045 12.368Z" fill="white" stroke="white" stroke-width="0.3"/>
<path d="M12.2263 13.269C12.3933 13.269 12.5287 13.1336 12.5287 12.9665C12.5287 12.7995 12.3933 12.6641 12.2263 12.6641C12.0592 12.6641 11.9238 12.7995 11.9238 12.9665C11.9238 13.1336 12.0592 13.269 12.2263 13.269Z" fill="white"/>
</svg>
