<svg width="99" height="99" viewBox="0 0 99 99" fill="none" xmlns="http://www.w3.org/2000/svg">
<path d="M49.5 98.9375C76.8036 98.9375 98.9375 76.8036 98.9375 49.5C98.9375 22.1964 76.8036 0.0625 49.5 0.0625C22.1964 0.0625 0.0625 22.1964 0.0625 49.5C0.0625 76.8036 22.1964 98.9375 49.5 98.9375Z" fill="url(#paint0_linear)"/>
<path fill-rule="evenodd" clip-rule="evenodd" d="M35.2654 24.6727C33.3947 24.702 31.612 25.4721 30.3086 26.8142C29.0052 28.1564 28.2876 29.9611 28.3132 31.8318V67.1443C28.3 68.0802 28.4729 69.0092 28.8219 69.8777C29.1708 70.7461 29.689 71.5367 30.3461 72.2032C31.0032 72.8697 31.7862 73.399 32.6497 73.7602C33.5131 74.1214 34.4397 74.3072 35.3757 74.3072C36.3117 74.3072 37.2383 74.1214 38.1017 73.7602C38.9652 73.399 39.7482 72.8697 40.4053 72.2032C41.0625 71.5367 41.5806 70.7461 41.9296 69.8777C42.2785 69.0092 42.4514 68.0802 42.4382 67.1443V31.8318C42.4511 30.8869 42.2744 29.9492 41.9184 29.0739C41.5623 28.1985 41.0341 27.4033 40.3652 26.7358C39.6964 26.0682 38.9006 25.5418 38.0246 25.1874C37.1486 24.833 36.2102 24.658 35.2654 24.6727Z" fill="white"/>
<path fill-rule="evenodd" clip-rule="evenodd" d="M63.5154 24.6727C61.6447 24.702 59.862 25.4721 58.5586 26.8142C57.2552 28.1564 56.5376 29.9611 56.5632 31.8318V67.1443C56.55 68.0802 56.7229 69.0092 57.0719 69.8777C57.4208 70.7461 57.939 71.5367 58.5961 72.2032C59.2532 72.8697 60.0362 73.399 60.8997 73.7602C61.7631 74.1214 62.6897 74.3072 63.6257 74.3072C64.5617 74.3072 65.4883 74.1214 66.3517 73.7602C67.2152 73.399 67.9982 72.8697 68.6553 72.2032C69.3124 71.5367 69.8306 70.7461 70.1796 69.8777C70.5285 69.0092 70.7014 68.0802 70.6882 67.1443V31.8318C70.7011 30.8869 70.5244 29.9492 70.1683 29.0739C69.8123 28.1985 69.2841 27.4033 68.6152 26.7358C67.9464 26.0682 67.1506 25.5418 66.2746 25.1874C65.3986 24.833 64.4602 24.658 63.5154 24.6727Z" fill="white"/>
<defs>
<linearGradient id="paint0_linear" x1="0.0621914" y1="49.5111" x2="76.2911" y2="49.5111" gradientUnits="userSpaceOnUse">
<stop stop-color="#F1455B"/>
<stop offset="0.4744" stop-color="#F78F9D"/>
<stop offset="1" stop-color="#F1455B"/>
</linearGradient>
</defs>
</svg>
