<svg width="24" height="24" viewBox="0 0 24 24" fill="none" xmlns="http://www.w3.org/2000/svg">
<path fill-rule="evenodd" clip-rule="evenodd" d="M12.0039 20.5039C16.6983 20.5039 20.5039 16.6983 20.5039 12.0039C20.5039 7.30949 16.6983 3.50391 12.0039 3.50391C7.30949 3.50391 3.50391 7.30949 3.50391 12.0039C3.50391 16.6983 7.30949 20.5039 12.0039 20.5039ZM12.0039 22.0039C17.5268 22.0039 22.0039 17.5268 22.0039 12.0039C22.0039 6.48106 17.5268 2.00391 12.0039 2.00391C6.48106 2.00391 2.00391 6.48106 2.00391 12.0039C2.00391 17.5268 6.48106 22.0039 12.0039 22.0039Z" fill="#FEBB2C"/>
<path d="M12.0067 5.00391C13.2381 5.00391 14.4476 5.32872 15.5133 5.94557C16.5791 6.56242 17.4632 7.44947 18.0765 8.5172C18.6899 9.58494 19.0107 10.7956 19.0067 12.0269C19.0026 13.2583 18.6738 14.4668 18.0535 15.5304C17.4331 16.5941 16.5432 17.4753 15.4734 18.0852C14.4037 18.695 13.192 19.0119 11.9607 19.0038C10.7293 18.9957 9.52192 18.6629 8.46029 18.0391C7.39866 17.4152 6.52037 16.5224 5.91406 15.4506L12.0067 12.0039V5.00391Z" fill="#FEBB2C"/>
</svg>
