<svg width="24" height="24" viewBox="0 0 24 24" fill="none" xmlns="http://www.w3.org/2000/svg">
<path d="M20.0321 17.937V2.97656H14.1975C13.2295 2.97656 12.4375 3.76861 12.4375 4.73661V18.6146C12.9039 18.1922 13.5243 17.937 14.1975 17.937H20.0321ZM13.7311 5.39663H18.7385C18.9805 5.39663 19.1785 5.59464 19.1785 5.83664C19.1785 6.08307 18.9805 6.27665 18.7385 6.27665H13.7311C13.4891 6.27665 13.2911 6.08307 13.2911 5.83664C13.2911 5.59464 13.4891 5.39663 13.7311 5.39663ZM13.7311 8.47671H18.7385C18.9805 8.47671 19.1785 8.67473 19.1785 8.91673C19.1785 9.16316 18.9805 9.35674 18.7385 9.35674H13.7311C13.4891 9.35674 13.2911 9.16316 13.2911 8.91673C13.2911 8.67473 13.4891 8.47671 13.7311 8.47671ZM13.7311 11.5568H18.7385C18.9805 11.5568 19.1785 11.7548 19.1785 11.9968C19.1785 12.2432 18.9805 12.4368 18.7385 12.4368H13.7311C13.4891 12.4368 13.2911 12.2432 13.2911 11.9968C13.2911 11.7548 13.4891 11.5568 13.7311 11.5568ZM13.2911 15.0769C13.2911 14.8349 13.4891 14.6369 13.7311 14.6369H18.7385C18.9805 14.6369 19.1785 14.8349 19.1785 15.0769C19.1785 15.3233 18.9805 15.5169 18.7385 15.5169H13.7311C13.4891 15.5169 13.2911 15.3233 13.2911 15.0769Z" fill="#1093FF"/>
<path d="M22.5606 4.29883H20.914V18.8171H14.1995C13.7655 18.8171 13.3504 18.9767 13.0303 19.2668L12.4395 19.8021L11.9999 20.2003L11.5594 19.8016L10.969 19.2672C10.648 18.9769 10.233 18.8171 9.79938 18.8171H3.0849V4.29883H1.44001C1.1968 4.29883 1 4.49585 1 4.73884V20.5793C1 20.8223 1.1968 21.0193 1.44001 21.0193H22.5606C22.8038 21.0193 23.0006 20.8223 23.0006 20.5793V4.73884C23.0006 4.49585 22.8038 4.29883 22.5606 4.29883Z" fill="#1093FF"/>
<path d="M11.5594 18.6146V4.73661C11.5594 3.76861 10.7718 2.97656 9.79938 2.97656H3.96484V17.937H9.79938C10.477 17.937 11.093 18.1922 11.5594 18.6146ZM9.61899 10.1092L6.5301 13.2068C6.44649 13.2904 6.33211 13.3345 6.2177 13.3345C6.1605 13.3345 6.1033 13.3257 6.0505 13.3037C5.88329 13.2333 5.77769 13.0748 5.77769 12.8945V6.70348C5.77769 6.52309 5.88329 6.36466 6.0505 6.29427C6.2133 6.22826 6.4025 6.26347 6.5301 6.39106L9.61899 9.48876C9.7906 9.66035 9.7906 9.93756 9.61899 10.1092Z" fill="#1093FF"/>
</svg>
