<svg width="124" height="124" viewBox="0 0 124 124" fill="none" xmlns="http://www.w3.org/2000/svg">
<circle opacity="0.05" cx="62" cy="62" r="62" fill="#1093FF"/>
<path d="M47.1091 83.911L47.1089 83.9108C46.6794 83.4993 46.5625 82.9309 46.5625 82.42V43.5758C46.5625 41.3768 48.5745 39.5938 51.0425 39.5938H72.9546C75.4227 39.5938 77.4346 41.3768 77.4346 43.5758V82.42C77.4346 82.9309 77.3177 83.4993 76.8882 83.9108L76.888 83.911C76.4562 84.3252 75.9234 84.4094 75.4495 84.41C75.253 84.4056 75.0647 84.345 74.9037 84.234L74.9038 84.234L74.8974 84.2298L62.276 75.8102L61.9986 75.6251L61.7211 75.8102L49.0997 84.2298L49.0997 84.2297L49.0934 84.234C48.9324 84.345 48.7441 84.4056 48.5477 84.41C48.0737 84.4094 47.541 84.3252 47.1091 83.911Z" fill="#1093FF" stroke="#1093FF"/>
</svg>
