<svg id="Group_1349" data-name="Group 1349" xmlns="http://www.w3.org/2000/svg" width="110" height="110" viewBox="0 0 110 110">
  <rect id="Rectangle_627" data-name="Rectangle 627" width="110" height="110" fill="none"/>
  <g id="school" transform="translate(13.098 524.998)">
    <path id="Path_3945" data-name="Path 3945" d="M32.13-509.373c-5.317,1.428-9.567,2.658-9.879,2.872a2.816,2.816,0,0,0-1.017,3.331c.476,1.1,1.034,1.428,3.988,2.232l2.757.771.049,4.611.033,4.595-.656.1c-1.526.2-1.969.574-5.4,4.693-1.772,2.133-3.364,4.053-3.512,4.283a2.324,2.324,0,0,0-.279,1.264v.853l-5.284.049-5.3.049-.87.476a4.748,4.748,0,0,0-1.247,1c-.213.279-1.214,2.15-2.215,4.152L1.477-470.4v32.918l-.492.476c-.837.8-.985,1.329-.985,3.479,0,1.69.049,2.051.377,2.675a3.079,3.079,0,0,0,.919,1.1l.558.377H21.267l.492.509c.952,1.017-.2.968,20.25.968s19.3.049,20.25-.968l.492-.509H82.163l.558-.377a3.29,3.29,0,0,0,.935-1.1c.312-.624.361-.985.361-2.675,0-2.15-.148-2.675-.985-3.479l-.492-.476V-470.4l-1.871-3.758c-1.936-3.856-2.379-4.5-3.61-5.153-.64-.345-.87-.361-5.957-.41l-5.3-.049v-1.854l-4.217-4.25c-2.954-2.97-4.447-4.349-4.939-4.578l-.689-.312.033-4.71.049-4.71,1.329-.345,1.329-.361.082,2.166a9.175,9.175,0,0,0,.345,2.757c.607,1.444,1.789,2.412,2.642,2.2,1.231-.312,1.444-1.493.476-2.576l-.624-.689-.049-2.3-.066-2.281.574-.607a2.548,2.548,0,0,0,.591-3.233,2.774,2.774,0,0,0-.9-1.067c-.673-.41-19.068-5.4-19.839-5.382C41.664-511.884,37.25-510.752,32.13-509.373Zm18.789,2.658c4.939,1.313,8.976,2.445,8.976,2.494s-4.02,1.181-8.927,2.511l-8.943,2.4-8.943-2.412c-4.923-1.329-8.976-2.445-9.025-2.478-.033-.049,3.938-1.165,8.812-2.478,4.89-1.329,8.927-2.412,8.976-2.429S45.964-508.044,50.919-506.715Zm-12.406,9.354,3.5.919,3.807-1c2.1-.558,4.611-1.231,5.6-1.493l1.756-.476v8.5H30.85v-8.5l2.1.558C34.1-498.543,36.61-497.87,38.514-497.361Zm19.642,12.028,2.806,2.79H22.613l.722-.87c.394-.459,1.411-1.674,2.248-2.691a12.272,12.272,0,0,1,1.805-1.9c.148-.049,6.5-.082,14.112-.1l13.866-.016Zm4.857,6.974v1.395H21v-2.79H63.013Zm-44.8,1.723a3.245,3.245,0,0,0,1.149,1.969,2.893,2.893,0,0,0,1.067.443l.574.1v2.74H5.087L6.3-473.813c1.149-2.3,1.51-2.839,2.068-3.036.131-.049,2.412-.1,5.054-.1C18.133-476.964,18.215-476.964,18.215-476.636Zm57.926.082a17.548,17.548,0,0,1,1.575,2.74l1.214,2.429H63.013v-2.74l.574-.1a2.893,2.893,0,0,0,1.067-.443,3.29,3.29,0,0,0,1.149-1.969c0-.345.033-.345,4.989-.3C75.518-476.882,75.8-476.865,76.141-476.554Zm-15.917,3.774v1.395H23.794v-2.79h36.43Zm-36.43,19.692v15.343H4.267v-30.686H23.794Zm33.64,0v15.343H49.065V-446.2c0-9.189,0-9.157-.9-9.567-.3-.148-2.068-.2-6.17-.2-6.236,0-6.449.033-6.843.9-.148.312-.2,2.675-.2,8.861v8.451H26.584v-30.686h30.85Zm22.317,0v15.343H60.224v-30.686H79.751Zm-33.509,7.663.033,7.68H37.742v-7.6c0-4.184.049-7.663.115-7.729.066-.049,1.953-.082,4.217-.066l4.119.049ZM21-433.56v1.395H2.79v-2.79H21Zm39.219.738v2.133H23.794v-4.267h36.43Zm21-.738v1.395H63.013v-2.79H81.228Z" fill="#666"/>
    <path id="Path_3946" data-name="Path 3946" d="M51.622-221.526c-.443.377-.459.476-.509,2.068a14.141,14.141,0,0,0,.033,2.051,1.383,1.383,0,0,0,2.314.656c.394-.377.41-.492.41-2.33-.016-2.018-.082-2.281-.771-2.642A1.162,1.162,0,0,0,51.622-221.526Z" transform="translate(-42.711 -242.408)" fill="#666"/>
    <path id="Path_3947" data-name="Path 3947" d="M102.968-221.532c-.64.263-.886,1.165-.82,2.97.049,1.428.1,1.641.443,2.018a1.371,1.371,0,0,0,1.887.082c.427-.328.427-.361.427-2.363,0-1.674-.049-2.068-.279-2.363A1.557,1.557,0,0,0,102.968-221.532Z" transform="translate(-85.377 -242.632)" fill="#666"/>
    <path id="Path_3948" data-name="Path 3948" d="M51.82-170.385c-.64.328-.82.87-.82,2.626,0,2.232.279,2.74,1.559,2.74a1,1,0,0,0,.886-.427c.312-.394.345-.656.345-2.363,0-1.772-.033-1.936-.361-2.265A1.413,1.413,0,0,0,51.82-170.385Z" transform="translate(-42.631 -285.361)" fill="#666"/>
    <path id="Path_3949" data-name="Path 3949" d="M102.813-170.616c-.624.328-.837,1.182-.771,2.97.066,1.313.115,1.559.459,1.92a1.363,1.363,0,0,0,1.953.049c.328-.345.361-.558.361-2.314a9.383,9.383,0,0,0-.164-2.232,1.368,1.368,0,0,0-.673-.476C103.338-170.911,103.355-170.928,102.813-170.616Z" transform="translate(-85.288 -285.081)" fill="#666"/>
    <path id="Path_3950" data-name="Path 3950" d="M51.689-118.81c-.459.181-.689,1.017-.689,2.576,0,1.838.148,2.3.82,2.642a1.268,1.268,0,0,0,1.608-.3c.328-.312.361-.476.361-2.248,0-1.707-.033-1.969-.345-2.363a.954.954,0,0,0-.935-.41A2.972,2.972,0,0,0,51.689-118.81Z" transform="translate(-42.631 -328.501)" fill="#666"/>
    <path id="Path_3951" data-name="Path 3951" d="M102.5-118.578c-.345.361-.394.607-.459,1.92-.066,1.854.148,2.642.82,3a1.162,1.162,0,0,0,1.067.066,1.4,1.4,0,0,0,.722-.492,9.533,9.533,0,0,0,.164-2.265c0-1.821-.016-1.969-.377-2.3A1.388,1.388,0,0,0,102.5-118.578Z" transform="translate(-85.288 -328.422)" fill="#666"/>
    <path id="Path_3952" data-name="Path 3952" d="M222.41-229.577c-.394.377-.41.492-.41,2.281,0,1.739.033,1.92.394,2.33a1.3,1.3,0,0,0,2.018,0c.394-.459.394-.558.345-2.429-.049-1.838-.082-1.986-.443-2.281A1.449,1.449,0,0,0,222.41-229.577Z" transform="translate(-185.57 -235.653)" fill="#666"/>
    <path id="Path_3953" data-name="Path 3953" d="M273.529-229.676c-.361.3-.394.443-.443,2.281-.049,1.871-.049,1.969.345,2.429a1.3,1.3,0,0,0,2.018,0c.361-.41.394-.591.394-2.33,0-1.789-.016-1.9-.41-2.281A1.449,1.449,0,0,0,273.529-229.676Z" transform="translate(-228.255 -235.653)" fill="#666"/>
    <path id="Path_3954" data-name="Path 3954" d="M393.706-221.752c-.591.246-.706.706-.706,2.773,0,1.92.016,1.969.427,2.3a1.371,1.371,0,0,0,1.887-.082c.345-.377.394-.591.443-2.018.066-1.854-.18-2.708-.87-2.97A1.255,1.255,0,0,0,393.706-221.752Z" transform="translate(-328.51 -242.412)" fill="#666"/>
    <path id="Path_3955" data-name="Path 3955" d="M444.738-221.723c-.656.377-.722.656-.738,2.642,0,1.838.016,1.953.41,2.33a1.383,1.383,0,0,0,2.314-.656,14.153,14.153,0,0,0,.033-2.051c-.049-1.592-.066-1.69-.509-2.068A1.209,1.209,0,0,0,444.738-221.723Z" transform="translate(-371.141 -242.408)" fill="#666"/>
    <path id="Path_3956" data-name="Path 3956" d="M393.722-170.656a1.354,1.354,0,0,0-.624.509,16.165,16.165,0,0,0-.1,2.2c0,1.805.016,1.953.377,2.281a1.388,1.388,0,0,0,1.936-.066c.345-.361.394-.607.459-1.92.066-1.838-.148-2.642-.8-2.987C394.395-170.935,394.378-170.935,393.722-170.656Z" transform="translate(-328.51 -285.074)" fill="#666"/>
    <path id="Path_3957" data-name="Path 3957" d="M444.985-170.563a2.6,2.6,0,0,0-.607.427c-.345.312-.377.476-.377,2.248,0,1.707.033,1.969.345,2.363a1.4,1.4,0,0,0,2.379-.624,14.238,14.238,0,0,0,.033-2.051c-.033-1.378-.1-1.707-.377-1.969A1.505,1.505,0,0,0,444.985-170.563Z" transform="translate(-371.141 -285.281)" fill="#666"/>
    <path id="Path_3958" data-name="Path 3958" d="M393.361-118.623c-.328.345-.361.558-.361,2.314a9.383,9.383,0,0,0,.164,2.232,1.4,1.4,0,0,0,.722.492,1.33,1.33,0,0,0,1.723-.837,10.465,10.465,0,0,0,.033-3.643,1.283,1.283,0,0,0-1.313-.935A1.216,1.216,0,0,0,393.361-118.623Z" transform="translate(-328.51 -328.426)" fill="#666"/>
    <path id="Path_3959" data-name="Path 3959" d="M444.345-118.573c-.312.394-.345.656-.345,2.363,0,1.772.033,1.936.377,2.248a1.244,1.244,0,0,0,1.592.3c.673-.345.82-.8.82-2.642,0-2.182-.3-2.691-1.559-2.691A1,1,0,0,0,444.345-118.573Z" transform="translate(-371.141 -328.426)" fill="#666"/>
  </g>
</svg>
