<svg width="32" height="32" viewBox="0 0 32 32" fill="none" xmlns="http://www.w3.org/2000/svg">
<path d="M25.3333 6.66667V25.3333H6.66667V6.66667H25.3333ZM28 4H4V28H28V4Z" fill="#E0E0E0"/>
<path fill-rule="evenodd" clip-rule="evenodd" d="M14.1221 21.4376L13.4433 20.7588L12.7645 21.4376C13.1394 21.8125 13.7472 21.8125 14.1221 21.4376ZM13.4433 19.4011L9.0021 14.9599C8.6272 14.585 8.01936 14.585 7.64446 14.9599C7.26956 15.3348 7.26956 15.9427 7.64446 16.3176L12.7645 21.4376L13.4433 20.7588C14.1221 21.4376 14.122 21.4376 14.1221 21.4376L24.0005 11.5592C24.3754 11.1842 24.3754 10.5764 24.0005 10.2015C23.6256 9.8266 23.0178 9.8266 22.6429 10.2015L13.4433 19.4011Z" fill="#E0E0E0"/>
</svg>
