<svg xmlns="http://www.w3.org/2000/svg" width="40" height="40" viewBox="0 0 40 40">
  <g id="Group_17881" data-name="Group 17881" transform="translate(-1403 -216)">
    <rect id="Rectangle_5099" data-name="Rectangle 5099" width="40" height="40" transform="translate(1403 216)" fill="none"/>
    <g id="upload" transform="translate(1410 226)">
      <path id="Path_4312" data-name="Path 4312" d="M.829,14.062a.829.829,0,0,1,.829.829v5.8A1.658,1.658,0,0,0,3.315,22.35h19.89a1.658,1.658,0,0,0,1.658-1.658v-5.8a.829.829,0,1,1,1.658,0v5.8a3.315,3.315,0,0,1-3.315,3.315H3.315A3.315,3.315,0,0,1,0,20.692v-5.8a.829.829,0,0,1,.829-.829ZM8.288,8.847a.829.829,0,0,0,1.172,0l3.8-3.8,3.8,3.8a.829.829,0,1,0,1.172-1.171L13.847,3.288a.829.829,0,0,0-1.174,0L8.288,7.674a.829.829,0,0,0,0,1.174Z" transform="translate(0 -3.044)" fill="#666"/>
      <path id="Path_4313" data-name="Path 4313" d="M17.7,4.5a.829.829,0,0,1,.829.829v13.26a.829.829,0,0,1-1.658,0V5.329A.829.829,0,0,1,17.7,4.5Z" transform="translate(-4.443 -3.428)" fill="#666"/>
    </g>
  </g>
</svg>
