<svg width="85" height="85" viewBox="0 0 85 85" fill="none" xmlns="http://www.w3.org/2000/svg">
<path d="M71.2018 21.5896V76.9109C71.2018 77.7221 71.042 78.5253 70.7315 79.2747C70.421 80.0241 69.966 80.705 69.3923 81.2785C68.8187 81.852 68.1377 82.3068 67.3882 82.6171C66.6387 82.9274 65.8355 83.0869 65.0243 83.0867H19.9743C19.1632 83.0869 18.3599 82.9274 17.6104 82.6171C16.861 82.3068 16.18 81.852 15.6063 81.2785C15.0327 80.705 14.5776 80.0241 14.2671 79.2747C13.9567 78.5253 13.7969 77.7221 13.7969 76.9109V21.5896C13.7969 19.9512 14.4478 18.38 15.6063 17.2215C16.7647 16.063 18.336 15.4122 19.9743 15.4121H29.7825V22.1822H55.2161V15.4121H65.0243C66.6627 15.4122 68.2339 16.063 69.3924 17.2215C70.5509 18.38 71.2017 19.9512 71.2018 21.5896Z" fill="#1093FF"/>
<path d="M55.2168 15.4126V22.1827H29.7832V12.8045C29.7832 12.3131 29.8799 11.8265 30.068 11.3724C30.256 10.9184 30.5316 10.5059 30.8791 10.1584C31.2266 9.81092 31.6391 9.53529 32.0931 9.34725C32.5472 9.15922 33.0338 9.06246 33.5252 9.0625H51.4748C51.9662 9.06246 52.4528 9.15922 52.9069 9.34725C53.3609 9.53529 53.7734 9.81092 54.1209 10.1584C54.4684 10.5059 54.744 10.9184 54.932 11.3724C55.1201 11.8265 55.2168 12.3131 55.2168 12.8045V15.4126Z" fill="#004FE8"/>
<path d="M48.1635 8.91104V9.06211H36.8379V7.57295C36.8379 6.07108 37.4345 4.63073 38.4965 3.56875C39.5585 2.50677 40.9988 1.91016 42.5007 1.91016C44.0026 1.91016 45.4429 2.50677 46.5049 3.56875C47.5669 4.63073 48.1635 6.07108 48.1635 7.57295V8.91104Z" fill="#1093FF"/>
<path d="M63 64.1622L57.3888 70L54 66.4399L55.1225 65.2833L57.3943 67.6699L61.8829 63L63 64.1622Z" fill="#FEDB41"/>
<line x1="22" y1="63" x2="48" y2="63" stroke="#C7E6FF" stroke-width="2" stroke-linecap="round"/>
<line x1="22" y1="67" x2="41" y2="67" stroke="#C7E6FF" stroke-width="2" stroke-linecap="round"/>
<path d="M30.76 40.33C31.16 40.4833 31.4667 40.7033 31.68 40.99C31.8933 41.2767 32 41.62 32 42.02C32 42.44 31.8867 42.8067 31.66 43.12C31.4333 43.4267 31.11 43.6633 30.69 43.83C30.27 43.9967 29.7767 44.08 29.21 44.08C28.65 44.08 28.16 43.9967 27.74 43.83C27.3267 43.6633 27.0067 43.4267 26.78 43.12C26.5533 42.8067 26.44 42.44 26.44 42.02C26.44 41.62 26.5433 41.2767 26.75 40.99C26.9633 40.7033 27.27 40.4833 27.67 40.33C27.35 40.1767 27.1067 39.9733 26.94 39.72C26.7733 39.4667 26.69 39.1667 26.69 38.82C26.69 38.4333 26.7933 38.0967 27 37.81C27.2133 37.5233 27.51 37.3033 27.89 37.15C28.27 36.9967 28.71 36.92 29.21 36.92C29.7167 36.92 30.16 36.9967 30.54 37.15C30.9267 37.3033 31.2233 37.5233 31.43 37.81C31.6433 38.0967 31.75 38.4333 31.75 38.82C31.75 39.16 31.6633 39.46 31.49 39.72C31.3233 39.9733 31.08 40.1767 30.76 40.33ZM29.21 37.73C28.7367 37.73 28.3633 37.8333 28.09 38.04C27.8167 38.24 27.68 38.5133 27.68 38.86C27.68 39.2067 27.8133 39.48 28.08 39.68C28.3533 39.88 28.73 39.98 29.21 39.98C29.6967 39.98 30.0767 39.88 30.35 39.68C30.63 39.48 30.77 39.2067 30.77 38.86C30.77 38.5133 30.6267 38.24 30.34 38.04C30.06 37.8333 29.6833 37.73 29.21 37.73ZM29.21 43.27C29.7633 43.27 30.2 43.1567 30.52 42.93C30.84 42.6967 31 42.3833 31 41.99C31 41.6033 30.84 41.3 30.52 41.08C30.2 40.8533 29.7633 40.74 29.21 40.74C28.6567 40.74 28.2233 40.8533 27.91 41.08C27.5967 41.3 27.44 41.6033 27.44 41.99C27.44 42.3833 27.5967 42.6967 27.91 42.93C28.2233 43.1567 28.6567 43.27 29.21 43.27ZM35.7755 44.08C35.2222 44.08 34.7289 43.94 34.2955 43.66C33.8689 43.3733 33.5322 42.96 33.2855 42.42C33.0389 41.88 32.9155 41.24 32.9155 40.5C32.9155 39.76 33.0389 39.12 33.2855 38.58C33.5322 38.04 33.8689 37.63 34.2955 37.35C34.7289 37.0633 35.2222 36.92 35.7755 36.92C36.3222 36.92 36.8089 37.0633 37.2355 37.35C37.6689 37.63 38.0089 38.04 38.2555 38.58C38.5022 39.12 38.6255 39.76 38.6255 40.5C38.6255 41.24 38.5022 41.88 38.2555 42.42C38.0089 42.96 37.6689 43.3733 37.2355 43.66C36.8089 43.94 36.3222 44.08 35.7755 44.08ZM35.7755 43.19C36.3355 43.19 36.7822 42.96 37.1155 42.5C37.4555 42.04 37.6255 41.3733 37.6255 40.5C37.6255 39.6267 37.4555 38.96 37.1155 38.5C36.7822 38.04 36.3355 37.81 35.7755 37.81C35.2089 37.81 34.7555 38.04 34.4155 38.5C34.0822 38.96 33.9155 39.6267 33.9155 40.5C33.9155 41.3733 34.0822 42.04 34.4155 42.5C34.7555 42.96 35.2089 43.19 35.7755 43.19ZM41.9302 35.58H42.8002L39.5002 45H38.6302L41.9302 35.58ZM45.3785 37V44H44.3885V37.87H42.8085V37H45.3785ZM49.7697 44.08C49.2164 44.08 48.723 43.94 48.2897 43.66C47.863 43.3733 47.5264 42.96 47.2797 42.42C47.033 41.88 46.9097 41.24 46.9097 40.5C46.9097 39.76 47.033 39.12 47.2797 38.58C47.5264 38.04 47.863 37.63 48.2897 37.35C48.723 37.0633 49.2164 36.92 49.7697 36.92C50.3164 36.92 50.803 37.0633 51.2297 37.35C51.663 37.63 52.003 38.04 52.2497 38.58C52.4964 39.12 52.6197 39.76 52.6197 40.5C52.6197 41.24 52.4964 41.88 52.2497 42.42C52.003 42.96 51.663 43.3733 51.2297 43.66C50.803 43.94 50.3164 44.08 49.7697 44.08ZM49.7697 43.19C50.3297 43.19 50.7764 42.96 51.1097 42.5C51.4497 42.04 51.6197 41.3733 51.6197 40.5C51.6197 39.6267 51.4497 38.96 51.1097 38.5C50.7764 38.04 50.3297 37.81 49.7697 37.81C49.203 37.81 48.7497 38.04 48.4097 38.5C48.0764 38.96 47.9097 39.6267 47.9097 40.5C47.9097 41.3733 48.0764 42.04 48.4097 42.5C48.7497 42.96 49.203 43.19 49.7697 43.19ZM56.4396 44.08C55.8863 44.08 55.3929 43.94 54.9596 43.66C54.5329 43.3733 54.1963 42.96 53.9496 42.42C53.7029 41.88 53.5796 41.24 53.5796 40.5C53.5796 39.76 53.7029 39.12 53.9496 38.58C54.1963 38.04 54.5329 37.63 54.9596 37.35C55.3929 37.0633 55.8863 36.92 56.4396 36.92C56.9863 36.92 57.4729 37.0633 57.8996 37.35C58.3329 37.63 58.6729 38.04 58.9196 38.58C59.1663 39.12 59.2896 39.76 59.2896 40.5C59.2896 41.24 59.1663 41.88 58.9196 42.42C58.6729 42.96 58.3329 43.3733 57.8996 43.66C57.4729 43.94 56.9863 44.08 56.4396 44.08ZM56.4396 43.19C56.9996 43.19 57.4463 42.96 57.7796 42.5C58.1196 42.04 58.2896 41.3733 58.2896 40.5C58.2896 39.6267 58.1196 38.96 57.7796 38.5C57.4463 38.04 56.9996 37.81 56.4396 37.81C55.8729 37.81 55.4196 38.04 55.0796 38.5C54.7463 38.96 54.5796 39.6267 54.5796 40.5C54.5796 41.3733 54.7463 42.04 55.0796 42.5C55.4196 42.96 55.8729 43.19 56.4396 43.19Z" fill="#C7E6FF"/>
</svg>
