<svg width="85" height="85" viewBox="0 0 85 85" fill="none" xmlns="http://www.w3.org/2000/svg">
<path d="M74.3301 2.65625H21.2051C18.3872 2.65625 15.6846 3.77567 13.6921 5.76824C11.6995 7.76081 10.5801 10.4633 10.5801 13.2812V71.7188H66.3613V11.2891L74.3301 2.65625Z" fill="#0455BF" fill-opacity="0.1"/>
<path d="M79.6417 15.9371H66.3605V10.8703C66.3303 9.03084 66.9257 7.23562 68.0492 5.77872C69.1726 4.32182 70.7575 3.2896 72.5442 2.85112C73.7123 2.58548 74.9251 2.58609 76.0929 2.85293C77.2607 3.11976 78.3535 3.64597 79.2903 4.39255C80.227 5.13914 80.9838 6.08696 81.5044 7.16578C82.0251 8.2446 82.2963 9.42675 82.298 10.6246V13.2809C82.298 13.9854 82.0181 14.661 81.52 15.1591C81.0218 15.6573 80.3462 15.9371 79.6417 15.9371Z" fill="#0455BF"/>
<path d="M76.3757 2.9141C75.1775 2.59878 73.9222 2.56789 72.7099 2.82388C71.4976 3.07987 70.362 3.61566 69.3936 4.3885C68.4251 5.16134 67.6507 6.14983 67.1322 7.27509C66.6136 8.40036 66.3652 9.63126 66.4068 10.8696V15.9364H70.3912V10.8696C70.3653 9.06762 70.9391 7.30818 72.0225 5.86803C73.1058 4.42788 74.6372 3.38875 76.3757 2.9141Z" fill="#004787"/>
<path d="M58.3926 82.3438H13.2363C10.4184 82.3438 7.71589 81.2243 5.72332 79.2318C3.73074 77.2392 2.61133 74.5367 2.61133 71.7188C2.61133 71.0143 2.89118 70.3386 3.38933 69.8405C3.88747 69.3424 4.5631 69.0625 5.26758 69.0625H47.7676C48.4721 69.0625 49.1477 69.3424 49.6458 69.8405C50.144 70.3386 50.4238 71.0143 50.4238 71.7188V73.7109L58.3926 82.3438Z" fill="#0455BF"/>
<path d="M17.2656 78.3594C14.6791 78.3574 12.1822 77.4119 10.243 75.7004C8.30385 73.9888 7.05557 71.6287 6.73227 69.0625H5.3125C4.60802 69.0625 3.93239 69.3424 3.43425 69.8405C2.9361 70.3386 2.65625 71.0143 2.65625 71.7188C2.65625 74.5367 3.77567 77.2392 5.76824 79.2318C7.76081 81.2243 10.4633 82.3438 13.2812 82.3438H58.4375L54.7599 78.3594H17.2656Z" fill="#004787"/>
<path d="M66.3605 74.375C66.3588 75.5729 66.0876 76.755 65.5669 77.8339C65.0463 78.9127 64.2895 79.8605 63.3528 80.6071C62.416 81.3537 61.3232 81.8799 60.1554 82.1467C58.9876 82.4135 57.7748 82.4142 56.6067 82.1485C54.82 81.71 53.2351 80.6778 52.1117 79.2209C50.9882 77.764 50.3928 75.9688 50.423 74.1293V69.0625H66.3605V74.375Z" fill="#E6EEF9"/>
<path d="M14.6094 15.9378V26.5628C14.6094 26.915 14.7493 27.2528 14.9984 27.5019C15.2474 27.751 15.5853 27.8909 15.9375 27.8909H22.5781V25.2347H17.2656V22.5784H22.5781V19.9222H17.2656V17.2659H22.5781V14.6097H15.9375C15.5853 14.6097 15.2474 14.7496 14.9984 14.9987C14.7493 15.2477 14.6094 15.5856 14.6094 15.9378ZM30.5469 18.0442L29.2188 19.3723L27.8906 18.0442V14.6097H25.2344V18.594C25.2345 18.9463 25.3744 19.284 25.6235 19.533L27.3408 21.2503L25.6235 22.9676C25.3744 23.2166 25.2345 23.5543 25.2344 23.9065V27.8909H27.8906V24.4564L29.2188 23.1283L30.5469 24.4564V27.8909H33.2031V23.9065C33.2031 23.5543 33.0631 23.2166 32.814 22.9676L31.0967 21.2503L32.814 19.533C33.0631 19.284 33.2031 18.9463 33.2031 18.594V14.6097H30.5469V18.0442ZM39.8438 14.6097C38.787 14.6097 37.7736 15.0294 37.0264 15.7767C36.2792 16.5239 35.8594 17.5373 35.8594 18.594V27.8909H38.5156V23.9065H41.1719V27.8909H43.8281V18.594C43.8281 17.5373 43.4083 16.5239 42.6611 15.7767C41.9139 15.0294 40.9005 14.6097 39.8438 14.6097ZM38.5156 21.2503V18.594C38.5156 18.2418 38.6556 17.904 38.9046 17.6549C39.1537 17.4058 39.4915 17.2659 39.8438 17.2659C40.196 17.2659 40.5338 17.4058 40.7829 17.6549C41.0319 17.904 41.1719 18.2418 41.1719 18.594V21.2503H38.5156ZM55.7812 14.6097C54.7979 14.6131 53.851 14.9824 53.125 15.6456C52.5557 15.1263 51.8474 14.784 51.0867 14.6606C50.3261 14.5372 49.5459 14.638 48.8416 14.9507C48.1373 15.2634 47.5393 15.7745 47.1207 16.4215C46.7021 17.0685 46.481 17.8234 46.4844 18.594V27.8909H49.1406V18.594C49.1406 18.2418 49.2806 17.904 49.5296 17.6549C49.7787 17.4058 50.1165 17.2659 50.4688 17.2659C50.821 17.2659 51.1588 17.4058 51.4079 17.6549C51.6569 17.904 51.7969 18.2418 51.7969 18.594V23.9065H54.4531V18.594C54.4531 18.2418 54.5931 17.904 54.8421 17.6549C55.0912 17.4058 55.429 17.2659 55.7812 17.2659C56.1335 17.2659 56.4713 17.4058 56.7204 17.6549C56.9694 17.904 57.1094 18.2418 57.1094 18.594V27.8909H59.7656V18.594C59.7656 17.5373 59.3458 16.5239 58.5986 15.7767C57.8514 15.0294 56.838 14.6097 55.7812 14.6097Z" fill="#DFEAEF"/>
<path d="M15.9375 14.6097V25.2347C15.9375 25.5869 16.0774 25.9247 16.3265 26.1738C16.5756 26.4229 16.9134 26.5628 17.2656 26.5628H23.9062V23.9065H18.5938V21.2503H23.9062V18.594H18.5938V15.9378H23.9062V13.2815H17.2656C16.9134 13.2815 16.5756 13.4215 16.3265 13.6705C16.0774 13.9196 15.9375 14.2574 15.9375 14.6097ZM31.875 16.7161L30.5469 18.0442L29.2188 16.7161V13.2815H26.5625V17.2659C26.5626 17.6181 26.7026 17.9559 26.9516 18.2049L28.6689 19.9222L26.9516 21.6394C26.7026 21.8884 26.5626 22.2262 26.5625 22.5784V26.5628H29.2188V23.1283L30.5469 21.8001L31.875 23.1283V26.5628H34.5312V22.5784C34.5312 22.2262 34.3912 21.8884 34.1421 21.6394L32.4248 19.9222L34.1421 18.2049C34.3912 17.9559 34.5312 17.6181 34.5312 17.2659V13.2815H31.875V16.7161ZM41.1719 13.2815C40.1152 13.2815 39.1017 13.7013 38.3545 14.4485C37.6073 15.1958 37.1875 16.2092 37.1875 17.2659V26.5628H39.8438V22.5784H42.5V26.5628H45.1562V17.2659C45.1562 16.2092 44.7365 15.1958 43.9893 14.4485C43.242 13.7013 42.2286 13.2815 41.1719 13.2815ZM39.8438 19.9222V17.2659C39.8438 16.9137 39.9837 16.5759 40.2327 16.3268C40.4818 16.0777 40.8196 15.9378 41.1719 15.9378C41.5241 15.9378 41.8619 16.0777 42.111 16.3268C42.3601 16.5759 42.5 16.9137 42.5 17.2659V19.9222H39.8438ZM57.1094 13.2815C56.126 13.285 55.1792 13.6543 54.4531 14.3175C53.8838 13.7981 53.1755 13.4559 52.4149 13.3324C51.6542 13.209 50.874 13.3099 50.1697 13.6226C49.4654 13.9353 48.8674 14.4464 48.4488 15.0934C48.0302 15.7404 47.8091 16.4953 47.8125 17.2659V26.5628H50.4688V17.2659C50.4688 16.9137 50.6087 16.5759 50.8577 16.3268C51.1068 16.0777 51.4446 15.9378 51.7969 15.9378C52.1491 15.9378 52.4869 16.0777 52.736 16.3268C52.9851 16.5759 53.125 16.9137 53.125 17.2659V22.5784H55.7812V17.2659C55.7812 16.9137 55.9212 16.5759 56.1702 16.3268C56.4193 16.0777 56.7571 15.9378 57.1094 15.9378C57.4616 15.9378 57.7994 16.0777 58.0485 16.3268C58.2976 16.5759 58.4375 16.9137 58.4375 17.2659V26.5628H61.0938V17.2659C61.0938 16.2092 60.674 15.1958 59.9268 14.4485C59.1795 13.7013 58.1661 13.2815 57.1094 13.2815Z" fill="#0455BF"/>
<path d="M23.9062 41.1719H17.2656C16.9134 41.1719 16.5756 41.0319 16.3265 40.7829C16.0774 40.5338 15.9375 40.196 15.9375 39.8438V34.5312C15.9375 34.179 16.0774 33.8412 16.3265 33.5921C16.5756 33.3431 16.9134 33.2031 17.2656 33.2031H23.9062C24.2585 33.2031 24.5963 33.3431 24.8454 33.5921C25.0944 33.8412 25.2344 34.179 25.2344 34.5312V39.8438C25.2344 40.196 25.0944 40.5338 24.8454 40.7829C24.5963 41.0319 24.2585 41.1719 23.9062 41.1719ZM18.5938 38.5156H22.5781V35.8594H18.5938V38.5156ZM23.9062 53.125H17.2656C16.9134 53.125 16.5756 52.9851 16.3265 52.736C16.0774 52.4869 15.9375 52.1491 15.9375 51.7969V46.4844C15.9375 46.1321 16.0774 45.7943 16.3265 45.5452C16.5756 45.2962 16.9134 45.1562 17.2656 45.1562H23.9062C24.2585 45.1562 24.5963 45.2962 24.8454 45.5452C25.0944 45.7943 25.2344 46.1321 25.2344 46.4844V51.7969C25.2344 52.1491 25.0944 52.4869 24.8454 52.736C24.5963 52.9851 24.2585 53.125 23.9062 53.125ZM18.5938 50.4688H22.5781V47.8125H18.5938V50.4688ZM23.9062 65.0781H17.2656C16.9134 65.0781 16.5756 64.9382 16.3265 64.6891C16.0774 64.4401 15.9375 64.1022 15.9375 63.75V58.4375C15.9375 58.0853 16.0774 57.7474 16.3265 57.4984C16.5756 57.2493 16.9134 57.1094 17.2656 57.1094H23.9062C24.2585 57.1094 24.5963 57.2493 24.8454 57.4984C25.0944 57.7474 25.2344 58.0853 25.2344 58.4375V63.75C25.2344 64.1022 25.0944 64.4401 24.8454 64.6891C24.5963 64.9382 24.2585 65.0781 23.9062 65.0781ZM18.5938 62.4219H22.5781V59.7656H18.5938V62.4219Z" fill="#FEBC00"/>
<path d="M42.5 35.8594H27.8906V38.5156H42.5V35.8594Z" fill="#0455BF"/>
<path d="M43.8281 47.8125H27.8906V50.4688H43.8281V47.8125Z" fill="#0455BF"/>
<path d="M42.5 59.7656H27.8906V62.4219H42.5V59.7656Z" fill="#0455BF"/>
<path d="M53.125 35.8594H50.4688V38.5156H53.125V35.8594Z" fill="#0455BF"/>
<path d="M47.8125 35.8594H45.1562V38.5156H47.8125V35.8594Z" fill="#0455BF"/>
<path d="M64.0115 34.6114L48.3436 50.2793L47.3648 55.1748L46.7246 57.7739L49.3238 57.1338L54.2192 56.1536L66.4061 43.9667V32.2168L64.0115 34.6114Z" fill="#DFEAEF"/>
<path d="M71.7995 35.8717L65.9238 29.9961L67.8828 28.0384C68.1399 27.7811 68.4451 27.5769 68.7812 27.4376C69.1172 27.2983 69.4774 27.2266 69.8411 27.2266C70.2049 27.2266 70.5651 27.2983 70.9011 27.4376C71.2371 27.5769 71.5424 27.7811 71.7995 28.0384L73.7584 29.9961C74.2777 30.5158 74.5693 31.2204 74.5693 31.9551C74.5693 32.6897 74.2777 33.3943 73.7584 33.914L71.7995 35.8717Z" fill="#F74E0C"/>
<path d="M72.7822 29.0172L71.8034 28.0384C71.5463 27.7811 71.241 27.5769 70.905 27.4376C70.569 27.2983 70.2088 27.2266 69.845 27.2266C69.4813 27.2266 69.1211 27.2983 68.7851 27.4376C68.449 27.5769 68.1438 27.7811 67.8867 28.0384L65.9277 29.9961L66.9079 30.9762L68.8656 29.0172C69.3851 28.4981 70.0894 28.2065 70.8239 28.2065C71.5583 28.2065 72.2627 28.4981 72.7822 29.0172Z" fill="#CC2600"/>
<path d="M63.9663 31.9536L48.2988 47.6211L54.174 53.4963L69.8414 37.8288L63.9663 31.9536Z" fill="#F74E0C"/>
<path d="M65.9253 33.9126L50.2578 49.5801L52.2159 51.5382L67.8833 35.8707L65.9253 33.9126Z" fill="#FEBC00"/>
<path d="M63.9663 31.9537L48.2988 47.6211L50.2569 49.5792L65.9243 33.9117L63.9663 31.9537Z" fill="#F74E0C"/>
<path d="M66.9044 29.0155L63.9668 31.9531L69.842 37.8283L72.7796 34.8907L66.9044 29.0155Z" fill="#DFEAEF"/>
<path d="M67.8834 33.9124C67.626 33.6553 67.4218 33.3499 67.2825 33.0137C67.1432 32.6776 67.0715 32.3173 67.0715 31.9534C67.0715 31.5896 67.1432 31.2293 67.2825 30.8931C67.4218 30.557 67.626 30.2516 67.8834 29.9945L66.9046 29.0156L63.9668 31.9534L69.8411 37.8291L70.8213 36.8489L67.8834 33.9124Z" fill="#C3D6DD"/>
<path d="M49.278 54.4775L47.3203 52.5185L48.2991 47.623L54.1748 53.4973L49.278 54.4775Z" fill="#F7D694"/>
<path d="M47.3192 52.5176L46.6777 55.1167L49.2769 54.4766L47.3192 52.5176Z" fill="#F74E0C"/>
</svg>
