<svg xmlns="http://www.w3.org/2000/svg" width="146.468" height="109.136" viewBox="0 0 146.468 109.136"><defs><style>.a{fill:#ebebeb;}.b{fill:#f5f5f5;}.c{fill:#fafafa;}.d{fill:#f0f0f0;}.e,.k,.m{fill:#263238;}.f{fill:#ff8b7b;}.g{fill:#407bff;}.h{opacity:0.2;}.i{fill:#ff5652;}.j,.l,.n{fill:#fff;}.j{opacity:0.6;}.k{opacity:0.3;}.m{opacity:0.7;}.n{opacity:0.1;}</style></defs><g transform="translate(0 0)"><g transform="translate(0 0)"><rect class="a" width="146.468" height="0.073" transform="translate(0 95.907)"/><rect class="a" width="9.702" height="0.073" transform="translate(122.089 100.62)"/><rect class="a" width="2.546" height="0.073" transform="translate(94.48 101.417)"/><rect class="a" width="5.621" height="0.073" transform="translate(116.175 97.902)"/><rect class="a" width="12.652" height="0.073" transform="translate(15.367 98.394)"/><rect class="a" width="1.854" height="0.073" transform="translate(30.629 98.394)"/><rect class="a" width="27.442" height="0.073" transform="translate(38.512 99.63)"/><path class="a" d="M96.443,137.842H39.88a1.673,1.673,0,0,1-1.67-1.673V56.658A1.673,1.673,0,0,1,39.88,55H96.443a1.673,1.673,0,0,1,1.673,1.673v79.5A1.673,1.673,0,0,1,96.443,137.842ZM39.88,55.059a1.6,1.6,0,0,0-1.6,1.6v79.511a1.6,1.6,0,0,0,1.6,1.6H96.443a1.6,1.6,0,0,0,1.6-1.6V56.658a1.6,1.6,0,0,0-1.6-1.6Z" transform="translate(-27.017 -55)"/><path class="a" d="M312.738,137.842H256.173a1.676,1.676,0,0,1-1.673-1.673V56.658A1.676,1.676,0,0,1,256.173,55h56.566a1.673,1.673,0,0,1,1.667,1.658v79.511A1.673,1.673,0,0,1,312.738,137.842ZM256.173,55.059a1.6,1.6,0,0,0-1.6,1.6v79.511a1.6,1.6,0,0,0,1.6,1.6h56.566a1.6,1.6,0,0,0,1.6-1.6V56.658a1.6,1.6,0,0,0-1.6-1.6Z" transform="translate(-179.948 -55)"/><path class="b" d="M45.108,189.574c.747-.475,1.925-6.407,5.34-10.056,2.991-1.1,8.179-7.909,8.911-13.288,3.334-1.465,5.586-8.615,12.371-13.29l7.323,14.354,1.394,52.843H32.89S43.963,194.062,45.108,189.574Z" transform="translate(-23.255 -124.25)"/><path class="a" d="M120.884,185.319c1.957-7.464,8.343-15.608,8.343-15.608s.2-4.3-4.523-16.741c9.778,13.273,24.314,35.173,26.622,36.634,1.145,4.479,12.221,30.574,12.221,30.574H107.81s3.691-12.763,1.828-15.933S120.816,191.415,120.884,185.319Z" transform="translate(-76.229 -124.271)"/><path class="b" d="M137.088,220.326c.762-.4,2.15-5.387,5.695-8.457,3.032-.92,11.978-10.291,12.889-14.8.8-2.051,6.834-5.355,9.327-7.54l2.2,17.216,4.125,39.283H123.78S135.782,224.09,137.088,220.326Z" transform="translate(-87.521 -150.121)"/><path class="a" d="M202.786,209.161c0-2.6,4.3-4.731,4.3-4.731s-.164-.586-1.353-14.94c3.137,12.3,23.077,29.566,25.318,30.8.987,3.764,11.132,25.7,11.132,25.7H181.37s3.858-2.812,6.907-10.806C189.44,232.147,202.505,214.287,202.786,209.161Z" transform="translate(-128.24 -150.093)"/><path class="b" d="M208.7,263.148c.744-.293,1.922-3.963,5.337-6.219,2.991-.68,8.179-4.9,8.911-8.22,3.334-.905,7.848-6.445,12.371-8.22l2.929,12.669,5.785,28.9H196.48S207.553,265.92,208.7,263.148Z" transform="translate(-138.924 -186.153)"/><path class="a" d="M318.6,253.138c1.266,1.506,5.721,2.261,5.721,2.261s-1-4.374-2.795-14.94c3.659,9.049,24.314,21.753,26.622,22.659,1.145,2.771,12.221,18.912,12.221,18.912H322.759s-1.23-8.844-3.093-10.806S318.535,256.908,318.6,253.138Z" transform="translate(-225.133 -186.132)"/><path class="b" d="M286.926,76.642h.117a7.056,7.056,0,0,1,7.224-7.192,9.169,9.169,0,0,1,6.925,3.334,7.391,7.391,0,0,1,6.386,4.127,4.191,4.191,0,0,1,1.514-.272,5.173,5.173,0,0,1,5.012,4.5,4.468,4.468,0,0,1,0,.905H283.135a4.685,4.685,0,0,1-.193-.905,3.931,3.931,0,0,1,3.984-4.494Z" transform="translate(-200.03 -65.217)"/><path class="c" d="M164.947,77.035h.062a3.735,3.735,0,0,1,3.829-3.808,4.866,4.866,0,0,1,3.668,1.758,3.914,3.914,0,0,1,3.383,2.188,2.247,2.247,0,0,1,.8-.146,2.745,2.745,0,0,1,2.657,2.384,2.4,2.4,0,0,1,0,.48h-16.4a2.418,2.418,0,0,1-.1-.48,2.086,2.086,0,0,1,2.106-2.376Z" transform="translate(-115.125 -67.887)"/><ellipse class="d" cx="8.026" cy="8.026" rx="8.026" ry="8.026" transform="translate(114.171 26.235)"/><path class="c" d="M320.131,151.346h.111a6.675,6.675,0,0,1,6.825-6.8,8.671,8.671,0,0,1,6.544,3.152,6.984,6.984,0,0,1,6.034,3.9,4.012,4.012,0,0,1,1.432-.258,4.895,4.895,0,0,1,4.737,4.25,4.411,4.411,0,0,1,0,.855H316.522a4.2,4.2,0,0,1-.185-.855,3.72,3.72,0,0,1,3.793-4.25Z" transform="translate(-223.644 -118.318)"/><path class="b" d="M59.476,92.048h0a3.263,3.263,0,0,1,2.976-3.515,6.279,6.279,0,0,1,5.97-3.922,8.24,8.24,0,0,1,6.714,3.7h.313a6.152,6.152,0,0,1,5.273,3.222h.114a4.321,4.321,0,0,1,4.195,3.741,3.849,3.849,0,0,1,0,.756H58.158A4.131,4.131,0,0,1,58,95.27,3.307,3.307,0,0,1,59.476,92.048Z" transform="translate(-40.986 -75.936)"/></g><g transform="translate(16.437 102.504)"><ellipse class="b" cx="56.797" cy="3.316" rx="56.797" ry="3.316"/></g><g transform="translate(17.735 20.102)"><path class="e" d="M177,219.868a.492.492,0,0,1-.4-.2l-2.809-3.852-32.44-1.022-2.607,3.4a.486.486,0,0,1-.77-.586l2.757-3.6a.475.475,0,0,1,.4-.19l32.929,1.04a.492.492,0,0,1,.378.2l2.95,4.043a.489.489,0,0,1-.393.773Z" transform="translate(-115.242 -187.397)"/><path class="e" d="M180.992,219.537a.472.472,0,0,1-.108,0,.483.483,0,0,1-.366-.586l.75-3.342a.486.486,0,0,1,.949.211l-.75,3.345a.486.486,0,0,1-.475.372Z" transform="translate(-145.363 -188.401)"/><path class="e" d="M230.614,220.864a.486.486,0,0,1-.46-.393l-.753-3.354a.486.486,0,1,1,.949-.214l.753,3.354a.489.489,0,0,1-.369.586A.649.649,0,0,1,230.614,220.864Z" transform="translate(-179.928 -189.31)"/><path class="f" d="M374.619,214.664l.3-1.916-4.286-1.658-.3,1.916Z" transform="translate(-279.583 -185.468)"/><path class="g" d="M380.169,210.288l-1.239,1.8a.173.173,0,0,0,.015.211l1.2,1.295a.293.293,0,0,0,.445-.038c.422-.636.586-.964,1.137-1.758.337-.483,1.506-1.963,1.966-2.636s-.138-1.216-.39-.981a8.3,8.3,0,0,1-2.862,1.916A.457.457,0,0,0,380.169,210.288Z" transform="translate(-285.643 -183.368)"/><path class="h" d="M370.34,213.006l.3-1.916,2.373.917-.463,1.854Z" transform="translate(-279.59 -185.468)"/><path class="g" d="M289.53,200.6s9.14-1.119,15.039-1.312a12.183,12.183,0,0,1,3.747.469c4.74,1.359,6.755,3.114,6.755,3.114l-.677,2.9a45.449,45.449,0,0,0-7.892-1.9,12.3,12.3,0,0,0-2.32-.158c-5.66.152-8.22,2.2-8.22,2.2Z" transform="translate(-222.452 -177.117)"/><path class="h" d="M289.53,200.6s9.14-1.119,15.039-1.312a12.183,12.183,0,0,1,3.747.469c4.74,1.359,6.755,3.114,6.755,3.114l-.677,2.9a45.449,45.449,0,0,0-7.892-1.9,12.3,12.3,0,0,0-2.32-.158c-5.66.152-8.22,2.2-8.22,2.2Z" transform="translate(-222.452 -177.117)"/><path class="e" d="M372.167,208.269c0-.015,1.254.653,1.254.653l-.879,3.9-1.172-.334Z" transform="translate(-280.318 -183.473)"/><path class="e" d="M278.81,132.262c.1.123.243.173.322.108s.067-.214-.032-.337-.24-.17-.319-.108S278.722,132.142,278.81,132.262Z" transform="translate(-214.817 -129.474)"/><path class="i" d="M279.82,133.76a5.7,5.7,0,0,0,1.418.586.941.941,0,0,1-.5.586Z" transform="translate(-215.586 -130.79)"/><path class="e" d="M275.349,130.25a.091.091,0,0,0,.032-.047.729.729,0,0,1,.436-.5.094.094,0,0,0,.059-.117.091.091,0,0,0-.114-.059.908.908,0,0,0-.559.624.094.094,0,0,0,.064.114A.091.091,0,0,0,275.349,130.25Z" transform="translate(-212.319 -127.796)"/><path class="f" d="M267.9,143c.586,1.33,1.386,3.808.612,4.948,0,0,.68,1.327,3.26.776,2.836-.606,1.055-1.7,1.055-1.7-1.629-.038-1.834-1.2-1.8-2.343Z" transform="translate(-207.158 -137.324)"/><path class="g" d="M268.092,156.787c-.293-.4-.63-.864-.2-1.122a12.032,12.032,0,0,1,4.253-.937,1.013,1.013,0,0,1,.952,1.087Z" transform="translate(-207.008 -145.607)"/><path class="f" d="M341.065,210.436l1.471-.923-2.5-4.324-1.471.923Z" transform="translate(-257.119 -181.296)"/><path class="h" d="M340.031,205.2l1.409,2.431-1.471.92-1.409-2.428Z" transform="translate(-257.119 -181.303)"/><path class="g" d="M286.7,185.525s5.387-7.256,10.253-7.713c3.328-.313,7.156,9.28,7.156,9.28l-2.455,1.172a18.342,18.342,0,0,1-4.33-5.8c-.586,2.891-1.412,5.9-3.123,7.719-1.658,1.758-8.328.847-8.328.847Z" transform="translate(-219.864 -161.932)"/><path class="h" d="M325.686,191.656a4.079,4.079,0,0,0-.554-2.786,7.969,7.969,0,0,1-.2,1.432Q325.314,191.029,325.686,191.656Z" transform="translate(-247.482 -169.757)"/><path class="f" d="M254.516,167.64c-.642,1.093-1.3,2.238-1.913,3.369s-1.207,2.276-1.711,3.422l-.179.428c-.032.076-.056.138-.076.193l-.067.179-.123.413-.117.439c-.144.6-.275,1.236-.4,1.872l-.718,3.878-1.465-.067a35.473,35.473,0,0,1-.076-4.063c.029-.683.073-1.368.167-2.071l.076-.536c.035-.187.067-.369.111-.557l.079-.293c.026-.1.053-.2.082-.278l.167-.5A31.8,31.8,0,0,1,250,169.655c.615-1.224,1.268-2.39,2.007-3.565Z" transform="translate(-192.84 -153.65)"/><path class="g" d="M258.342,161.105c-1.605.557-3.1,4.608-3.1,4.608l4.183,1.26a8.2,8.2,0,0,0,1.728-3.331C261.5,161.7,260.085,160.5,258.342,161.105Z" transform="translate(-198.206 -150.013)"/><path class="j" d="M258.342,161.105c-1.605.557-3.1,4.608-3.1,4.608l4.183,1.26a8.2,8.2,0,0,0,1.728-3.331C261.5,161.7,260.085,160.5,258.342,161.105Z" transform="translate(-198.206 -150.013)"/><path class="f" d="M248.69,217.07l1.93.185-.067,1.611s-2.929.246-2.59-1.324Z" transform="translate(-193.042 -189.696)"/><path class="f" d="M258.446,218.538l.105.882-1.681-.108.067-1.611Z" transform="translate(-199.359 -190.141)"/><path class="g" d="M271.647,157.967c.785,1.781,2.343,7.139,3.079,15.171a1.658,1.658,0,0,1-1.3,1.758l-4.76,1.016a3.934,3.934,0,0,1-4.687-3.137,76.7,76.7,0,0,0-2.959-11.808,2.54,2.54,0,0,1,1.652-3.266c.243-.073.489-.144.732-.211a37.578,37.578,0,0,1,4.315-.92c.542-.067,1.078-.1,1.547-.111A2.537,2.537,0,0,1,271.647,157.967Z" transform="translate(-202.19 -146.839)"/><path class="j" d="M271.647,157.967c.785,1.781,2.343,7.139,3.079,15.171a1.658,1.658,0,0,1-1.3,1.758l-4.76,1.016a3.934,3.934,0,0,1-4.687-3.137,76.7,76.7,0,0,0-2.959-11.808,2.54,2.54,0,0,1,1.652-3.266c.243-.073.489-.144.732-.211a37.578,37.578,0,0,1,4.315-.92c.542-.067,1.078-.1,1.547-.111A2.537,2.537,0,0,1,271.647,157.967Z" transform="translate(-202.19 -146.839)"/><path class="f" d="M279.749,168.779c-.533,1.116-1.072,2.288-1.57,3.439a37.1,37.1,0,0,0-1.336,3.477l-.132.428c-.029.123-.064.226-.091.366-.053.27-.1.565-.141.879-.076.6-.135,1.236-.187,1.869L276,183.086l-1.465.088a34.4,34.4,0,0,1-.5-3.949c-.041-.668-.079-1.336-.062-2.03a10.537,10.537,0,0,1,.056-1.075c.018-.182.059-.4.088-.586l.114-.516c.155-.68.343-1.339.554-1.98s.439-1.28.68-1.9a37.215,37.215,0,0,1,1.655-3.665Z" transform="translate(-211.446 -154.625)"/><path class="g" d="M281.2,162.006c-1.538.562-2.6,4.631-2.6,4.631l4.3,1.263a7.31,7.31,0,0,0,1.365-3.345A2.279,2.279,0,0,0,281.2,162.006Z" transform="translate(-214.723 -150.65)"/><path class="j" d="M281.2,162.006c-1.538.562-2.6,4.631-2.6,4.631l4.3,1.263a7.31,7.31,0,0,0,1.365-3.345A2.279,2.279,0,0,0,281.2,162.006Z" transform="translate(-214.723 -150.65)"/><path class="f" d="M276.489,218.22l1.942.185.1,1.623s-2.877.246-2.718-1.333Z" transform="translate(-212.75 -190.509)"/><path class="f" d="M286.351,219.691l.2.888-1.684-.105-.105-1.623Z" transform="translate(-219.079 -190.954)"/><path class="f" d="M262.72,132.719c1.286,1.432,1.969,2.343,3.342,2.5a2.565,2.565,0,0,0,2.543-3.7c-.753-1.608-2.733-3.679-4.687-3.108a2.636,2.636,0,0,0-1.2,4.3Z" transform="translate(-203.009 -126.943)"/><path class="e" d="M262.215,127.922a.718.718,0,0,0,.053-1.248,3.809,3.809,0,0,0-1.207-.586,1.306,1.306,0,0,0,.724-1.532c-.228-1.172-1.96-1.1-2.519-.562-1.605-.536-3.448,1.617-3.032,2.472a.972.972,0,0,0,.19,1.623c-.829.905-.442,2.344,1.717,2.481.943.059,1.787,1.424,2.487.911S263.24,129.72,262.215,127.922Z" transform="translate(-198.661 -123.622)"/><path class="f" d="M272.877,136.819a2.173,2.173,0,0,0,1.26.6c.627.067.765-.442.442-.917-.293-.428-.958-.975-1.517-.826S272.469,136.412,272.877,136.819Z" transform="translate(-210.482 -132.13)"/><path class="e" d="M340.461,206.17l.442,1.148-3.131,1.731-.612-.908Z" transform="translate(-256.129 -181.989)"/><path class="g" d="M346.271,216.223l-1.728.773a.158.158,0,0,0-.088.17l.319,1.547a.252.252,0,0,0,.354.182c.618-.293,1.506-.732,2.288-1.084.917-.41,1.342-.539,2.417-1.022.65-.293.536-1.028.237-.967a8.142,8.142,0,0,1-3.36.352.832.832,0,0,0-.439.05Z" transform="translate(-261.285 -188.81)"/><path class="e" d="M316.3,219.868a.486.486,0,0,1-.393-.2l-2.809-3.852-32.451-1.022-2.607,3.4a.486.486,0,0,1-.773-.586l2.759-3.6a.475.475,0,0,1,.4-.19l32.929,1.04a.487.487,0,0,1,.393.185l2.95,4.043a.486.486,0,0,1-.105.68A.5.5,0,0,1,316.3,219.868Z" transform="translate(-213.726 -187.397)"/><path class="e" d="M320.346,219.537a.456.456,0,0,1-.108,0,.486.486,0,0,1-.369-.586l.753-3.342a.486.486,0,0,1,.949.211l-.753,3.345A.481.481,0,0,1,320.346,219.537Z" transform="translate(-243.894 -188.401)"/><path class="e" d="M369.928,220.892a.489.489,0,0,1-.475-.381l-.753-3.354a.486.486,0,1,1,.949-.214l.756,3.354a.492.492,0,0,1-.369.586A.686.686,0,0,1,369.928,220.892Z" transform="translate(-278.422 -189.338)"/><path d="M105.46,334.57h-7.03c-3.662,0-6.629,5.308-6.629,11.855s2.967,11.852,6.629,11.852h7.03c3.662,0,6.629-5.3,6.629-11.852S109.121,334.57,105.46,334.57Z" transform="translate(-82.644 -272.776)"/><path d="M213.65,334.57h-7.03c-3.662,0-6.629,5.308-6.629,11.855s2.967,11.852,6.629,11.852h7.03c3.662,0,6.629-5.3,6.629-11.852S217.311,334.57,213.65,334.57Z" transform="translate(-159.141 -272.776)"/><rect width="107.241" height="9.468" rx="4.734" transform="translate(2.196 66.879)"/><path class="e" d="M106.864,264.26h-3.008a1.063,1.063,0,0,1-1.075-1.224l.82-6.685a1.429,1.429,0,0,1,1.374-1.222h3.011a1.063,1.063,0,0,1,1.072,1.222l-.82,6.685A1.427,1.427,0,0,1,106.864,264.26Z" transform="translate(-90.399 -216.606)"/><path class="e" d="M106.286,263.9h-3.008a1.309,1.309,0,0,1-1.312-1.5l.82-6.685a1.673,1.673,0,0,1,1.614-1.435h3.011a1.321,1.321,0,0,1,1,.436,1.342,1.342,0,0,1,.316,1.06l-.82,6.682A1.676,1.676,0,0,1,106.286,263.9Zm-1.889-9.119a1.192,1.192,0,0,0-1.131,1.011l-.82,6.682a.846.846,0,0,0,.2.677.823.823,0,0,0,.636.275h3.008a1.192,1.192,0,0,0,1.134-1.011l.82-6.685a.85.85,0,0,0-.2-.677.841.841,0,0,0-.636-.272Z" transform="translate(-89.821 -216.005)"/><path class="g" d="M110.939,226.8l-4.819,15.78h47.833l7.294-19.2-7.294-.255H115.913A5.2,5.2,0,0,0,110.939,226.8Z" transform="translate(-92.769 -193.981)"/><path class="e" d="M355.533,316.664a1.834,1.834,0,0,0,1.781-2.153l-2.51-11.589a2.051,2.051,0,0,0-2.051-1.614H319.535a.712.712,0,0,0-.694.844c.53,2.385,2.238,10.291,2.888,13.32a1.509,1.509,0,0,0,1.506,1.192Z" transform="translate(-243.167 -249.258)"/><path class="g" d="M215.92,263.527h65.409l-3.372-34.891a4.218,4.218,0,0,0-4.06-3.808l-38.328-1.266a5.205,5.205,0,0,0-5.159,3.679l-4.778,15.646h-9.213Z" transform="translate(-170.405 -194.284)"/><path class="k" d="M215.92,263.527h65.409l-3.372-34.891a4.218,4.218,0,0,0-4.06-3.808l-38.328-1.266a5.205,5.205,0,0,0-5.159,3.679l-4.778,15.646h-9.213Z" transform="translate(-170.405 -194.284)"/><path class="e" d="M121.662,248.416a1.673,1.673,0,0,1-1.6-2.153l3.474-11.586a2.273,2.273,0,0,1,2.185-1.617h33.216a.653.653,0,0,1,.627.844c-.729,2.387-3.093,10.294-4,13.32a1.676,1.676,0,0,1-1.605,1.192Z" transform="translate(-102.575 -201.002)"/><path class="g" d="M107.547,306.832H63.2l-2.584-12.959a3.627,3.627,0,0,1,3.556-4.333h42.391a3.624,3.624,0,0,1,3.553,4.333Z" transform="translate(-60.543 -240.937)"/><ellipse class="e" cx="3.758" cy="3.758" rx="3.758" ry="3.758" transform="translate(3.447 52.051)"/><ellipse class="l" cx="2.519" cy="2.519" rx="2.519" ry="2.519" transform="translate(4.686 53.29)"/><path class="g" d="M78.776,310.433a2.636,2.636,0,1,1,2.636-2.636A2.636,2.636,0,0,1,78.776,310.433Zm0-5.041a2.392,2.392,0,1,1,0,.015Z" transform="translate(-71.571 -251.981)"/><path class="l" d="M119.282,298.581a1.828,1.828,0,1,1-.534-1.294A1.831,1.831,0,0,1,119.282,298.581Z" transform="translate(-99.486 -246.035)"/><path class="l" d="M161.282,298.581a1.828,1.828,0,1,1-.535-1.3A1.831,1.831,0,0,1,161.282,298.581Z" transform="translate(-129.183 -246.035)"/><ellipse class="e" cx="3.758" cy="3.758" rx="3.758" ry="3.758" transform="translate(38.678 52.051)"/><ellipse class="l" cx="2.519" cy="2.519" rx="2.519" ry="2.519" transform="translate(39.917 53.29)"/><path class="g" d="M199.046,310.433a2.636,2.636,0,1,1,2.636-2.636A2.636,2.636,0,0,1,199.046,310.433Zm0-5.041a2.392,2.392,0,1,1,0,.015Z" transform="translate(-156.61 -251.981)"/><path class="k" d="M126.648,329.786h-2.455l-2.4-4.587a3.515,3.515,0,0,0-3.117-1.837h-12.01a3.515,3.515,0,0,0-3.117,1.837l-2.4,4.587H98.69l3.12-5.955A3.515,3.515,0,0,1,104.932,322h15.479a3.515,3.515,0,0,1,3.117,1.837Z" transform="translate(-87.515 -263.888)"/><path class="l" d="M120.413,328.372H117.9l-2.464-4.93a3.568,3.568,0,0,0-3.19-1.977H99.957a3.568,3.568,0,0,0-3.19,1.971L94.3,328.366H91.79l3.2-6.4A3.565,3.565,0,0,1,98.176,320h15.851a3.565,3.565,0,0,1,3.19,1.974Z" transform="translate(-82.637 -262.474)"/><path class="k" d="M129.429,335.018a1.816,1.816,0,0,0-1.626-1.008h-8.079a1.816,1.816,0,0,0-1.626,1.008l-1.629,3.26h14.588Z" transform="translate(-100.087 -272.38)"/><path class="l" d="M111.173,350.411V354.5a1.84,1.84,0,0,1-1.834,1.834H93.351a1.283,1.283,0,0,1-1.148-.712h0a2.088,2.088,0,0,0-1.869-1.151H81.057a2.088,2.088,0,0,0-1.869,1.151h0a1.283,1.283,0,0,1-1.148.712H64.764A1.84,1.84,0,0,1,62.93,354.5v-4.086a1.837,1.837,0,0,1,1.834-1.831H109.34A1.837,1.837,0,0,1,111.173,350.411Z" transform="translate(-62.231 -282.682)"/><path class="e" d="M108.753,355.987H92.764a1.517,1.517,0,0,1-1.365-.844,1.851,1.851,0,0,0-1.652-1.019H80.47a1.846,1.846,0,0,0-1.649,1.017,1.523,1.523,0,0,1-1.368.846H64.177A2.08,2.08,0,0,1,62.1,353.91v-4.086a2.077,2.077,0,0,1,2.077-2.074h44.576a2.077,2.077,0,0,1,2.077,2.074v4.086A2.08,2.08,0,0,1,108.753,355.987ZM80.47,353.644h9.277a2.343,2.343,0,0,1,2.086,1.289,1.034,1.034,0,0,0,.932.586h15.988a1.594,1.594,0,0,0,1.591-1.591v-4.1a1.591,1.591,0,0,0-1.591-1.588H64.177a1.591,1.591,0,0,0-1.591,1.588v4.086a1.594,1.594,0,0,0,1.591,1.591H77.453a1.034,1.034,0,0,0,.932-.586,2.343,2.343,0,0,1,2.086-1.277Z" transform="translate(-61.644 -282.095)"/><path class="e" d="M111.173,353.764v1.969a1.837,1.837,0,0,1-1.834,1.831H93.351a1.28,1.28,0,0,1-1.148-.709h0a2.083,2.083,0,0,0-1.869-1.151H81.057a2.083,2.083,0,0,0-1.869,1.151h0a1.28,1.28,0,0,1-1.148.709H64.764a1.837,1.837,0,0,1-1.834-1.831v-1.969a1.84,1.84,0,0,1,1.834-1.834H109.34A1.84,1.84,0,0,1,111.173,353.764Z" transform="translate(-62.231 -285.051)"/><path class="g" d="M231.621,299.243h-6a.182.182,0,0,1-.185-.182.185.185,0,0,1,.185-.182h6a.182.182,0,1,1,0,.363Z" transform="translate(-177.136 -247.541)"/><path class="g" d="M316.211,265.675a.182.182,0,0,1-.182-.182l-.249-36.939a.188.188,0,0,1,.182-.185h0a.182.182,0,0,1,.182.182l.246,36.954a.185.185,0,0,1-.182.185Z" transform="translate(-241.012 -197.686)"/><path class="g" d="M380.907,265.638a.182.182,0,0,1-.179-.164L376.8,228.517a.179.179,0,0,1,.161-.2.182.182,0,0,1,.2.161l3.931,36.948a.182.182,0,0,1-.161.2Z" transform="translate(-284.154 -197.648)"/><path d="M265.17,331.512l-5.6-10.968a1.529,1.529,0,0,0-1.362-.835H246.1a1.523,1.523,0,0,0-1.359.835l-5.6,10.968Z" transform="translate(-186.823 -262.269)"/><path d="M300.765,326.68h4.687a.981.981,0,0,0,.879-1.429l-2.868-5.624a.987.987,0,0,0-.879-.536H297.9a.981.981,0,0,0-.879,1.43l2.868,5.624A.987.987,0,0,0,300.765,326.68Z" transform="translate(-227.67 -261.831)"/><path d="M256.25,346.385c0-6.547,2.967-11.855,6.629-11.855h-7.03c-3.662,0-6.629,5.308-6.629,11.855s2.967,11.852,6.629,11.852h7.03C259.218,358.249,256.25,352.944,256.25,346.385Z" transform="translate(-193.95 -272.748)"/><path class="m" d="M256.25,346.385c0-6.547,2.967-11.855,6.629-11.855h-7.03c-3.662,0-6.629,5.308-6.629,11.855s2.967,11.852,6.629,11.852h7.03C259.218,358.249,256.25,352.944,256.25,346.385Z" transform="translate(-193.95 -272.748)"/><ellipse class="e" cx="6.629" cy="11.855" rx="6.629" ry="11.855" transform="translate(62.301 61.794)"/><ellipse class="l" cx="4.702" cy="9.242" rx="4.702" ry="9.242" transform="translate(64.761 64.407)"/><ellipse class="e" cx="4.497" cy="8" rx="4.497" ry="8" transform="translate(64.536 65.649)"/><ellipse cx="3.284" cy="5.841" rx="3.284" ry="5.841" transform="translate(64.761 67.808)"/><path class="e" d="M244.281,326.68h-4.664a.981.981,0,0,1-.879-1.429l2.868-5.624a.984.984,0,0,1,.879-.536h4.687a.981.981,0,0,1,.879,1.43l-2.868,5.624A.984.984,0,0,1,244.281,326.68Z" transform="translate(-186.462 -261.831)"/><rect class="e" width="16.322" height="1.611" rx="0.806" transform="translate(58.873 57.248)"/><path d="M373.348,331.512l-5.6-10.968a1.529,1.529,0,0,0-1.362-.835h-12.1a1.523,1.523,0,0,0-1.359.835l-5.6,10.968Z" transform="translate(-263.32 -262.269)"/><path d="M408.955,326.68h4.687a.981.981,0,0,0,.879-1.429l-2.868-5.624a.987.987,0,0,0-.879-.536h-4.687a.981.981,0,0,0-.879,1.43l2.868,5.624A.987.987,0,0,0,408.955,326.68Z" transform="translate(-304.167 -261.831)"/><path d="M364.412,346.385c0-6.547,2.967-11.855,6.629-11.855H364c-3.662,0-6.629,5.308-6.629,11.855s2.976,11.864,6.629,11.864h7.031C367.38,358.249,364.412,352.944,364.412,346.385Z" transform="translate(-270.419 -272.748)"/><path class="m" d="M364.412,346.385c0-6.547,2.967-11.855,6.629-11.855H364c-3.662,0-6.629,5.308-6.629,11.855s2.976,11.864,6.629,11.864h7.031C367.38,358.249,364.412,352.944,364.412,346.385Z" transform="translate(-270.419 -272.748)"/><ellipse class="e" cx="6.629" cy="11.855" rx="6.629" ry="11.855" transform="translate(93.993 61.794)"/><ellipse class="l" cx="4.702" cy="9.242" rx="4.702" ry="9.242" transform="translate(96.454 64.407)"/><ellipse class="e" cx="4.497" cy="8" rx="4.497" ry="8" transform="translate(96.228 65.649)"/><ellipse cx="3.284" cy="5.841" rx="3.284" ry="5.841" transform="translate(96.454 67.808)"/><path class="e" d="M352.414,326.68h-4.687a.981.981,0,0,1-.879-1.429l2.868-5.624a.984.984,0,0,1,.879-.536h4.687a.981.981,0,0,1,.879,1.43l-2.868,5.624A.984.984,0,0,1,352.414,326.68Z" transform="translate(-262.903 -261.831)"/><rect class="e" width="16.322" height="1.611" rx="0.806" transform="translate(90.566 57.248)"/><path class="e" d="M277.229,234.451v12.42a1.368,1.368,0,0,1-1.365,1.368H264.378a1.368,1.368,0,0,1-1.318-1.734l3.542-12.7a1.362,1.362,0,0,1,1.365-1l7.944.275A1.368,1.368,0,0,1,277.229,234.451Z" transform="translate(-203.7 -200.823)"/><path class="e" d="M336.455,249.371H322.335A1.365,1.365,0,0,1,320.97,248v-12.23a1.365,1.365,0,0,1,1.412-1.365l12.833.366a1.365,1.365,0,0,1,1.309,1.219l1.289,11.864a1.368,1.368,0,0,1-1.359,1.514Z" transform="translate(-244.682 -201.954)"/><path class="e" d="M393.368,250.686H385.1a1.368,1.368,0,0,1-1.359-1.219l-1.263-11.685a1.365,1.365,0,0,1,1.406-1.514l8.293.293a1.368,1.368,0,0,1,1.312,1.219l1.236,11.392a1.371,1.371,0,0,1-1.359,1.514Z" transform="translate(-288.168 -203.269)"/><path class="e" d="M265.881,285.731h-1.394a.486.486,0,0,1,0-.973h1.394a2.121,2.121,0,0,0,1.74-.908l1.031-1.465a.487.487,0,1,1,.8.557l-1.034,1.465A3.094,3.094,0,0,1,265.881,285.731Z" transform="translate(-204.4 -235.731)"/><path d="M278.4,264.26h-3.02a1.063,1.063,0,0,1-1.072-1.224l.82-6.685a1.426,1.426,0,0,1,1.374-1.222h3.008a1.063,1.063,0,0,1,1.075,1.222l-.811,6.685A1.427,1.427,0,0,1,278.4,264.26Z" transform="translate(-211.682 -216.606)"/><path d="M277.816,263.916H274.8a1.312,1.312,0,0,1-1-.439,1.333,1.333,0,0,1-.316-1.057l.82-6.685a1.676,1.676,0,0,1,1.617-1.435h3.008a1.3,1.3,0,0,1,1.315,1.5l-.82,6.682A1.673,1.673,0,0,1,277.816,263.916Zm-1.889-9.119a1.192,1.192,0,0,0-1.134,1.011l-.82,6.682a.838.838,0,0,0,.2.677.823.823,0,0,0,.633.275h3.011a1.189,1.189,0,0,0,1.131-1.011l.829-6.7a.849.849,0,0,0-.2-.677.832.832,0,0,0-.636-.272Z" transform="translate(-211.095 -216.019)"/><path class="e" d="M276.484,264.26h-3.008a1.063,1.063,0,0,1-1.075-1.224l.82-6.685a1.427,1.427,0,0,1,1.374-1.222h3.011a1.063,1.063,0,0,1,1.072,1.222l-.82,6.685A1.427,1.427,0,0,1,276.484,264.26Z" transform="translate(-210.331 -216.606)"/><path class="e" d="M275.9,263.917H272.89a1.3,1.3,0,0,1-1.315-1.5l.82-6.685a1.673,1.673,0,0,1,1.614-1.435h3.011a1.321,1.321,0,0,1,1,.436,1.342,1.342,0,0,1,.316,1.06l-.82,6.682A1.679,1.679,0,0,1,275.9,263.917Zm-1.889-9.119a1.2,1.2,0,0,0-1.134,1.011l-.817,6.682a.846.846,0,0,0,.2.677.823.823,0,0,0,.636.275H275.9a1.192,1.192,0,0,0,1.134-1.011l.808-6.7a.841.841,0,0,0-.2-.677.829.829,0,0,0-.633-.272Z" transform="translate(-209.746 -216.02)"/><path class="e" d="M272.43,263.036l.82-6.685a1.427,1.427,0,0,1,1.374-1.222h2.434" transform="translate(-210.361 -216.607)"/><path class="l" d="M271.846,262.743h-.029a.246.246,0,0,1-.211-.272l.82-6.685a1.673,1.673,0,0,1,1.614-1.435h2.434a.243.243,0,1,1,0,.486H274.04a1.2,1.2,0,0,0-1.134,1.011l-.817,6.682A.246.246,0,0,1,271.846,262.743Z" transform="translate(-209.777 -216.055)"/><path class="n" d="M158.9,233.06h-6.345l-7.285,15.356h6.348Z" transform="translate(-120.451 -201.002)"/><path class="n" d="M183.764,233.06h-3.032l-7.282,15.356h3.029Z" transform="translate(-140.376 -201.002)"/><path class="n" d="M340.567,235.1l-3.278-.094-3.919,14.784h3.3Z" transform="translate(-253.449 -202.381)"/><path class="n" d="M353.482,235.467l-1.564-.047-3.887,14.664h1.576Z" transform="translate(-263.815 -202.67)"/><path class="g" d="M247.635,202.63c1.394,0,3.187,1.23,2.833,4.1a3.493,3.493,0,0,1-3.717,3.43" transform="translate(-192.203 -179.486)"/><ellipse class="e" cx="3.805" cy="2.49" rx="3.805" ry="2.49" transform="translate(51.772 30.119) rotate(-78.16)"/><ellipse class="l" cx="2.551" cy="1.67" rx="2.551" ry="1.67" transform="translate(52.832 29.06) rotate(-78.16)"/><path class="g" d="M243.587,211.761a1.268,1.268,0,0,1-.961-.457,2.82,2.82,0,0,1-.53-2.177c.167-1.438,1.1-2.607,2.086-2.607a1.265,1.265,0,0,1,.961.454,2.832,2.832,0,0,1,.53,2.176C245.5,210.589,244.568,211.761,243.587,211.761Zm.586-5.041c-.879,0-1.731,1.09-1.889,2.431a2.636,2.636,0,0,0,.483,2.021,1.072,1.072,0,0,0,.811.39c.879,0,1.731-1.093,1.889-2.434h0a2.638,2.638,0,0,0-.483-2.021,1.078,1.078,0,0,0-.8-.387Z" transform="translate(-188.894 -182.236)"/><path class="g" d="M214.285,202.63c1.391,0,3.187,1.23,2.833,4.1a3.494,3.494,0,0,1-3.717,3.43" transform="translate(-168.623 -179.486)"/><ellipse class="e" cx="3.805" cy="2.49" rx="3.805" ry="2.49" transform="translate(42.002 30.116) rotate(-78.16)"/><ellipse class="l" cx="2.551" cy="1.67" rx="2.551" ry="1.67" transform="translate(43.062 29.058) rotate(-78.16)"/><path class="g" d="M210.23,211.761a1.265,1.265,0,0,1-.961-.457,2.821,2.821,0,0,1-.533-2.177c.17-1.438,1.1-2.607,2.086-2.607a1.257,1.257,0,0,1,.961.454,2.821,2.821,0,0,1,.533,2.176C212.146,210.589,211.211,211.761,210.23,211.761Zm.586-5.041c-.879,0-1.728,1.09-1.886,2.431a2.636,2.636,0,0,0,.483,2.021,1.066,1.066,0,0,0,.811.39c.879,0,1.728-1.093,1.886-2.434h0a2.636,2.636,0,0,0-.483-2.021,1.075,1.075,0,0,0-.806-.387Z" transform="translate(-165.306 -182.236)"/><path class="g" d="M180.935,202.63c1.391,0,3.187,1.23,2.833,4.1a3.494,3.494,0,0,1-3.717,3.43" transform="translate(-145.042 -179.486)"/><ellipse class="e" cx="3.805" cy="2.49" rx="3.805" ry="2.49" transform="translate(32.232 30.116) rotate(-78.16)"/><ellipse class="l" cx="2.551" cy="1.67" rx="2.551" ry="1.67" transform="translate(33.292 29.058) rotate(-78.16)"/><path class="g" d="M176.877,211.761a1.268,1.268,0,0,1-.961-.457,2.832,2.832,0,0,1-.53-2.177c.17-1.438,1.1-2.607,2.086-2.607a1.263,1.263,0,0,1,.961.454,2.821,2.821,0,0,1,.53,2.176C178.8,210.589,177.858,211.761,176.877,211.761Zm.586-5.041c-.879,0-1.731,1.09-1.886,2.431a2.626,2.626,0,0,0,.48,2.021,1.072,1.072,0,0,0,.811.39c.879,0,1.731-1.093,1.889-2.434h0a2.637,2.637,0,0,0-.483-2.021,1.078,1.078,0,0,0-.8-.387Z" transform="translate(-141.726 -182.236)"/><path class="g" d="M147.575,202.63c1.394,0,3.187,1.23,2.833,4.1a3.493,3.493,0,0,1-3.717,3.43" transform="translate(-121.455 -179.486)"/><ellipse class="e" cx="3.805" cy="2.49" rx="3.805" ry="2.49" transform="translate(22.461 30.116) rotate(-78.16)"/><ellipse class="l" cx="2.551" cy="1.67" rx="2.551" ry="1.67" transform="translate(23.521 29.058) rotate(-78.16)"/><path class="g" d="M143.527,211.761a1.265,1.265,0,0,1-.961-.457,2.821,2.821,0,0,1-.53-2.177c.167-1.438,1.1-2.607,2.086-2.607a1.265,1.265,0,0,1,.961.454,2.832,2.832,0,0,1,.53,2.176C145.442,210.589,144.508,211.761,143.527,211.761Zm.586-5.041c-.879,0-1.731,1.09-1.889,2.431a2.636,2.636,0,0,0,.483,2.021,1.072,1.072,0,0,0,.811.39c.879,0,1.731-1.093,1.887-2.434h0a2.626,2.626,0,0,0-.48-2.021,1.078,1.078,0,0,0-.8-.387Z" transform="translate(-118.145 -182.236)"/></g></g></svg>
