<svg xmlns="http://www.w3.org/2000/svg" xmlns:xlink="http://www.w3.org/1999/xlink" width="148.468" height="110.626" viewBox="0 0 148.468 110.626"><defs><style>.a{fill:none;}.b{fill:#ebebeb;}.c,.n{fill:#fafafa;}.d{fill:#f5f5f5;}.e{fill:#f0f0f0;}.f{fill:#e6e6e6;}.g{fill:#ffb573;}.h{fill:#407bff;}.i,.k,.n{opacity:0.2;}.j{fill:#263238;}.l{fill:#fff;}.m{fill:#ed893e;}.o{opacity:0.4;}.p{clip-path:url(#a);}</style><clipPath id="a"><ellipse class="a" cx="28.339" cy="28.339" rx="28.339" ry="28.339"/></clipPath></defs><g transform="translate(0 0)"><g transform="translate(0 0)"><rect class="b" width="148.468" height="0.074" transform="translate(0 97.217)"/><rect class="b" width="9.834" height="0.074" transform="translate(97.656 99.574)"/><rect class="b" width="12.216" height="0.074" transform="translate(118.709 99.613)"/><rect class="b" width="5.698" height="0.074" transform="translate(105.935 101.552)"/><rect class="b" width="15.343" height="0.074" transform="translate(51.667 100.991)"/><rect class="b" width="10.212" height="0.074" transform="translate(38.812 100.991)"/><rect class="b" width="13.908" height="0.074" transform="translate(18.793 99.738)"/><path class="b" d="M97.238,138.973H39.9a1.7,1.7,0,0,1-1.693-1.7v-80.6A1.7,1.7,0,0,1,39.9,55H97.238a1.7,1.7,0,0,1,1.7,1.7v80.582A1.7,1.7,0,0,1,97.238,138.973ZM39.9,55.059a1.621,1.621,0,0,0-1.618,1.621v80.6A1.621,1.621,0,0,0,39.9,138.9H97.238a1.624,1.624,0,0,0,1.621-1.621v-80.6a1.624,1.624,0,0,0-1.621-1.621Z" transform="translate(-26.864 -55)"/><path class="b" d="M313.534,138.973H256.2a1.7,1.7,0,0,1-1.7-1.7v-80.6A1.7,1.7,0,0,1,256.2,55h57.338a1.7,1.7,0,0,1,1.69,1.681v80.6A1.7,1.7,0,0,1,313.534,138.973ZM256.2,55.059a1.624,1.624,0,0,0-1.621,1.621v80.6A1.624,1.624,0,0,0,256.2,138.9h57.338a1.624,1.624,0,0,0,1.621-1.621v-80.6a1.624,1.624,0,0,0-1.621-1.621Z" transform="translate(-178.93 -55)"/><path class="c" d="M278.405,125.815a2.375,2.375,0,0,1,1.93-1.075.843.843,0,0,1,.594.223,6.389,6.389,0,0,1,3.721-1.188,2.654,2.654,0,0,1,1.461.448,6.452,6.452,0,0,1,4.035-2,1.414,1.414,0,0,1,1.4.716,7.618,7.618,0,0,1,3.768-1.268c1.823,0,2.577,1.226,2.058,2.949.341.324,1.838.778,1.853,1.321H278.34Z" transform="translate(-195.691 -101.873)"/><path class="c" d="M63.086,101.305a3.379,3.379,0,0,1,2.735-1.523,1.188,1.188,0,0,1,.823.318,9.172,9.172,0,0,1,5.277-1.7A3.78,3.78,0,0,1,74,99.031a9.13,9.13,0,0,1,5.7-2.845A2.013,2.013,0,0,1,81.68,97.2a10.737,10.737,0,0,1,5.345-1.782c2.58,0,3.646,1.737,2.916,4.178.484.457,2.6,1.1,2.622,1.871H63A.958.958,0,0,1,63.086,101.305Z" transform="translate(-44.293 -83.418)"/><path class="c" d="M170.98,82.451a1.856,1.856,0,0,1,1.5-.834.65.65,0,0,1,.451.172,5.048,5.048,0,0,1,2.892-.932,2.079,2.079,0,0,1,1.134.347,5.022,5.022,0,0,1,3.136-1.553,1.107,1.107,0,0,1,1.084.555,5.915,5.915,0,0,1,2.928-.986c1.416,0,2,.953,1.6,2.292.264.252,1.428.594,1.437,1.027H170.93C170.951,82.51,170.951,82.48,170.98,82.451Z" transform="translate(-120.175 -72.028)"/><path class="c" d="M370.919,112.09a.594.594,0,0,1,.472.229,4.744,4.744,0,0,1,3.088-1.226,1.817,1.817,0,0,1,1.188.457h0a5.178,5.178,0,0,1,3.364-2.043,1.1,1.1,0,0,1,1.128.73,5.593,5.593,0,0,1,3.13-1.3,1.7,1.7,0,0,1,1.782,1.924,2.862,2.862,0,0,1,1.485-.537.929.929,0,0,1,.995.983h.163a1.238,1.238,0,0,1,1.087,1.782H369.36A1.937,1.937,0,0,1,370.919,112.09Z" transform="translate(-259.684 -92.923)"/><path class="b" d="M185.647,153.01a3.8,3.8,0,0,1,.665.223,3.564,3.564,0,0,1,.632.362,2.741,2.741,0,0,1,.442.4,6.941,6.941,0,0,1,.864-1.013,5.517,5.517,0,0,1,.549-.466,3.2,3.2,0,0,1,.561-.347l-.5.627c-.163.211-.327.416-.487.627s-.3.425-.463.638a6.754,6.754,0,0,0-.434.668l-.166.27-.145-.178a3.563,3.563,0,0,0-.514-.5c-.184-.154-.374-.3-.564-.445a13.809,13.809,0,0,1-1.149-.95A2.647,2.647,0,0,1,185.647,153.01Z" transform="translate(-130.025 -123.317)"/><path class="b" d="M302.6,86.47a3.918,3.918,0,0,1,.668.223,3.449,3.449,0,0,1,.63.362,2.777,2.777,0,0,1,.442.4,6.945,6.945,0,0,1,.867-1.013,5.949,5.949,0,0,1,.549-.466,3.346,3.346,0,0,1,.561-.347l-.5.627c-.163.211-.327.416-.484.627s-.315.425-.466.638-.3.442-.434.668l-.163.27-.145-.178a3.877,3.877,0,0,0-.514-.5c-.184-.154-.374-.3-.567-.445-.38-.3-.772-.594-1.146-.947A2.525,2.525,0,0,1,302.6,86.47Z" transform="translate(-212.255 -76.535)"/><path class="b" d="M132.658,141.557a5.957,5.957,0,0,1,.989.333,5.23,5.23,0,0,1,.938.537,4.182,4.182,0,0,1,.656.594,10.443,10.443,0,0,1,1.286-1.5,8.636,8.636,0,0,1,.82-.695,5.006,5.006,0,0,1,.831-.514l-.742.932c-.243.3-.487.615-.722.929s-.466.633-.692.95-.436.659-.644.992l-.243.4-.214-.264a5.838,5.838,0,0,0-.766-.742c-.273-.229-.555-.445-.84-.662a21.383,21.383,0,0,1-1.7-1.407A3.861,3.861,0,0,1,132.658,141.557Z" transform="translate(-92.53 -114.978)"/><path class="b" d="M200.034,119.928a4.483,4.483,0,0,1,.745.249,4.09,4.09,0,0,1,.7.4,3.01,3.01,0,0,1,.5.448,7.751,7.751,0,0,1,.965-1.131,6.414,6.414,0,0,1,.615-.52,3.672,3.672,0,0,1,.626-.389l-.555.7c-.184.235-.365.463-.543.7s-.35.478-.52.716-.33.493-.484.745l-.184.3-.16-.2a4.266,4.266,0,0,0-.576-.558c-.2-.172-.416-.336-.632-.5a15.21,15.21,0,0,1-1.28-1.06A3,3,0,0,1,200.034,119.928Z" transform="translate(-140.086 -99.989)"/><path class="b" d="M375.8,94.7a4.484,4.484,0,0,1,.745.249,4.2,4.2,0,0,1,.7.4,2.992,2.992,0,0,1,.493.448,7.61,7.61,0,0,1,.968-1.131,6.107,6.107,0,0,1,.615-.523,3.718,3.718,0,0,1,.627-.386l-.558.7c-.184.235-.365.463-.543.7s-.35.475-.52.716-.33.493-.484.745l-.184.3-.16-.2a4.438,4.438,0,0,0-.576-.555c-.2-.172-.419-.336-.633-.5A15.8,15.8,0,0,1,375,94.606a3.006,3.006,0,0,1,.8.092Z" transform="translate(-263.649 -82.251)"/><path class="d" d="M319.749,363.13a3.041,3.041,0,0,0-3.044-2.022,2.376,2.376,0,0,0-1.3.419,9.594,9.594,0,0,0-6.488-2.26,7.212,7.212,0,0,0-3.2.843,8.406,8.406,0,0,0-6.533-3.768,4.216,4.216,0,0,0-3.266,1.348,11.054,11.054,0,0,0-6.533-2.39,5.772,5.772,0,0,0-6.15,5.556c-.906.612-4.178,1.467-4.588,2.491H319.8C319.781,363.276,319.77,363.2,319.749,363.13Z" transform="translate(-195.909 -266.13)"/><path class="c" d="M134.643,363.36a1.654,1.654,0,0,0-1.021.4,6.235,6.235,0,0,0-4.882-2.162,4.923,4.923,0,0,0-2.491.808h0c-1.06-2.108-2.969-3.6-4.852-3.6a3.124,3.124,0,0,0-2.563,1.292,7.179,7.179,0,0,0-4.911-2.286,4.793,4.793,0,0,0-4.546,3.391,3.831,3.831,0,0,0-2.375-.95,2.655,2.655,0,0,0-2.485,1.734,2.758,2.758,0,0,0-.3.018,3.284,3.284,0,0,0-3.18,3.109h35.819a2.263,2.263,0,0,0-2.215-1.752Z" transform="translate(-71.036 -267.895)"/><path class="e" d="M358.153,304.952l-.1-4.306-2.209-5.805h2.07l-.157-6.512h6.432l.63,11.747,1.556.261-.8,6.227-.4.024.517,9.674h-7.251l-.113-4.626-.9-6.761Z" transform="translate(-250.179 -219.046)"/><path class="f" d="M342.5,221.264c1-2.3.362-3.943-1.485-4.683-.719-2.836-5.68-6-12.174-7.527-7.376-1.74-12.534-.119-14.894,2.272a7.376,7.376,0,0,0-4.614.817c-2.554,1.324-4.133,3.525-4.142,5.464-1.823.775-2.411,2.456-1.345,4.787a7.126,7.126,0,0,0,3.216,3.21,4.9,4.9,0,0,0,.523,2.358,5.956,5.956,0,0,0,.84,1.318c-.834.909-.944,2.269-.16,3.979a7.85,7.85,0,0,0,5.1,3.967c1.016,1.918,4.5,3.335,8.635,3.335,4.338,0,7.955-1.556,8.766-3.614.526.047,1.063.074,1.615.074,4.935,0,7.9-2.224,8.935-4.493a4.019,4.019,0,0,0,.33-3.21,7.023,7.023,0,0,0,2.9-3.035C345.715,223.669,344.848,221.887,342.5,221.264Z" transform="translate(-213.25 -162.797)"/><path class="e" d="M132.437,273.386h-4.252l-1.66,4.306h-1.369l-.113,3.836-1.1,2.848-.469-.053-.739,2.672-.466-2.6,1.232-6.957H121.02l-1.4-7.809H111.91l2.114,14.084-1.8.312,2.479,7.465.493.027,1.74,11.6h8.694l-.995-5.547-.309-4.374,3.807-7.741.276-.015,2.218-4.115-.959-.172Z" transform="translate(-78.68 -205.899)"/><path class="d" d="M71.729,189.279c-1.188-2.753-.434-4.727,1.782-5.615.864-3.4,6.809-7.186,14.6-9.024,8.846-2.079,15.025-.14,17.858,2.726a8.828,8.828,0,0,1,5.547.968c3.061,1.589,4.956,4.225,4.965,6.55,2.188.929,2.9,2.943,1.612,5.74a8.5,8.5,0,0,1-3.86,3.845,5.912,5.912,0,0,1-.638,2.827,7.2,7.2,0,0,1-1.007,1.58c1,1.09,1.128,2.717.19,4.769a9.416,9.416,0,0,1-6.111,4.751c-1.217,2.3-5.389,4-10.351,4-5.2,0-9.535-1.865-10.509-4.332-.627.056-1.274.089-1.933.089-5.918,0-9.469-2.672-10.713-5.383a4.889,4.889,0,0,1-.395-3.86,8.377,8.377,0,0,1-3.474-3.623C67.869,192.165,68.909,190.018,71.729,189.279Z" transform="translate(-48.272 -138.503)"/></g><g transform="translate(16.661 103.904)"><ellipse class="d" cx="57.573" cy="3.361" rx="57.573" ry="3.361"/></g><g transform="translate(83.84 20.138)"><path class="g" d="M304.81,183.757c-.048.823-.143,1.577-.249,2.375s-.255,1.544-.425,2.31-.353,1.535-.594,2.292a21.306,21.306,0,0,1-.823,2.248l-.249.555a3.27,3.27,0,0,1-.157.3c-.053.092-.116.2-.175.3a8.617,8.617,0,0,1-.772,1.03,17.568,17.568,0,0,1-1.693,1.7,31.6,31.6,0,0,1-3.709,2.809l-.754-.974c.531-.514,1.072-1.045,1.594-1.574s1.039-1.069,1.529-1.615a21.148,21.148,0,0,0,1.369-1.663,7.584,7.584,0,0,0,.529-.834c.03-.065.068-.134.1-.2a2.139,2.139,0,0,0,.086-.2l.19-.5a27.96,27.96,0,0,0,1.122-4.184c.143-.716.247-1.443.353-2.168s.187-1.485.252-2.162Z" transform="translate(-291.391 -165.552)"/><path class="h" d="M317.811,173.763c-1,.252-1.7,4.377-1.7,4.377l2.762,1.877s2.646-4.157,1.877-5.259C319.937,173.609,319.275,173.389,317.811,173.763Z" transform="translate(-306.085 -158.519)"/><path class="i" d="M320.329,177.26l-.769,4.154,1.55,1.054Z" transform="translate(-308.511 -161.095)"/><path class="g" d="M290.226,233.26l-2.756.2,1.645,1.844s1.523-.347,1.782-1.321Z" transform="translate(-285.95 -200.466)"/><path class="g" d="M282.35,234.907l1.128,1.737,2.037-.87-1.645-1.844Z" transform="translate(-282.35 -200.938)"/><path class="g" d="M333.962,394.55H331.53l-.16-5.63H333.8Z" transform="translate(-316.814 -309.906)"/><path class="g" d="M384.641,372.107l-2.251.917-2.851-4.914,2.251-.92Z" transform="translate(-350.681 -294.628)"/><path class="j" d="M381.455,382.338l2.349-1.4a.193.193,0,0,1,.252.045l1.372,1.7a.392.392,0,0,1-.116.57c-.825.472-1.25.659-2.283,1.271-.635.377-2.129,1.672-3.005,2.194s-1.44-.321-1.119-.615a8.336,8.336,0,0,0,2.278-3.433.638.638,0,0,1,.273-.336Z" transform="translate(-350.17 -304.277)"/><path class="j" d="M322.235,406.93h2.732a.187.187,0,0,1,.193.166l.3,2.162a.389.389,0,0,1-.389.43c-.953-.015-1.41-.071-2.613-.071-.739,0-2.266.077-3.287.077s-1.075-1.01-.65-1.1a6.567,6.567,0,0,0,3.3-1.514A.647.647,0,0,1,322.235,406.93Z" transform="translate(-307.602 -322.567)"/><g class="k" transform="translate(14.556 72.562)"><path d="M331.37,388.92l.083,2.9h2.432l-.083-2.9Z" transform="translate(-331.37 -382.468)"/><path d="M381.791,367.19l-2.251.92,1.47,2.533,2.251-.918Z" transform="translate(-365.237 -367.19)"/></g><path class="h" d="M321.156,172.494s-1.158.407,1.164,14.672h9.87c-.166-4.018-.172-6.5,1.749-14.743a28.868,28.868,0,0,0-4.193-.552,31.347,31.347,0,0,0-4.484,0C323.342,172.045,321.156,172.494,321.156,172.494Z" transform="translate(-309.43 -157.249)"/><path class="l" d="M336.048,171.87a31.348,31.348,0,0,0-4.484,0c-.537.047-1.1.119-1.621.193h0a4.867,4.867,0,0,0,.7,3.664h0a1.188,1.188,0,0,0,1.485.52h0c.719-.3,4.356-1.826,5.526-3.721l.3-.49C337.363,171.965,336.707,171.9,336.048,171.87Z" transform="translate(-315.729 -157.249)"/><path class="j" d="M335.315,130.685c0,3.563-2.934,5.915-6.043,7.4-3.216,1.538-6.452-2.889-6.452-6.452a6.452,6.452,0,0,1,6.452-6.455C332.836,125.18,335.315,127.122,335.315,130.685Z" transform="translate(-310.803 -124.479)"/><path class="j" d="M356.439,124.907c0,1.351-.938,2.806-2.292,2.806a2.447,2.447,0,0,1,0-4.893A2.035,2.035,0,0,1,356.439,124.907Z" transform="translate(-331.108 -122.82)"/><path class="g" d="M338.772,155.06c-.3,1.44-.567,4.086.442,5.048,0,0-.395,1.464-3.073,1.464-2.949,0-1.41-1.464-1.41-1.464,1.609-.386,1.568-1.58,1.289-2.7Z" transform="translate(-318.895 -145.487)"/><path class="g" d="M338.828,171.87a31.348,31.348,0,0,0-4.484,0l-.3.03a2.625,2.625,0,0,0-.131,1.989,1.188,1.188,0,0,0,1.66.76c1.241-.594,3.165-1.654,3.836-2.741C339.223,171.894,339.024,171.879,338.828,171.87Z" transform="translate(-318.509 -157.249)"/><path class="i" d="M341.636,158.29l-1.636,1.4a4.71,4.71,0,0,1,.14.8,1.983,1.983,0,0,0,1.523-1.407A2.2,2.2,0,0,0,341.636,158.29Z" transform="translate(-322.882 -147.758)"/><path class="g" d="M334.477,136.022c.448,2.375.689,3.364-.187,4.861a3.083,3.083,0,0,1-5.475.092c-1.033-1.969-1.592-5.517.46-7.023a3.29,3.29,0,0,1,5.2,2.07Z" transform="translate(-314.366 -130.191)"/><path class="j" d="M321.575,223.556s-1.918,18.728-1.758,26.13c.163,7.72,2.99,25.3,2.99,25.3H326.1s-.52-17.136-.229-24.708c.315-8.258,2.94-26.724,2.94-26.724Z" transform="translate(-308.685 -193.64)"/><path class="h" d="M332.139,393.931h-3.857L328,392.7l4.318-.151Z" transform="translate(-314.445 -312.458)"/><path class="i" d="M337.313,236.52c-2.426,4.879-.487,13.778.371,17.089.44-4.971,1.188-11.052,1.758-15.515C339.065,235.569,338.432,234.272,337.313,236.52Z" transform="translate(-320.165 -201.945)"/><path class="j" d="M334.54,223.57s2.236,19.47,3.925,25.721c2,7.423,10.152,20.082,10.152,20.082l3.067-1.253s-5.259-14.416-6.794-18.327c-3.266-8.344-.469-20.785-3.085-26.222Z" transform="translate(-319.043 -193.654)"/><path class="h" d="M382.56,370.085l-3.807,1.556-.894-1.033,4.4-2.028Z" transform="translate(-349.5 -295.605)"/><path class="j" d="M336.961,147.006c.048.19-.015.368-.137.4s-.264-.1-.315-.3.015-.368.14-.4S336.913,146.816,336.961,147.006Z" transform="translate(-320.415 -139.612)"/><path class="j" d="M329.726,148.836c.05.19,0,.371-.137.4s-.264-.1-.312-.3,0-.368.137-.4S329.678,148.646,329.726,148.836Z" transform="translate(-315.331 -140.899)"/><path class="j" d="M328.84,148.57h-.49S328.668,148.852,328.84,148.57Z" transform="translate(-314.691 -140.924)"/><path class="m" d="M332.481,150.14a5.232,5.232,0,0,1-.371,1.384.837.837,0,0,0,.71-.045Z" transform="translate(-317.334 -142.028)"/><path class="j" d="M337.8,154.033a2.315,2.315,0,0,1-.276.092.062.062,0,0,1-.071-.042.059.059,0,0,1,.042-.071,1.568,1.568,0,0,0,1.081-.891.057.057,0,1,1,.107.039A1.609,1.609,0,0,1,337.8,154.033Z" transform="translate(-321.092 -144.097)"/><path class="j" d="M328.966,132.676s3.177,3.266,6.345,3.266c2.607,0,2.521-4.371-.926-4.552S327.449,130.276,328.966,132.676Z" transform="translate(-314.868 -128.613)"/><path class="g" d="M350.034,146.977a1.761,1.761,0,0,1-.671,1.167c-.493.374-.965,0-1.018-.594-.047-.526.151-1.354.736-1.485a.793.793,0,0,1,.953.912Z" transform="translate(-328.743 -139.149)"/><path class="j" d="M336.206,143.094a.113.113,0,0,1-.134.021,1.364,1.364,0,0,0-1.09.071.114.114,0,0,1-.107-.2,1.569,1.569,0,0,1,1.3-.074.113.113,0,0,1,.048.154A.109.109,0,0,1,336.206,143.094Z" transform="translate(-319.236 -136.861)"/><path class="j" d="M326.7,143.9a.113.113,0,0,1-.113-.015.116.116,0,0,1-.027-.16,1.149,1.149,0,0,1,.932-.49.116.116,0,0,1,.107.122.113.113,0,0,1-.119.11.918.918,0,0,0-.733.395A.118.118,0,0,1,326.7,143.9Z" transform="translate(-313.418 -137.17)"/><path class="h" d="M383.891,387.309h-.03a.332.332,0,0,1-.237-.214.193.193,0,0,1,.018-.2c.175-.255,1.054-.223,1.155-.217a.056.056,0,0,1,.036.1C384.612,386.994,384.191,387.344,383.891,387.309Zm.76-.523c-.35,0-.823.039-.918.172a.089.089,0,0,0,0,.089.22.22,0,0,0,.154.146C384.051,387.229,384.33,387.068,384.651,386.786Z" transform="translate(-353.538 -308.327)"/><path class="h" d="M385.111,385.2c-.3-.036-.834-.241-.917-.478a.2.2,0,0,1,.083-.238.312.312,0,0,1,.249-.059c.347.068.707.668.722.692a.06.06,0,0,1,0,.059.068.068,0,0,1-.05.03Zm-.624-.662a.184.184,0,0,0-.14.039c-.059.044-.056.08-.045.107.056.16.493.359.787.4-.131-.193-.377-.5-.594-.543Z" transform="translate(-353.944 -306.743)"/><path class="h" d="M326.9,406.9a.929.929,0,0,1-.594-.148.329.329,0,0,1-.1-.282.184.184,0,0,1,.1-.151c.3-.166,1.268.33,1.378.389a.058.058,0,0,1-.015.107A4.128,4.128,0,0,1,326.9,406.9Zm-.434-.5a.22.22,0,0,0-.107.021.071.071,0,0,0-.039.062.214.214,0,0,0,.065.184,1.554,1.554,0,0,0,1.087.065A3.1,3.1,0,0,0,326.469,406.4Z" transform="translate(-313.181 -322.115)"/><path class="h" d="M329.083,405.471h-.03c-.3-.134-.864-.656-.82-.932,0-.065.056-.146.217-.163a.428.428,0,0,1,.321.1,1.691,1.691,0,0,1,.362.935.053.053,0,0,1-.024.053A.06.06,0,0,1,329.083,405.471Zm-.594-.986h-.03c-.1,0-.113.053-.113.065-.03.166.362.579.656.757a1.349,1.349,0,0,0-.3-.748.3.3,0,0,0-.2-.074Z" transform="translate(-314.608 -320.77)"/><path class="j" d="M336.05,146.7l-.49-.015S335.887,146.987,336.05,146.7Z" transform="translate(-319.76 -139.602)"/><path class="h" d="M335.057,221.451l.252.891c.033.071-.048.14-.163.14H324.985c-.089,0-.163-.045-.166-.1l-.089-.891c0-.062.068-.113.166-.113h10.01A.184.184,0,0,1,335.057,221.451Z" transform="translate(-312.146 -192.114)"/><path class="n" d="M335.057,221.451l.252.891c.033.071-.048.14-.163.14H324.985c-.089,0-.163-.045-.166-.1l-.089-.891c0-.062.068-.113.166-.113h10.01A.184.184,0,0,1,335.057,221.451Z" transform="translate(-312.146 -192.114)"/><path class="j" d="M354.458,222.37h.27c.053,0,.092-.027.089-.059l-.125-1.149a.1.1,0,0,0-.1-.062h-.267c-.053,0-.1.03-.092.062l.125,1.149C354.354,222.343,354.4,222.37,354.458,222.37Z" transform="translate(-332.886 -191.916)"/><path class="j" d="M327.581,222.371h.267c.053,0,.092-.027.089-.059l-.125-1.149c0-.033-.051-.062-.1-.062h-.267c-.053,0-.095.03-.092.062l.128,1.149C327.48,222.344,327.543,222.371,327.581,222.371Z" transform="translate(-313.988 -191.917)"/><path class="j" d="M341.011,222.371h.267c.053,0,.092-.027.089-.059l-.125-1.149c0-.033-.05-.062-.1-.062h-.267c-.053,0-.1.03-.092.062l.128,1.149C340.91,222.344,340.958,222.371,341.011,222.371Z" transform="translate(-323.43 -191.917)"/><path class="g" d="M340.408,219.636l-2.138-1.526.2,2.465s1.425.638,2.224.024Z" transform="translate(-321.665 -189.815)"/><path class="g" d="M351.407,183.78c.184,1.452.341,2.91.487,4.368s.282,2.916.4,4.374l.021.273v.377a2.551,2.551,0,0,1-.175.947,2.928,2.928,0,0,1-1.072,1.307,5.068,5.068,0,0,1-1.211.615,9.145,9.145,0,0,1-1.188.333,17.49,17.49,0,0,1-4.588.261l-.015-1.229c.692-.092,1.41-.2,2.1-.341a15.247,15.247,0,0,0,2.037-.529,5.077,5.077,0,0,0,1.612-.8.745.745,0,0,0,.279-.386.376.376,0,0,0,0-.131l-.065-.442c-.214-1.452-.413-2.9-.594-4.356s-.365-2.91-.514-4.368Z" transform="translate(-325.743 -165.679)"/><path class="h" d="M358.46,173.79c.989.3,2.18,3.706,2.18,3.706L356.8,180.24s-1.4-2.842-.983-4.121C356.248,174.788,357.332,173.446,358.46,173.79Z" transform="translate(-333.948 -158.617)"/><path class="h" d="M306.944,200.3a5.811,5.811,0,0,0-9.057,7.174l-.258,2.132,2.135-.255h0a5.811,5.811,0,0,0,7.18-9.051Zm-5.823,5.82a2.42,2.42,0,1,1,1.713.711A2.423,2.423,0,0,1,301.121,206.122Z" transform="translate(-292.647 -176.079)"/><path class="o" d="M306.944,200.3a5.811,5.811,0,0,0-9.057,7.174l-.258,2.132,2.135-.255h0a5.811,5.811,0,0,0,7.18-9.051Zm-5.823,5.82a2.42,2.42,0,1,1,1.713.711A2.423,2.423,0,0,1,301.121,206.122Z" transform="translate(-292.647 -176.079)"/><path class="g" d="M331.39,218.2l.279,2.055,1.963.318-.2-2.465Z" transform="translate(-316.828 -189.815)"/></g><g transform="translate(30.086 41.051)"><path class="h" d="M134.64,266.021h0a33.316,33.316,0,0,1-23.559-56.875.3.3,0,0,1,.419,0l3.528,3.525a.3.3,0,1,1-.422.422l-3.314-3.314a32.722,32.722,0,1,0,46.275,46.275l-3.321-3.321a.3.3,0,0,1,.422-.422l3.531,3.531a.3.3,0,0,1,0,.422A33.1,33.1,0,0,1,134.64,266.021Z" transform="translate(-101.321 -204.365)"/><ellipse class="h" cx="28.339" cy="28.339" rx="28.339" ry="28.339" transform="translate(4.979)"/><g class="p" transform="translate(4.979)"><g class="k" transform="translate(-10.574 3.695)"><path d="M220.474,210.45l2.542.487c-.223.169-.377.431-.609.594a21.709,21.709,0,0,1,5.49.3c1.636.457,3.041-.128,4.712.05.98.107,11.8.834,11.485,2.3-.763-.119-1.761-.5-2.479-.08l1.289.552c-.683.377-2.524.7-2.515,1.348,0,.466.641.674.814,1.09a5.712,5.712,0,0,1,.134,1.511c-.532-.481-1.981-1.339-2.182-1.984s.977-1.838-.754-1.583c-.632.092-.567.659-.73.722a5.931,5.931,0,0,1-1.595.056c-1.458.05-1.36.327-2.007,1.586.876.157,2.022.145,2.6.722s1.016,2.482.374,3.067c-.315.3-.766.065-.965.223a2.167,2.167,0,0,0-.487,1.22c.184.644,2.2,1.366.4,1.841-.229-.377-.733-1.71-1.131-1.868-.561-.223-1.229.659-1.247-.5l-.808.689a1.6,1.6,0,0,0,1.618.537c-1.143.3-.362,1.188-.018,1.595.531.624.561.641.594,1.339a2.542,2.542,0,0,1-2.135,2.6c-.662.146-1.143-.074-1.571.392-.65.7-.018.76.347,1.345.255.413.775,1.244.689,1.743-.074.425-.891.947-1.244,1.28-.448-.656-.784-1.529-1.651-1.74-.077,1.084-.175,1.5.594,2.34.238.258.532.389.695.668s.122.87.3,1.235c-2.269-1.217-1.915-3.539-2.693-5.692-.517,1.318-1.018-.484-1.244-.891-.511-.891-1.042-1.188-2.049-.594a7.393,7.393,0,0,0-1.992,2.04c-.445,1.17.365,1.642-.594,2.672-.719-.508-.891-1.621-1.158-2.375a6.627,6.627,0,0,1-.742-2.643c-.529,1.131-1.277-.27-1.764-.683-.719-.594-1.188-.333-2.147-.422a6.038,6.038,0,0,1-1.1-.315c.187.05-.428-.362-.341-.327-.128-.056-.33.187-.508.119-.561-.22-1.609-1.354-2.105-1.072.214.422.638,1.627,1.072,1.868.674.374,1.188-.389,1.707-.3a4.238,4.238,0,0,1,1.039,1c.089.389,0,.249-.3.757a3.3,3.3,0,0,1-1.565,1.485,7.637,7.637,0,0,1-2.375,1.084c-.82.018-.8-.333-1.155-.992s-1.969-4.647-2.758-4.2a41.471,41.471,0,0,0,1.906,4.044c.273.454,1.048,1.933,1.544,2.135.594.241,1.728-.3,2.248-.454-.252,2.376-2.2,3.266-3.343,5.1-1.033,1.645.846,3.563-.4,5.006-.333.389-1.256.57-1.485,1.013-.19.365.172.923.059,1.33-.148.532-.469.339-.8.808-.267.38-.181.926-.487,1.36a3.373,3.373,0,0,1-2.245,1.556c-1.422.321-1.544.276-2.01-.968l-1.44-3.819a3.014,3.014,0,0,1,.08-2.375,2.355,2.355,0,0,0-.033-2.194,15,15,0,0,1-.84-1.8,8.037,8.037,0,0,1-.068-1.47,1.253,1.253,0,0,0-.445-1.021c-.11-.1-.49.1-.627.033s-.264-.5-.434-.537c-.71-.134-1.684.341-2.5.374a3.494,3.494,0,0,1-2.9-.739,4.229,4.229,0,0,1-1.6-2.788c-.143-2.518,1.731-3.439,2.77-5.47.344-.674,0-.921.876-1.437a2.484,2.484,0,0,1,1.119-.344c1.318-.246,2.705-.3,4.038-.457-.116,1-.2.852.618,1.345.65.392,1.4.68,2.079,1.013.229-1.428,2.141-.386,3.192-.3,1.609.143,1.327-.624,1.6-1.969a6.145,6.145,0,0,1-2.058.021c-.891-.3-.754-.674-.891-1.5l-.992.181a1.544,1.544,0,0,1,.068,1.3,7.958,7.958,0,0,1-.929-1c-.131-.214-.143-.629-.261-.787a10.663,10.663,0,0,0-1.8-1.485c-.665.947.891,1.684,1.568,2.049-.644.76-.825,1.52-1.749.7,1.039.065,1.155-.2.644-.918a2.362,2.362,0,0,0-2.034-1.143c-.119,0-.211.324-.33.336s-.481-.241-.594-.184-.318-.071-.419-.027.05.407,0,.454c-.454.4-.787,1.021-1.188,1.434-.531.555-1.1,1.054-1.915.594a1.759,1.759,0,0,1-.422-2.15c.478-.757,1.532.187,2.218-.324s-.235-1.295-.594-1.69a11.577,11.577,0,0,0,1.642-.627c.594-.341.425-.612.909-.968.374-.279.627-.107.87-.425.359-.466-.428-.959.627-1.007-.576,1.485,2.022,1.3,2.773.769.16-.113.021-.49.134-.65a3.627,3.627,0,0,1,.463-.389v-.395h.5c.339-.249.57.2.736-.407-.73.125-1.149.392-1.615-.083-.659-.671-.1-.831.49-1.3-1.072-.766-2.649,1.4-1.336,1.595-.246.3-.909,1.5-1.274,1.577-.727.157-.594-.855-.692-1.348-.487.193-.817.434-1.146.226a.944.944,0,0,1-.258-1.069c.226-.4,1.259-.537,1.651-.849s.594-.956,1.045-1.244c1.505-.986,4.484-.624,5.859.431a3.261,3.261,0,0,1-2.1.05c.4.534.968,1.188,1.7.959.092-.03.264-.5.436-.609a7.871,7.871,0,0,1,1.526-.537,7.52,7.52,0,0,1,4.264-.252c-.775-2.079.478-.891,1.918-1.149a17.263,17.263,0,0,0,1.986-.876A19.96,19.96,0,0,1,220.474,210.45Z" transform="translate(-159.778 -209.038)"/><path d="M208.344,231.041l-1.734.38c.19-.279.707-.775.736-1.084.059-.656-.3-.315-.4-.558-.493-1.016-.226-1.048.692-1.559a7.507,7.507,0,0,0,.413,1.675C208.3,230.361,209.06,230.578,208.344,231.041Z" transform="translate(-169.751 -221.531)"/><path d="M204.161,233.331c-.5.867-.092.858-1.271,1.048C203.193,233.679,203.021,232.883,204.161,233.331Z" transform="translate(-167.136 -225.033)"/><path d="M254.424,212.578c-2.052-.621,1.167-1.523,1.571-1.624-.837,0-2-.169-2.672.487C252.589,212.168,253.459,212.988,254.424,212.578Z" transform="translate(-202.401 -209.378)"/><path d="M222.7,208.921l.742-.594a3.762,3.762,0,0,0-2.079-.229Z" transform="translate(-180.122 -207.346)"/><path d="M227.25,207.49c.546.594,1.289.3,2.016.2C228.592,207.6,227.93,207.535,227.25,207.49Z" transform="translate(-184.263 -206.957)"/><path d="M343,252.049a3.76,3.76,0,0,0,.644.941c.3-1.292,1.1-.633,1.951-1.416a1.368,1.368,0,0,0-.184-1.915c-.855-.852-.172.46-.514,1.063C344.517,251.375,343.49,251.4,343,252.049Z" transform="translate(-265.642 -236.407)"/><path d="M347.942,245.639l.264-.1c-.042-.1-.086-.2-.131-.3.487.178.974.175,1.122-.356l-1.618-.668C348.031,244.841,347.336,245.173,347.942,245.639Z" transform="translate(-268.863 -232.78)"/><path d="M343.243,236.952h.413a20.62,20.62,0,0,0-2.049-2.732C341.342,234.829,342.845,236.34,343.243,236.952Z" transform="translate(-264.641 -225.75)"/><path d="M337.041,268.44c-.472.211-.451.686-.122,1.084Z" transform="translate(-261.198 -249.809)"/><path d="M325.688,274.79h.5c-.154.472-.089.41-.573.466Z" transform="translate(-253.423 -254.273)"/><path d="M312.27,291.48c1.743.733,3.447,2.286,3.447,4.13-.906-.071-1.559-1.229-1.933-1.906S312.451,292.124,312.27,291.48Z" transform="translate(-244.037 -266.007)"/><path d="M328.181,292l-.511-.113c-.5,1.369,1.111,2.672,2.165,1.657.487-.469.386-1.339.487-1.894.143-.775.44-1.042-.324-1.633Z" transform="translate(-254.8 -264.981)"/><path d="M335.56,285.784c.371-.448.891-.858.891-1.464C336.157,284.819,335.857,285.3,335.56,285.784Z" transform="translate(-260.412 -260.973)"/><path d="M338.614,278.465a2.379,2.379,0,0,1-.481-2.105c.722.083.356,1.093.793,1.606.63.739,1.4.733,1.449,1.915.03.713-.362,1.339-1.158.57C338.691,279.944,339.041,279.1,338.614,278.465Z" transform="translate(-262.192 -255.377)"/><path d="M340.369,296.75c-.695.368-1.366-.2-1.8.621.594-.434,1.06-.243,1.716-.122A2.219,2.219,0,0,0,340.369,296.75Z" transform="translate(-262.528 -269.712)"/><path d="M339.234,299.16c-.677.49-1.036-.16-1.31.736-.11.359.068,1.125.466,1.114-.015-.428-.172-.891.172-1.167-.086.517.1.843.671.635l-.481-.891c.22.024.457-.092.677-.065Z" transform="translate(-262.052 -271.407)"/><path d="M326.639,306.45c-.656-.172-2.221-.924-2.759-.439C324.557,306.311,326.08,307.083,326.639,306.45Z" transform="translate(-252.2 -276.111)"/><path d="M347.337,295.44a1.051,1.051,0,0,0-.166,1.286A1.675,1.675,0,0,0,347.337,295.44Z" transform="translate(-268.471 -268.791)"/><path d="M347.66,301.879c.08.389.5.3.95.341C348.521,301.8,348.12,301.778,347.66,301.879Z" transform="translate(-268.919 -273.283)"/><path d="M345.743,302l.181.172a.475.475,0,0,1-.344,0Z" transform="translate(-267.456 -273.404)"/><path d="M351.08,299.372c0,.891.861,1.161,1.485,1.443s1.342.567.362,1.206c.472-.068.876.243,1.247.211a4.086,4.086,0,0,0,.594,0c.154-.036.234-.552.389-.555.454,0,.395.169.8.46a2.932,2.932,0,0,0,1.274.65,14.583,14.583,0,0,0-1.826-2.245,6.261,6.261,0,0,0-1.96-.811c-.481,0-.624.184-1.087.534C352.179,299.669,351.905,298.847,351.08,299.372Z" transform="translate(-271.323 -271.438)"/><path d="M368.83,303.347c.523.389,2.078.27,1.586-.567C369.964,303.412,369.569,303.347,368.83,303.347Z" transform="translate(-283.803 -273.952)"/><path d="M335,311.782c-.223.279-.754,1.247-1.075,1.351-.5.157-.692-.324-1.081-.252-.852.16-1.761,1.666-2.5,2.1-1.283.748-1.963.543-2.147,2.2-.065.609.249,1.315.107,1.909-.131.549-.891.8.089,1.1.929.3,2.806-.772,3.789-.956.529-.1.766-.3,1.292,0,.422.246.436.707.721,1.122,1.755,2.568,4.751.018,5.775-1.862a2.948,2.948,0,0,0-.425-3.409,4.818,4.818,0,0,1-.745-1.137,17.36,17.36,0,0,1-.543-2.182l-1.167,2.375c-1.1-.817-1.485-.745-.834-1.93Z" transform="translate(-255.025 -280.272)"/><path d="M352.988,346.64l1.387.086c-.407.534-.668,1.271-1.485,1.042Z" transform="translate(-272.596 -304.788)"/><path d="M370.65,348.449c1.063.561,1.075.362,2.079-.3.54-.356,1.936-.808,1.188-1.532Z" transform="translate(-285.082 -304.774)"/><path d="M382.59,341.557a2.565,2.565,0,0,0,.353.434c.3-.238,1.568-.968,1.615-1.3s-.71-.98-.956-1.283Z" transform="translate(-293.477 -299.705)"/><path d="M397.976,318.88a2.893,2.893,0,0,0-.5.276C397.931,319.489,398.472,319.45,397.976,318.88Z" transform="translate(-303.945 -285.271)"/><path d="M382.29,322.816s1.384,1.063,1.274.733A1.487,1.487,0,0,0,382.29,322.816Z" transform="translate(-293.266 -288.037)"/><path d="M334.52,308.31c.19.686,2.574.154,3.284,0Z" transform="translate(-259.68 -277.84)"/><path d="M338.57,310.06c.148.333.941.692,1.155.261Z" transform="translate(-262.528 -279.07)"/><path d="M258.492,313.13c-.677.612-1.529,1.122-1.731,1.987-.107.451-.434,2.34-.036,2.631.921.677,1.229-1.416,1.407-1.909A3.907,3.907,0,0,0,258.492,313.13Z" transform="translate(-204.851 -281.229)"/><path d="M200.065,219.4a2.086,2.086,0,0,0,1.627-.3C201.353,218.8,199.183,218.667,200.065,219.4Z" transform="translate(-165.003 -214.951)"/><path d="M99.776,239.267a8.123,8.123,0,0,0-1.307,2.785c-.261,1.425.116,1.782.87,3.067a5.977,5.977,0,0,0,.763,1.244c.439.448,1.188.612,1.648,1.057.695.695.535,1.324.594,2.375.143,2.236.05,4.481.787,6.616a7.578,7.578,0,0,0,1.318,2.824c1.063,1.223,1.452,1.259,3.052,1.259-1.3-1.03-1.847-1.188-1.877-2.756-.03-1.443-.151-1.859.739-2.969,1.675-2.079,3.994-4.157,4.888-6.637q.439-1.22.876-2.441c.169-.469.935-1.761.811-2.257-.175-.692-2.527-1.211-3.361-1.526a4.454,4.454,0,0,1-1.36-.543c-.475-.5-.315-1.526-.76-2.058-.594-.716-3-1.544-3.943-1.817a3.148,3.148,0,0,0-1.693-.056c-.68.1-1.428.451-2.016.532a5.38,5.38,0,0,1-1.485-.2c-.843-.439-.448-1.318-.33-2l-1.654-.193.891-2.079a5.526,5.526,0,0,0-1.366.736c-.327.166-1.018.561-1.419.353-.891-.463-.736-2.375-.208-3.07.445-.594,2.1-1.013,2.949-1.1,1.693-.169,1.624.594,2.093,1.906.635-.8-.086-1.648.3-2.405.318-.612,1.6-1.013,2.117-1.535,1.452-1.467,2.019-2.643,4.071-3.364v.434l1.761-.695h-1.256a1.975,1.975,0,0,1,.377-.953l-1.321.2c1.111-.594,2.818-.377,3.762-.977,1-.638-.246-2.218-.615-3.014l-1.211.716c-.454-.65.389-.823-.671-1.22-.891-.33-1.024,0-1.5.546s-1.782,3.127-2.583,3.124c.235-.986.526-1.1-.252-1.538-.511-.3-2.215-.16-1.969-1.188.169-.7,3.145-1.871,3.9-2.3-.137.249-.166.549-.3.8l1.434-.021-.891-.781c1.119-.14,1.321-.059,1.874-1-.73-.143-1.226.3-1.805.65.154-.8-.742-.529-1.33-.537l-4.044-.062c-1.048,0-2.123-.1-3.168-.047-.781.042-1.574.339-2.349.333-1.963,0-3.3-.846-5.265-.389-2.079.481-3.266,1.434-5.009,2.634.211.246.425.493.638.736L82.48,221.5c1.547-.52,3.688-1.7,5.3-1.624.935.047,1.933.333,2.168,1.021a5.2,5.2,0,0,1-.125,2.577c-.451,1.52-2.7,3.8-1.636,5.526.137.223.594.249.742.487.252.4.033,1.277.143,1.743.137.594.594,1.838,1.363,1.8a9.038,9.038,0,0,1-.947-3.142c.891.246,1.758,2.375,1.921,3.106.071.321-.077.772.05,1.027a5.687,5.687,0,0,0,1.74,1.167c.463.193,1.069,0,1.508.2a11.943,11.943,0,0,1,1.188.983c.243.169.549.134.766.324s.3.624.508.858a6.35,6.35,0,0,0,1.517.935C98.966,237.266,99.634,238.923,99.776,239.267Z" transform="translate(-82.48 -213.61)"/><path d="M134.54,271.519c1.209-.466,1.921.944,3.127.716C136.372,271.564,135.906,271,134.54,271.519Z" transform="translate(-119.082 -251.831)"/><path d="M145.065,274.94c.594.062,1.413-.089,1.586.543a2.569,2.569,0,0,1-1.981-.065c.223,0,.46-.089.683-.1Z" transform="translate(-126.204 -254.379)"/><path d="M140.62,276.22a5.969,5.969,0,0,1,.638.14,2.507,2.507,0,0,1-.638.24Z" transform="translate(-123.356 -255.279)"/><path d="M152.41,276.22a.558.558,0,0,0,.683.19C152.882,276.348,152.642,276.27,152.41,276.22Z" transform="translate(-131.645 -255.279)"/><path d="M169.155,237.83l-1.1,1.057,1.915.478a3.5,3.5,0,0,0-.1-1.075C169.7,237.975,169.092,238.572,169.155,237.83Z" transform="translate(-142.641 -228.288)"/><path d="M161.174,215.272l-1.891.843c.549.2,1.782.912,2.337.826s1.455-1.087,1.915-1.431c-.594-.555-1.428-1.681-2.194-1.951a3.352,3.352,0,0,0-3.07.594c.208.175.511.567.772.65.181.059.5-.273.689-.241C160.268,214.655,161,214.717,161.174,215.272Z" transform="translate(-135.765 -211.122)"/><path d="M164.855,218.79c-.843.244-.333.5.243.184Z" transform="translate(-140.082 -214.901)"/><path d="M152.4,214.375c-1.292-.891,1.354-1.865,2.114-1.865-.389.226-1.256.537-1.455.891C152.8,213.879,153.432,214.666,152.4,214.375Z" transform="translate(-131.394 -210.486)"/><path d="M132.785,214.7c0-.356.5-.956.68-1.28-.514.137-1.271.618-1.485,0a4.066,4.066,0,0,1,2.358-.392,5.4,5.4,0,0,0,2.485.22,2.151,2.151,0,0,0-.3,1.452Z" transform="translate(-117.282 -210.81)"/><path d="M139.73,210.574c1.339.635,2.079.439,3.563.27-.5-.113-1.188-.493-1.654-.552A8.388,8.388,0,0,0,139.73,210.574Z" transform="translate(-122.73 -208.919)"/><path d="M150.6,213.076a4.877,4.877,0,0,0-.861.238,1.852,1.852,0,0,0,.353.52l1.232-.757A6.566,6.566,0,0,0,150.6,213.076Z" transform="translate(-129.768 -210.877)"/><path d="M154.19,207.395c.576.374,2.26.2,2.952.249a2.84,2.84,0,0,0,2-.425,19.856,19.856,0,0,1,4.9-1.431,48.478,48.478,0,0,0-5.535,0C157.533,205.9,154.252,206.251,154.19,207.395Z" transform="translate(-132.897 -205.694)"/><path d="M177.8,208.453a18.3,18.3,0,0,1,4.454-.959,21.455,21.455,0,0,1,4.751.193,11.317,11.317,0,0,1-2.5,2.417c-.683.327-1.618.184-2.3.511a8.046,8.046,0,0,0-1.452,1.232c-1.116.971-1.648-.11-1.455-1.262.077-.475.671-1.3.143-1.782C179.065,208.5,178.222,208.812,177.8,208.453Z" transform="translate(-149.496 -206.922)"/></g></g><path class="h" d="M212.827,403.469a.3.3,0,0,1-.3-.3v-3.985a.3.3,0,0,1,.594,0v3.985A.3.3,0,0,1,212.827,403.469Z" transform="translate(-179.508 -337.828)"/><path class="h" d="M201.883,409.331c0,.481-3.81.87-8.51.87s-8.513-.389-8.513-.87,3.813-1.681,8.513-1.681S201.883,408.85,201.883,409.331Z" transform="translate(-160.054 -343.987)"/></g></g></svg>
