<svg xmlns="http://www.w3.org/2000/svg" width="110" height="110" viewBox="0 0 110 110">
  <g id="Group_15673" data-name="Group 15673" transform="translate(-599 -573)">
    <rect id="Rectangle_627" data-name="Rectangle 627" width="110" height="110" transform="translate(599 573)" fill="none"/>
    <g id="open-book" transform="translate(612 1048.862)">
      <path id="Path_4297" data-name="Path 4297" d="M16.72-453.7a64.427,64.427,0,0,0-7.582,1.225,3.468,3.468,0,0,0-2.119,2.02c-.05.265-.116.546-.149.646a2.393,2.393,0,0,1-1.192.381c-2.715.464-4.039.861-4.635,1.391a3.487,3.487,0,0,0-.811,1.059c-.2.447-.232,5.032-.232,26.321,0,24.8.017,25.824.315,26.47a2.571,2.571,0,0,0,2.152,1.523,16.441,16.441,0,0,0,2.914-.348A47.45,47.45,0,0,1,16.8-394.042a42.118,42.118,0,0,1,6.7.3c5.463.861,7.8,1.672,13.823,4.817l.993.513h8.111l.993-.513c.546-.281,1.871-.96,2.947-1.506a35.1,35.1,0,0,1,10.876-3.311,42.118,42.118,0,0,1,6.7-.3,47.45,47.45,0,0,1,11.422,1.026,16.441,16.441,0,0,0,2.914.348,2.571,2.571,0,0,0,2.152-1.523c.3-.646.315-1.672.315-26.47,0-21.288-.033-25.874-.232-26.321a3.487,3.487,0,0,0-.811-1.059c-.6-.53-1.92-.927-4.635-1.391a2.393,2.393,0,0,1-1.192-.381c-.033-.1-.1-.381-.149-.646a3.8,3.8,0,0,0-.7-1.109c-.728-.795-1.324-.993-4.7-1.556-9.254-1.556-17.994-.629-24.334,2.549a30.894,30.894,0,0,0-4.95,3.228l-.679.612-.728-.646c-3.377-2.98-8.741-5.231-14.5-6.092A67.665,67.665,0,0,0,16.72-453.7Zm8.294,2.483c6.191.629,11.571,2.715,15.18,5.877l.861.761v47.46l-1.308-.91a30.874,30.874,0,0,0-6.671-3.278c-6.291-2.1-14.485-2.334-22.795-.662-1.076.215-1.01,1.192-1.01-17.017,0-16.306,0-16.521-.331-16.852a1.279,1.279,0,0,0-1.672-.017l-.4.315v16.951c0,18.789-.083,17.431,1.076,18.408.944.778,1.573.861,3.857.464a45.517,45.517,0,0,1,11.522-.844c6.489.4,11.091,1.9,15.942,5.215,2.45,1.672,3.807,1.606,6.622-.265,5.165-3.443,10.644-4.983,17.762-5a42.321,42.321,0,0,1,8.277.712c3.046.546,3.377.563,4.221.116a3.729,3.729,0,0,0,1.242-1.093l.5-.728v-12.912l-.4-.315a1.181,1.181,0,0,0-1.622.05l-.381.348v5.993c0,4.668-.05,6.042-.215,6.274-.215.281-.331.281-2.7-.116a46.561,46.561,0,0,0-8.856-.778,37.494,37.494,0,0,0-8.227.761,28.742,28.742,0,0,0-10.462,4.271l-1.324.91v-47.46l.795-.7c3.195-2.847,7.813-4.817,13.359-5.744a59.86,59.86,0,0,1,11.935,0c3.195.447,5.248.894,5.479,1.225.166.215.215,3.576.215,15.461v15.2l.43.331a1.078,1.078,0,0,0,1.8-.331c.215-.4.248-2.467.248-14.22V-447.1l.712.1c.381.066,1.324.265,2.1.464l1.407.348V-395.2l-.579-.017c-.315-.017-1.655-.215-2.98-.447a47.719,47.719,0,0,0-10.76-.861,37.706,37.706,0,0,0-10.512.993,34.472,34.472,0,0,0-8.691,3.178l-3.062,1.54H39.15l-3.062-1.54a34.472,34.472,0,0,0-8.691-3.178,37.706,37.706,0,0,0-10.512-.993,47.719,47.719,0,0,0-10.76.861c-1.324.232-2.665.43-2.98.447l-.579.017v-50.986l1.407-.348c.778-.2,1.722-.4,2.119-.464l.7-.1v3.211c0,3.443.083,3.907.778,4.221a.953.953,0,0,0,1.275-.166l.43-.331v-4.685c0-3.476.05-4.751.215-4.95.3-.43,4.9-1.275,8.145-1.49A60.257,60.257,0,0,1,25.013-451.22Z" transform="translate(0)" fill="#666"/>
      <path id="Path_4298" data-name="Path 4298" d="M78.406-397.428a25.126,25.126,0,0,0-4.933.679,1.287,1.287,0,0,0,.033,2c.414.3.5.3,2.566.033a59.183,59.183,0,0,1,10.263-.083,31.076,31.076,0,0,1,10.28,3,12.543,12.543,0,0,0,2.251.993,1.509,1.509,0,0,0,1.126-1.258c0-.613-.679-1.175-2.566-2.1a30.644,30.644,0,0,0-9.684-2.93A51.938,51.938,0,0,0,78.406-397.428Z" transform="translate(-60.925 -47.021)" fill="#666"/>
      <path id="Path_4299" data-name="Path 4299" d="M291.064-397.366a32.765,32.765,0,0,0-12.482,3.261c-1.986.993-2.582,1.49-2.582,2.119a1.532,1.532,0,0,0,1.126,1.242,12.541,12.541,0,0,0,2.251-.993,31.077,31.077,0,0,1,10.28-3,58.308,58.308,0,0,1,10.181.083c2.152.265,2.251.265,2.649-.033a1.294,1.294,0,0,0,.017-2.02C301.576-397.184,294.226-397.614,291.064-397.366Z" transform="translate(-230.311 -47.083)" fill="#666"/>
      <path id="Path_4300" data-name="Path 4300" d="M79.1-335.191c-3.294.149-5.364.447-5.777.844a1.29,1.29,0,0,0,.017,1.788c.43.4.215.4,3.046.066a57.584,57.584,0,0,1,11.654.182,29.07,29.07,0,0,1,9.154,3.079c1.357.761,1.937.828,2.417.215.795-1.01.331-1.639-2.1-2.864C92.413-334.429,86.387-335.522,79.1-335.191Z" transform="translate(-60.894 -98.978)" fill="#666"/>
      <path id="Path_4301" data-name="Path 4301" d="M291.975-335.3a33.007,33.007,0,0,0-13.574,3.344c-1.854.944-2.4,1.407-2.4,1.986a1.4,1.4,0,0,0,1.076,1.275,11.417,11.417,0,0,0,2.351-.993,30.535,30.535,0,0,1,10.313-2.98,63.485,63.485,0,0,1,10.015.083c2.533.315,2.433.315,2.864-.083a1.29,1.29,0,0,0,.017-1.788c-.381-.364-2.284-.662-5.032-.795-.91-.033-2.02-.1-2.483-.116C294.673-335.4,293.249-335.366,291.975-335.3Z" transform="translate(-230.311 -98.87)" fill="#666"/>
      <path id="Path_4302" data-name="Path 4302" d="M77.552-272.574c-.265.033-1.225.149-2.119.248-1.92.215-2.433.513-2.433,1.407a1.32,1.32,0,0,0,.348.91c.381.381.1.381,3.874-.017a58.147,58.147,0,0,1,8.823.017,30.891,30.891,0,0,1,10.611,3.046,9.119,9.119,0,0,0,2.169.91,1.207,1.207,0,0,0,.844-1.97c-.877-.877-4.883-2.665-7.631-3.41a33.092,33.092,0,0,0-9.767-1.159C79.953-272.624,77.834-272.608,77.552-272.574Z" transform="translate(-60.916 -151.248)" fill="#666"/>
      <path id="Path_4303" data-name="Path 4303" d="M290.236-272.525a32.825,32.825,0,0,0-11.522,3.145c-2.135,1.043-2.715,1.506-2.715,2.185A1.308,1.308,0,0,0,277.175-266a9.4,9.4,0,0,0,2.152-.91,30.891,30.891,0,0,1,10.611-3.046,58.147,58.147,0,0,1,8.823-.017c3.774.4,3.493.4,3.874.017a1.3,1.3,0,0,0,0-1.771c-.563-.5-2.7-.728-7.433-.795C292.786-272.558,290.551-272.558,290.236-272.525Z" transform="translate(-230.311 -151.298)" fill="#666"/>
      <path id="Path_4304" data-name="Path 4304" d="M76.277-210.71c-2.582.281-3.029.48-3.112,1.44a1.077,1.077,0,0,0,.315.96c.315.315.464.348,1.457.248.6-.05,1.986-.182,3.079-.281a54.043,54.043,0,0,1,9.717.248,29.721,29.721,0,0,1,9.353,3.013,6.558,6.558,0,0,0,1.871.728,1.18,1.18,0,0,0,.927-1.854c-.48-.646-3.675-2.185-6.39-3.1C88.958-210.809,82.369-211.339,76.277-210.71Z" transform="translate(-61.048 -202.684)" fill="#666"/>
      <path id="Path_4305" data-name="Path 4305" d="M289.425-210.621a32.346,32.346,0,0,0-5.678,1.093c-2.947.828-6.9,2.632-7.516,3.427a1.191,1.191,0,0,0,.944,1.854,6.559,6.559,0,0,0,1.871-.728,29.721,29.721,0,0,1,9.353-3.013,54.046,54.046,0,0,1,9.717-.248c1.093.1,2.483.232,3.079.281.993.1,1.142.066,1.457-.248a1.271,1.271,0,0,0-.149-1.854C301.543-210.753,293.348-211.1,289.425-210.621Z" transform="translate(-230.327 -202.79)" fill="#666"/>
    </g>
  </g>
</svg>
