<svg width="64" height="56" viewBox="0 0 64 56" fill="none" xmlns="http://www.w3.org/2000/svg">
<g clip-path="url(#clip0)">
<path d="M6.49023 17.7219V49.3847L57.6798 49.717L58.1866 17.3409L6.49023 17.7219Z" fill="#1093FF"/>
<path d="M32.2571 5.65887C32.2571 5.65887 28.1961 5.65887 26.118 7.99811C24.0399 10.3373 20.7296 9.98327 22.0685 15.6882C23.4073 21.3931 27.6321 27.4534 27.9853 29.2609C28.3384 31.0684 28.4083 32.1664 28.4083 32.1664L31.683 31.2806L35.5572 31.1387C35.5572 31.1387 37.1069 26.1419 38.3035 23.8742C39.5 21.6066 42.7049 18.6653 42.3187 15.3341C41.9313 12.0029 38.8675 6.47441 37.9872 6.58051C37.1069 6.6866 32.2571 5.65887 32.2571 5.65887Z" fill="#FFCA05"/>
<path d="M1.10384 48.8669C0.492855 48.8669 0 49.3616 0 49.9778C0 53.1006 2.77675 55.5293 6.05145 55.5293H57.9574C61.2232 55.5293 64 53.0993 64 49.9778C64 49.3629 63.5084 48.8669 62.8962 48.8669H1.10384Z" fill="#004FE8"/>
<path d="M5.51693 15.5538C4.90594 15.5538 4.41309 16.0485 4.41309 16.6647V49.9764C4.41309 50.5913 4.90467 51.0872 5.51693 51.0872H58.4823C59.0933 51.0872 59.5862 50.5926 59.5862 49.9764V16.6647C59.5862 16.0498 59.0946 15.5538 58.4823 15.5538H41.0355V17.7742H57.3797V48.8656H6.62077V17.7755H23.1035V15.5551H5.51693V15.5538Z" fill="#1093FF"/>
<path d="M32.0001 4.45105C25.9575 4.45105 21.043 9.46571 21.043 15.6001C21.043 18.9824 22.7248 21.2629 24.1817 23.4845C25.6387 25.7138 26.9585 27.9265 26.9585 31.6655C26.9496 32.0656 27.1567 32.4388 27.5009 32.6357C27.8451 32.8351 28.2694 32.8351 28.6136 32.6357C28.9579 32.4375 29.1649 32.0656 29.1649 31.6655C29.1649 27.3705 27.5187 24.5608 26.0261 22.2689C24.526 19.9795 23.2494 18.2449 23.2494 15.6001C23.2494 10.6545 27.1643 6.67269 32.0001 6.67269C36.8359 6.67269 40.7508 10.6545 40.7508 15.6001C40.7508 18.2449 39.4755 19.9795 37.9741 22.2689C36.4828 24.5608 34.8353 27.3705 34.8353 31.6655C34.8353 32.0656 35.0423 32.4388 35.3866 32.6357C35.7308 32.8351 36.1551 32.8351 36.4993 32.6357C36.8435 32.4375 37.0506 32.0656 37.0417 31.6655C37.0417 27.9252 38.3615 25.7138 39.8185 23.4845C41.2754 21.2642 42.9572 18.9824 42.9572 15.6001C42.9572 9.46571 38.0427 4.45105 32.0001 4.45105ZM31.9823 23.4411C31.3713 23.45 30.8874 23.9524 30.8963 24.5698V31.6655C30.8874 32.0656 31.1033 32.4388 31.4387 32.6357C31.7829 32.8351 32.216 32.8351 32.5603 32.6357C32.8956 32.4375 33.1116 32.0656 33.1027 31.6655V24.5685C33.1116 24.2643 32.9896 23.9779 32.7826 23.7606C32.5692 23.5535 32.2846 23.4321 31.9823 23.4411Z" fill="#FFCA05"/>
<path d="M28.0609 30.5546C27.4499 30.5546 26.957 31.0493 26.957 31.6654V36.4973C26.957 37.1122 27.4486 37.6081 28.0609 37.6081H35.9389C36.5499 37.6081 37.0428 37.1134 37.0428 36.4973V31.6654C37.0428 31.0506 36.5512 30.5546 35.9389 30.5546H28.0609ZM29.1634 32.775H34.8351V35.3865H29.1634V32.775Z" fill="#004FE8"/>
<path fill-rule="evenodd" clip-rule="evenodd" d="M29.1044 39.9829C28.7068 39.974 28.3359 40.1824 28.1377 40.5288C27.9307 40.8752 27.9307 41.3021 28.1377 41.6485C28.3359 41.9949 28.7068 42.2033 29.1044 42.2033H34.8954C35.293 42.2033 35.6639 41.9949 35.8621 41.6485C36.0691 41.3021 36.0691 40.8752 35.8621 40.5288C35.6639 40.1824 35.293 39.974 34.8954 39.9829H29.1044Z" fill="#004FE8"/>
<rect x="29.1768" y="32" width="5.64706" height="3.76471" fill="#004FE8"/>
</g>
<defs>
<clipPath id="clip0">
<rect width="64" height="55.5294" fill="white"/>
</clipPath>
</defs>
</svg>
