<svg id="flat" height="512" viewBox="0 0 512 512" width="512" xmlns="http://www.w3.org/2000/svg"><path d="m192 253.97363h-16v-50.66015l-10.62988-10.62891-48.93067 9.78613-3.13867-15.68945 53.12988-10.626a7.99913 7.99913 0 0 1 7.22657 2.1875l16 16a8.00235 8.00235 0 0 1 2.34277 5.65725z" fill="#7148db"/><path d="m315.73 86.52v65.48h-75.73l-25.85 22.15-30.15 25.85-16-16 56-72z" fill="#486be0"/><path d="m472 168v24l-40 8.57007-72 15.42993-14.48-9.22-41.52 33.22-72-24 40.71973-89.58008a46.35785 46.35785 0 0 1 27.37011-34.46l41.19043-17.6499 2.71973 7.47998 3.5498 9.76 12.4502 12.45a54.64068 54.64068 0 0 1 16 38.62988v25.37012z" fill="#548aff"/><path d="m214.15 174.15-30.15 25.85-16-16 24.5-31.5z" fill="#f5c99d"/><path d="m472 168v24l-40 8.57v-32.57z" fill="#f5c99d"/><path d="m246.966 297.399 73.034 62.601-16 128h24l48-144-72-104z" fill="#4b6275"/><path d="m376 142.62988v25.37012l-32-24v-62.21l3.5498 9.76 12.4502 12.45a54.64068 54.64068 0 0 1 16 38.62988z" fill="#4976f2"/><path d="m232 216-56 136-112 32 8 24 144-16 88-152z" fill="#62798c"/><path d="m144 336-104-96 64-72 104 96z" fill="#7e57df"/><path d="m104 168v56l48 48 56-8z" fill="#9977ed"/><path d="m376 56v24a24 24 0 0 1 -24 24 24 24 0 0 1 -24-24v-24z" fill="#f5c99d"/><path d="m328 56h48v-13.57781a18.42218 18.42218 0 0 0 -18.42219-18.42219 18.42223 18.42223 0 0 0 -10.21881 3.094l-19.359 12.906z" fill="#b1712c"/><path d="m232 216 40.71834-89.58159a46.37251 46.37251 0 0 0 -.71834 8.138v.003a46.34444 46.34444 0 0 0 21.46325 39.099l52.05575 33.12639-41.519 33.2152z" fill="#4976f2"/></svg>