<svg xmlns="http://www.w3.org/2000/svg" width="262.752" height="224.08" viewBox="0 0 262.752 224.08"><defs><style>.a{fill:#ebebeb;}.b{fill:#f0f0f0;}.c{fill:#f5f5f5;}.d{fill:#e6e6e6;}.e{fill:#fafafa;}.f,.g,.i{fill:#fff;}.g,.h,.n,.x{stroke:#407bff;}.ab,.ac,.g,.h,.n,.u,.v,.z{stroke-linecap:round;stroke-linejoin:round;}.ab,.ac,.h,.k,.n,.u,.v,.x,.y,.z{fill:none;}.h,.z{stroke-dasharray:5 5;}.ab,.ac,.i,.k,.z{stroke:#263238;}.i,.k,.x,.y{stroke-miterlimit:10;}.j{fill:#407bff;}.l{fill:#263238;}.ae,.m{opacity:0.2;}.ac,.n{stroke-width:0.75px;}.o{opacity:0.1;}.p,.w{opacity:0.3;}.q{opacity:0.4;}.r{opacity:0.5;}.s{opacity:0.6;}.t{opacity:0.7;}.u{stroke:#e6e6e6;stroke-dasharray:4 4;}.v{stroke:#fafafa;}.y{stroke:#fff;}.aa{fill:#b55b52;}.ab{stroke-width:0.5px;}.ad{fill:#a02724;}.ae{isolation:isolate;}</style></defs><g transform="translate(0 -30.41)"><g transform="translate(0 43.332)"><rect class="a" width="262.752" height="0.131" transform="translate(0 172.05)"/><rect class="a" width="17.405" height="0.131" transform="translate(219.02 180.505)"/><rect class="a" width="4.567" height="0.131" transform="translate(169.491 181.935)"/><rect class="a" width="10.084" height="0.131" transform="translate(208.41 175.629)"/><rect class="a" width="22.697" height="0.131" transform="translate(27.568 176.512)"/><rect class="a" width="3.326" height="0.131" transform="translate(54.947 176.512)"/><rect class="a" width="49.229" height="0.131" transform="translate(69.088 178.729)"/><path class="a" d="M142.675,203.612H41.205a3,3,0,0,1-3-3V57.974a3,3,0,0,1,3-2.974h101.47a3,3,0,0,1,3,3h0V200.612A3,3,0,0,1,142.675,203.612ZM41.205,55.105a2.869,2.869,0,0,0-2.864,2.869V200.612a2.869,2.869,0,0,0,2.864,2.869h101.47a2.88,2.88,0,0,0,2.869-2.869V57.974a2.88,2.88,0,0,0-2.869-2.869Z" transform="translate(-18.13 -55)"/><path class="a" d="M358.975,203.612H257.5a3.011,3.011,0,0,1-3-3V57.974a3.006,3.006,0,0,1,3-2.974H358.975a3,3,0,0,1,2.99,2.974V200.612A3,3,0,0,1,358.975,203.612ZM257.5,55.105a2.88,2.88,0,0,0-2.869,2.869V200.612a2.88,2.88,0,0,0,2.869,2.869H358.975a2.88,2.88,0,0,0,2.869-2.869V57.974a2.88,2.88,0,0,0-2.869-2.869Z" transform="translate(-120.759 -55)"/><rect class="b" width="8.629" height="48.178" transform="translate(53.213 121.16)"/><rect class="b" width="59.256" height="2.617" transform="translate(53.213 169.338)"/><rect class="c" width="51.321" height="48.178" transform="translate(61.148 121.16)"/><rect class="b" width="44.536" height="16.984" transform="translate(64.537 126.247)"/><rect class="b" width="44.536" height="16.984" transform="translate(64.537 147.272)"/><rect class="c" width="22.602" height="1.86" rx="0.93" transform="translate(75.51 129.705)"/><rect class="c" width="22.602" height="1.86" rx="0.93" transform="translate(75.51 150.736)"/><rect class="d" width="122.805" height="70.354" transform="translate(106.914 23.049)"/><rect class="b" width="123.772" height="70.354" transform="translate(107.765 23.049)"/><rect class="e" width="118.664" height="64.611" transform="translate(110.324 25.918)"/><path class="f" d="M237.65,168.931l15.008-64.611h19.675l-15.008,64.611Z" transform="translate(-112.764 -78.402)"/><path class="f" d="M281.15,168.931l15-64.611h8.886l-15.008,64.611Z" transform="translate(-133.405 -78.402)"/><path class="f" d="M348.23,168.931l15.008-64.611H378.41l-15,64.611Z" transform="translate(-165.234 -78.402)"/><rect class="d" width="0.326" height="64.611" transform="translate(228.657 25.918)"/><rect class="b" width="7.378" height="70.354" transform="translate(165.965 23.049)"/><rect class="d" width="0.326" height="64.611" transform="translate(165.639 25.918)"/><rect class="d" width="0.257" height="70.354" transform="translate(169.522 23.049)"/><rect class="d" width="32.644" height="50.044" transform="translate(40.296 24.184)"/><rect class="c" width="34.646" height="50.044" transform="translate(41.058 24.184)"/><rect class="f" width="30.227" height="45.63" transform="translate(43.265 26.391)"/><rect class="c" width="19.318" height="26.48" transform="translate(48.719 33.89)"/></g><g transform="translate(142.806 109.919)"><path class="g" d="M365.831,188.168v43.039a6.432,6.432,0,0,1-6.437,6.437H278.187a6.437,6.437,0,0,1-6.437-6.437V188.168a5.948,5.948,0,0,1,.047-.751,6.432,6.432,0,0,1,6.39-5.707h81.206a6.438,6.438,0,0,1,6.4,5.681A5.934,5.934,0,0,1,365.831,188.168Z" transform="translate(-271.75 -181.71)"/><path class="h" d="M306.44,226.676a17.342,17.342,0,0,1-1.051-9.291c.967-5.57,5.318-10.594,10.862-11.692,8.061-1.577,15.765,4.766,23.995,4.419,5.781-.242,11.777-3.731,16.953-1.188,8.2,4.036,5.9,16.6,1.944,22.723-4.1,6.369-11.587,10.079-18.866,11.435" transform="translate(-287.606 -192.97)"/><path class="i" d="M310.256,279.79l8.723,3.558,5.245-4.409-.5-16.59-2.932-1.2L309,272.722Z" transform="translate(-289.425 -219.404)"/><path class="j" d="M315.025,305.634l-5.066-2.065a2,2,0,0,1-1.1-2.628h0a2,2,0,0,1,2.628-1.093l5.045,2.107a2,2,0,0,1,1.1,2.628h0A2,2,0,0,1,315.025,305.634Z" transform="translate(-289.286 -237.692)"/><line class="k" x1="4.183" y2="10.253" transform="translate(28.661 42.35)"/><path class="l" d="M326.362,281.314a.941.941,0,1,1-.526-1.224A.941.941,0,0,1,326.362,281.314Z" transform="translate(-296.803 -228.359)"/><path class="m" d="M315.025,305.634l-5.066-2.065a2,2,0,0,1-1.1-2.628h0a2,2,0,0,1,2.628-1.093l5.045,2.107a2,2,0,0,1,1.1,2.628h0A2,2,0,0,1,315.025,305.634Z" transform="translate(-289.286 -237.692)"/><path class="k" d="M287.83,272.4a19.167,19.167,0,1,1,35.792,13.726" transform="translate(-279.38 -218.899)"/><rect class="k" width="1.067" height="1.067" transform="matrix(0.892, 0.452, -0.452, 0.892, 43.827, 66.905)"/><rect class="k" width="1.067" height="1.067" transform="matrix(0.892, 0.452, -0.452, 0.892, 8.024, 53.223)"/><line class="k" x2="29.334" y2="12.722" transform="translate(20.284 36.806)"/><path class="j" d="M366.539,275.614a.526.526,0,1,1-.138-.565A.525.525,0,0,1,366.539,275.614Z" transform="translate(-316.243 -225.933)"/><path class="j" d="M310.442,251.293a.525.525,0,1,1-.13-.574A.525.525,0,0,1,310.442,251.293Z" transform="translate(-289.611 -214.387)"/><path class="j" d="M365.822,187.391h-94a6.432,6.432,0,0,1,6.4-5.681h81.206a6.437,6.437,0,0,1,6.4,5.681Z" transform="translate(-271.783 -181.71)"/><path class="f" d="M410.862,185.631a1.051,1.051,0,1,1-1.051-1.051A1.051,1.051,0,0,1,410.862,185.631Z" transform="translate(-336.761 -183.072)"/><circle class="f" cx="1.051" cy="1.051" r="1.051" transform="translate(77.359 1.508)"/><path class="f" d="M431.262,185.631a1.051,1.051,0,1,1-1.051-1.051A1.051,1.051,0,0,1,431.262,185.631Z" transform="translate(-346.44 -183.072)"/><rect class="n" width="9.538" height="15.812" transform="translate(81.017 7.615)"/><rect class="j" width="2.107" height="2.107" transform="translate(82.714 8.965)"/><rect class="j" width="2.107" height="2.107" transform="translate(87.002 8.965)"/><rect class="j" width="2.107" height="2.107" transform="translate(82.714 12.512)"/><rect class="j" width="2.107" height="2.107" transform="translate(87.002 12.512)"/><rect class="j" width="2.107" height="2.107" transform="translate(82.714 16.059)"/><rect class="j" width="2.107" height="2.107" transform="translate(87.002 16.059)"/><rect class="j" width="2.107" height="2.107" transform="translate(82.714 19.601)"/><rect class="j" width="2.107" height="2.107" transform="translate(87.002 19.601)"/><rect class="o" width="2.107" height="2.107" transform="translate(87.002 8.965)"/><rect class="m" width="2.107" height="2.107" transform="translate(82.714 12.512)"/><rect class="p" width="2.107" height="2.107" transform="translate(87.002 12.512)"/><rect class="q" width="2.107" height="2.107" transform="translate(82.714 16.059)"/><rect class="r" width="2.107" height="2.107" transform="translate(87.002 16.059)"/><rect class="s" width="2.107" height="2.107" transform="translate(82.714 19.601)"/><rect class="t" width="2.107" height="2.107" transform="translate(87.002 19.601)"/></g><g transform="translate(28.209 30.41)"><path class="u" d="M77.22,118.3a77.291,77.291,0,0,1,75.525-60.89c36.212,0,66.418,24.173,74.79,57.805" transform="translate(-64.85 -43.221)"/><path class="j" d="M66.05,159.22A12.37,12.37,0,0,0,53.68,171.6c0,2.454,1.892,6.043,2.769,7.573.384.673.746,1.351,1.1,2.034L60,186.01a1.792,1.792,0,0,0,1.577.983h8.934a1.792,1.792,0,0,0,1.577-.983l2.449-4.808c.347-.683.715-1.361,1.1-2.034.878-1.529,2.769-5.118,2.769-7.573A12.376,12.376,0,0,0,66.05,159.22Z" transform="translate(-53.68 -91.53)"/><path class="v" d="M68.5,202.1s-.426-11.419-2.922-11.036-1.167,4.083,5.066,4.283,5.9-4.3,4.582-4.293S71.8,196.079,73.2,202.086" transform="translate(-58.763 -106.633)"/><path class="v" d="M64.39,165.183a8.665,8.665,0,0,1,7.8-2.512" transform="translate(-58.762 -93.12)"/><path class="v" d="M60.2,171.2a5.817,5.817,0,0,1,1.13-1.324" transform="translate(-56.774 -96.588)"/><path class="j" d="M77.138,219.489v.163a3.706,3.706,0,0,1-.105.736,3.521,3.521,0,0,1-.794,1.513,2.943,2.943,0,0,1-2.186,1H67.621a3.153,3.153,0,0,1-2.98-2.512,3.706,3.706,0,0,1-.105-.736v-.163a2.977,2.977,0,0,1,0-.31.577.577,0,0,1,0-.095,3.547,3.547,0,0,1,.9-1.986,2.943,2.943,0,0,1,2.186-1h6.427a3.153,3.153,0,0,1,2.927,2.339,3.069,3.069,0,0,1,.137.667.578.578,0,0,1,0,.095q.02.144.026.289Z" transform="translate(-58.829 -118.519)"/><path class="m" d="M77.116,218.417H64.83a3.494,3.494,0,0,1,.746-1.319,2.943,2.943,0,0,1,2.186-1h6.427A3.153,3.153,0,0,1,77.116,218.417Z" transform="translate(-58.971 -118.519)"/><path class="m" d="M77.126,224.26a3.521,3.521,0,0,1-.794,1.513,2.943,2.943,0,0,1-2.186,1H67.72a3.153,3.153,0,0,1-2.98-2.512Z" transform="translate(-58.928 -122.391)"/><g class="w" transform="translate(5.692 100.566)"><path d="M77.128,222.185v.163H64.516v-.163a2.993,2.993,0,0,1,0-.31.579.579,0,0,1,0-.095H77.1a.576.576,0,0,1,0,.095A2.978,2.978,0,0,1,77.128,222.185Z" transform="translate(-64.512 -221.78)"/></g><path class="j" d="M75.021,235.115a.825.825,0,1,1-.244-.585.83.83,0,0,1,.244.585Z" transform="translate(-63.018 -127.15)"/><path class="x" d="M74.94,235.86v20.206h4.877v36.444" transform="translate(-63.768 -127.895)"/><path class="j" d="M115.826,97.6V96.385l-.751-.221a7.359,7.359,0,0,0-.231-1.214l.631-.483-.457-1.125-.783.079a7.621,7.621,0,0,0-.662-1.051l.384-.683-.851-.867-.688.378a7.453,7.453,0,0,0-1.009-.688l.095-.778-1.119-.473-.494.61a6.832,6.832,0,0,0-1.2-.252l-.21-.757h-1.219l-.221.751a7.212,7.212,0,0,0-1.209.226l-.489-.625-1.125.452.079.778a8.208,8.208,0,0,0-1.051.667l-.678-.389-.851.841.378.694a6.455,6.455,0,0,0-.694,1.019l-.778-.1-.478,1.119.61.489A6.92,6.92,0,0,0,100.5,96l-.757.21v1.209l.751.226a7.356,7.356,0,0,0,.231,1.214l-.631.478.457,1.13.783-.084a6.61,6.61,0,0,0,.662,1.051l-.389.688.857.862.688-.373a7.4,7.4,0,0,0,1.014.7l-.095.778,1.119.473.494-.6a7.419,7.419,0,0,0,1.214.247l.2.757h1.214l.221-.751a6.779,6.779,0,0,0,1.214-.231l.483.631,1.125-.452-.079-.778a7.847,7.847,0,0,0,1.051-.667l.683.389.867-.851-.373-.694a6.7,6.7,0,0,0,.694-1.019l.778.1.478-1.119-.61-.494a7.3,7.3,0,0,0,.247-1.2Zm-8.066,2.149a2.817,2.817,0,1,1,2-.806A2.817,2.817,0,0,1,107.759,99.748Z" transform="translate(-75.535 -58.144)"/><path class="l" d="M383.651,124.847l-1.739-1.8h0a11.682,11.682,0,0,0-.378-2.254l.925-1.913-2.275-3.715-2.1-.037a11.557,11.557,0,0,0-1.823-1.366h0l-.82-2.354L371.2,110.39l-1.8,1.734h0a11.365,11.365,0,0,0-2.254.384l-1.913-.935-3.71,2.291-.037,2.1h0a10.464,10.464,0,0,0-1.361,1.829l-2.354.8-1.019,4.2,1.739,1.8a11.081,11.081,0,0,0,.378,2.27h0l-.935,1.944,2.275,3.715,2.1.042a11.557,11.557,0,0,0,1.823,1.366h0l.815,2.349,4.241,1.019,1.792-1.734a11.828,11.828,0,0,0,2.275-.378h0l1.918.925,3.715-2.27.042-2.1a11.246,11.246,0,0,0,1.361-1.829h0l2.339-.815Zm-14.62,3.763a4.9,4.9,0,1,1,5.907-3.615h0A4.908,4.908,0,0,1,369.031,128.609Z" transform="translate(-197.486 -68.36)"/><path class="l" d="M205.189,42.807l-2.181-1.5h0a12,12,0,0,0-.878-2.254l.557-2.212-3.153-3.368-2.186.41a11.962,11.962,0,0,0-2.181-1.051h0l-1.345-2.27-4.609-.152-1.5,2.181h0a11.633,11.633,0,0,0-2.254.872l-2.181-.562-3.368,3.153.4,2.181h0a11.514,11.514,0,0,0-1.025,2.186l-2.265,1.345-.158,4.6,2.17,1.524a11.643,11.643,0,0,0,.893,2.27h0l-.525,2.186,3.153,3.368,2.186-.4a12.7,12.7,0,0,0,2.181,1.051h0l1.34,2.26,4.609.163,1.492-2.186a11.872,11.872,0,0,0,2.281-.872h0l2.181.557,3.368-3.153-.4-2.181a12.129,12.129,0,0,0,1.025-2.181h0l2.265-1.345ZM190.833,49.78a5.181,5.181,0,1,1,5.355-5h0a5.187,5.187,0,0,1-5.355,5Z" transform="translate(-112.133 -30.41)"/><circle class="y" cx="7.252" cy="7.252" r="7.252" transform="translate(68.648 14.19) rotate(-45)"/><path class="j" d="M320.63,77.75l.694-2.88-1.666-.951a17.422,17.422,0,0,0,.121-3l1.76-.809-.468-2.938-1.9-.226a17.4,17.4,0,0,0-1.019-2.859l1.3-1.419-1.577-2.533-1.85.526a18.123,18.123,0,0,0-2.034-2.223l.694-1.781-2.407-1.75-1.5,1.177a18.385,18.385,0,0,0-2.733-1.261l-.079-1.908-2.9-.694-.935,1.661a18.024,18.024,0,0,0-3.011-.121L300.277,52l-2.932.462-.231,1.9a17.394,17.394,0,0,0-2.822,1.019L292.883,54.1l-2.538,1.55.526,1.85a17.009,17.009,0,0,0-2.212,2.049l-1.829-.694-1.755,2.407,1.23,1.5a16.854,16.854,0,0,0-1.266,2.743l-1.918.089-.688,2.874,1.666.946a18.11,18.11,0,0,0-.126,3.016l-1.76.8.473,2.938,1.9.231a17.157,17.157,0,0,0,1.019,2.817l-1.3,1.419,1.576,2.533,1.845-.525a17.663,17.663,0,0,0,2.039,2.212l-.694,1.823,2.407,1.75,1.508-1.172a18.193,18.193,0,0,0,2.743,1.256l.079,1.918,2.885.694.941-1.666a17.524,17.524,0,0,0,3.016.121l.8,1.76,2.932-.462.237-1.892a19.866,19.866,0,0,0,2.822-1.019l1.408,1.293,2.538-1.545-.526-1.855a16.5,16.5,0,0,0,2.2-2.039l1.8.657,1.75-2.407-1.177-1.5a17.335,17.335,0,0,0,1.256-2.733Zm-20.936,2.9a9.091,9.091,0,1,1,.042,0Z" transform="translate(-162.117 -40.654)"/><path class="m" d="M320.63,77.75l.694-2.88-1.666-.951a17.422,17.422,0,0,0,.121-3l1.76-.809-.468-2.938-1.9-.226a17.4,17.4,0,0,0-1.019-2.859l1.3-1.419-1.577-2.533-1.85.526a18.123,18.123,0,0,0-2.034-2.223l.694-1.781-2.407-1.75-1.5,1.177a18.385,18.385,0,0,0-2.733-1.261l-.079-1.908-2.9-.694-.935,1.661a18.024,18.024,0,0,0-3.011-.121L300.277,52l-2.932.462-.231,1.9a17.394,17.394,0,0,0-2.822,1.019L292.883,54.1l-2.538,1.55.526,1.85a17.009,17.009,0,0,0-2.212,2.049l-1.829-.694-1.755,2.407,1.23,1.5a16.854,16.854,0,0,0-1.266,2.743l-1.918.089-.688,2.874,1.666.946a18.11,18.11,0,0,0-.126,3.016l-1.76.8.473,2.938,1.9.231a17.157,17.157,0,0,0,1.019,2.817l-1.3,1.419,1.576,2.533,1.845-.525a17.663,17.663,0,0,0,2.039,2.212l-.694,1.823,2.407,1.75,1.508-1.172a18.193,18.193,0,0,0,2.743,1.256l.079,1.918,2.885.694.941-1.666a17.524,17.524,0,0,0,3.016.121l.8,1.76,2.932-.462.237-1.892a19.866,19.866,0,0,0,2.822-1.019l1.408,1.293,2.538-1.545-.526-1.855a16.5,16.5,0,0,0,2.2-2.039l1.8.657,1.75-2.407-1.177-1.5a17.335,17.335,0,0,0,1.256-2.733Zm-20.936,2.9a9.091,9.091,0,1,1,.042,0Z" transform="translate(-162.117 -40.654)"/><circle class="y" cx="11.976" cy="11.976" r="11.976" transform="translate(127.771 19.097)"/></g><g transform="translate(195.971 86.529)"><path class="j" d="M433.155,143.264l-3.016-.016-1.724,2.48-.92-2.875-2.885-.878,2.449-1.76L427,137.2l2.433,1.787,2.848-.988-.946,2.864Z" transform="translate(-397.447 -137.2)"/><path class="j" d="M445.08,165.531l.977-1.566-.73-1.7,1.792.447,1.387-1.224.126,1.845,1.592.946-1.713.688-.4,1.808-1.188-1.419Z" transform="translate(-407.16 -148.726)"/><path class="x" d="M382.736,329.26l-.568,4.33,3.242,2.922-4.293.794-1.776,3.989-2.081-3.836L372.92,337l3-3.164-.9-4.272,3.936,1.876Z" transform="translate(-372.92 -228.332)"/><path class="j" d="M408.679,323.576l-1.429-1.172-1.776.515.667-1.724-1.04-1.529,1.85.105,1.13-1.461.473,1.787,1.739.625-1.555,1Z" transform="translate(-388.189 -223.136)"/></g><g transform="translate(25.077 242.498)"><ellipse class="c" cx="106.299" cy="5.996" rx="106.299" ry="5.996"/></g><g transform="translate(43.539 68.719)"><path class="z" d="M106.8,365.773c6.138,4.025,9.328,11.693,8.986,19.018a16.255,16.255,0,0,1-3.484,9.921c-2.333,2.7-5.7,4.178-9.065,5.255a23.879,23.879,0,0,1-10.715,1.324c-3.589-.541-7.115-2.564-8.692-5.833-1.661-3.437-.951-7.525.189-11.162s2.7-7.263,2.628-11.072c-.032-2.964-1.051-5.817-1.787-8.687s-1.224-5.959-.226-8.75,3.915-5.087,6.832-4.461" transform="translate(-82.852 -220.944)"/><path class="l" d="M182.966,134.87s-4.777-4.236-9.7,0-5.507,15.182-9.165,20.016c0,0,1.986,4.088,9.843,4.588S190.365,152,190.365,152,191.689,133.126,182.966,134.87Z" transform="translate(-121.404 -117.392)"/><path class="j" d="M176.246,175.955a39.843,39.843,0,0,0-9.806,4.835l4.2,9.711s1.324,7.494,4.514,12.139l6.569,6.122,12.9-5.717-3.484-18.156.315-9.291S187,172.449,176.246,175.955Z" transform="translate(-122.514 -136.994)"/><path class="aa" d="M192.381,150.3a2.717,2.717,0,0,1-2.628,2.449,10.509,10.509,0,0,1-1.8,1.908c.568,4.393,3.337,4.393,3.337,4.393-4.356,7.189-9.654,1.65-9.654,1.65a3.121,3.121,0,0,0,2.1-2.628,3.915,3.915,0,0,0-.236-1.713c-3.81-.053-5.781-2.67-5.66-6.537a16.354,16.354,0,0,1,2.449-7.4c2.507.983,7.026-.273,7.026-.273-.221,5.938,2.5,6.973,2.5,6.973S192.764,147.847,192.381,150.3Z" transform="translate(-127.923 -121.735)"/><path class="ab" d="M185.34,158.97a2.391,2.391,0,0,0,2.706-1.14" transform="translate(-131.482 -129.18)"/><path class="l" d="M188.108,151.772c0,.347-.2.625-.415.615s-.384-.3-.373-.646.2-.625.42-.62S188.124,151.419,188.108,151.772Z" transform="translate(-132.421 -125.996)"/><path class="l" d="M180.345,151.094c0,.326-.184.578-.384.573s-.352-.279-.342-.6.184-.578.389-.568S180.345,150.762,180.345,151.094Z" transform="translate(-128.767 -125.701)"/><path class="ac" d="M188.87,147.839a2,2,0,0,1,1.7,1.051" transform="translate(-133.157 -124.438)"/><path class="ad" d="M182.762,154.447V151.62l-1.372,2.4a2.007,2.007,0,0,0,1.372.431Z" transform="translate(-129.608 -126.233)"/><path class="j" d="M167.728,190.531l-.384,9.075-.6.158c-.336.084-.662.147-.983.2a10.612,10.612,0,0,1-9.233-2.433l5.208-10.841Z" transform="translate(-117.812 -142.873)"/><path class="ac" d="M180.993,146.63a2.523,2.523,0,0,0-.993.194" transform="translate(-128.948 -123.865)"/><path class="l" d="M184.12,242.556s.526,14.945,1.965,37.274,9.312,52.619,9.312,52.619h7.62s-4.2-56.287-4.488-70.36c0,0,18.356,47.416,33.038,63.018l4.9-3.058s-19.885-46.5-22.029-53.228-4.488-31.53-11.419-39.791H190.578Z" transform="translate(-130.903 -162.964)"/><path class="aa" d="M210.83,428.62l1.088,6.306,4.724-.126-.783-6.18Z" transform="translate(-143.577 -257.668)"/><path class="aa" d="M277,411.672c.105.21,2.727,4.614,2.727,4.614l3.248-3.458-2.985-4.088Z" transform="translate(-174.974 -248.235)"/><path class="j" d="M202.71,423.537l11.251-.867-.578,4.041-8.75.767Z" transform="translate(-139.724 -254.845)"/><path class="j" d="M270.98,408.557l7.389-5.607,1.051,3.621-5.975,4.136Z" transform="translate(-172.118 -245.488)"/><path class="j" d="M119,357.375l.042-17.615,14.851,7.615Z" transform="translate(-100.004 -215.505)"/><path class="j" d="M197.638,110.93l-63.7,124.25-4.714-2.412-5.523-2.832-4.619-2.37,63.7-124.255,5.108,2.617,5.964,3.058Z" transform="translate(-100.042 -103.31)"/><path class="q" d="M124.991,362.982l-6,4.025.021-6.947Z" transform="translate(-99.999 -225.137)"/><path class="m" d="M206.8,116.054l-63.7,124.25-4.714-2.412L203.006,114.11Z" transform="translate(-109.2 -108.435)"/><path class="m" d="M187.884,105.927,123.7,229.935l-4.619-2.37,63.7-124.255Z" transform="translate(-100.042 -103.31)"/><path class="q" d="M133.888,347.37l-14.9,10,.021-7.236.021-10.384Z" transform="translate(-99.999 -215.5)"/><path class="aa" d="M218.792,197.647c-9.517,9.717-22.071,4.656-22.071,4.656a3.637,3.637,0,0,1-2.139-1.419l-3.442-1.23,1.314-3.321,3.747,1.009,2.733,2.023c9.816,1.724,14.667-4.309,14.667-4.309a32.488,32.488,0,0,0-2.433-7.609l3.678-7.147.173.268C220.563,189.5,218.792,197.647,218.792,197.647Z" transform="translate(-134.234 -139.841)"/><path class="aa" d="M168.405,221.312l-2.628,1.051c-2.317,1.881-5.47.83-5.47.83-9.774,2.512-14.057-.583-14.057-.583a67.3,67.3,0,0,1,6.553-13.6,11.277,11.277,0,0,0,5.071,1.682c-2.37,3.91-4.635,8.765-4.635,8.765,2.459,1.288,8.371-.715,8.371-.715l6.054-.594Z" transform="translate(-112.934 -153.464)"/><path class="q" d="M209.291,283.712,206.8,274.6s2.685,14.409,2.7,14.714S209.291,283.712,209.291,283.712Z" transform="translate(-141.665 -184.586)"/><path class="x" d="M279.312,423.715s-2.47-1.329-2.827-.389S279.312,423.715,279.312,423.715Z" transform="translate(-174.716 -254.997)"/><path class="x" d="M279.55,425s-2.628.652-2.591,1.235S279.55,425,279.55,425Z" transform="translate(-174.955 -255.951)"/><path class="l" d="M284.133,416.467l2.06,1.676a1.13,1.13,0,0,1,.121,1.64l-6.763,7.357-.11.105c-.315.263-1.75,1.387-2.444.82-.783-.641,1.577-3.016,1.713-4.257.121-.951.363-2.938.468-3.8a1.114,1.114,0,0,1,.368-.7l3.153-2.811A1.13,1.13,0,0,1,284.133,416.467Z" transform="translate(-174.897 -251.785)"/><path class="x" d="M209.026,439.614s-1.219-2.554-1.887-2.1S209.026,439.614,209.026,439.614Z" transform="translate(-141.773 -261.862)"/><path class="x" d="M207.708,440.759s-2.712-1.477-3.027-.62S207.708,440.759,207.708,440.759Z" transform="translate(-140.649 -263.007)"/><path class="l" d="M210.79,440.38h-6.6a12.04,12.04,0,0,1-4.882,2.669c-2.659.594-2.412,1.051-2.412,1.051s-.441,1.135,1.182,1.377a105.676,105.676,0,0,0,13.1,0C212.466,445.178,210.79,440.38,210.79,440.38Z" transform="translate(-136.941 -263.248)"/><path class="l" d="M187.181,151.042l-1.051-.152a.694.694,0,0,0,1.051.152Z" transform="translate(-131.857 -125.887)"/><path class="l" d="M179.582,150.358l-.862-.158a.552.552,0,0,0,.862.158Z" transform="translate(-128.341 -125.559)"/><path class="ae" d="M191.353,168.41a3.085,3.085,0,0,1-2.5,2.1,3.914,3.914,0,0,0-.236-1.713A13.019,13.019,0,0,0,191.353,168.41Z" transform="translate(-133.038 -134.2)"/><path class="m" d="M175.113,207.235c-.336.084-.662.147-.983.2l.557-4.945Z" transform="translate(-126.163 -150.371)"/></g></g></svg>