<svg xmlns="http://www.w3.org/2000/svg" width="262.826" height="195.837" viewBox="0 0 262.826 195.837"><defs><style>.a,.c{fill:#ebebeb;}.b{fill:#f0f0f0;}.ae,.c{font-size:1px;font-family:Helvetica;}.d,.r{fill:#f5f5f5;}.e{fill:#e0e0e0;}.f{fill:#fafafa;}.g{fill:#e6e6e6;}.h,.i{fill:#407bff;}.i,.l,.q,.t{opacity:0.2;}.aa,.ac,.i,.l,.q,.t,.v{isolation:isolate;}.ad,.j,.r{opacity:0.3;}.ac,.ad,.ae,.ag,.ah,.ai,.k,.l,.m,.n,.o,.v,.w{fill:#fff;}.m{opacity:0.5;}.aa,.ac,.n{opacity:0.6;}.o{opacity:0.7;}.p{fill:#263238;}.s{fill:#e4897b;}.u{fill:#eec1bb;}.v,.w{opacity:0.1;}.x{fill:#d4827d;}.ab,.y,.z{fill:none;}.y,.z{stroke:#263238;stroke-linecap:round;stroke-linejoin:round;}.y{stroke-width:0.686px;}.z{stroke-width:0.5px;}.ab{stroke:#407bff;stroke-miterlimit:10;stroke-width:3px;}.ae{letter-spacing:0.022em;}.af{letter-spacing:0em;}.ag{opacity:0.75;}.ah{opacity:0.9;}.ai,.aj{opacity:0.4;}</style></defs><rect class="a" width="262.826" height="0.131" transform="translate(0 172.099)"/><rect class="a" width="17.41" height="0.131" transform="translate(219.082 180.556)"/><rect class="a" width="4.568" height="0.131" transform="translate(169.539 181.986)"/><rect class="a" width="10.087" height="0.131" transform="translate(208.469 175.678)"/><rect class="a" width="22.703" height="0.131" transform="translate(27.576 176.562)"/><rect class="a" width="3.327" height="0.131" transform="translate(54.962 176.562)"/><rect class="a" width="49.243" height="0.131" transform="translate(69.108 178.78)"/><path class="a" d="M142.7,203.655H41.206a3,3,0,0,1-3-3V57.975a3,3,0,0,1,3-2.975H142.7a3,3,0,0,1,3,3V200.653A3,3,0,0,1,142.7,203.655ZM41.206,55.105a2.87,2.87,0,0,0-2.865,2.87V200.653a2.87,2.87,0,0,0,2.865,2.87H142.7a2.875,2.875,0,0,0,2.87-2.87V57.975a2.875,2.875,0,0,0-2.87-2.87Z" transform="translate(-18.125 -55)"/><path class="a" d="M359.005,203.655H257.5a3.007,3.007,0,0,1-3-3V57.975a3.007,3.007,0,0,1,3-2.975h101.5A3,3,0,0,1,362,57.975V200.653A3,3,0,0,1,359.005,203.655ZM257.5,55.105a2.875,2.875,0,0,0-2.87,2.87V200.653a2.875,2.875,0,0,0,2.87,2.87h101.5a2.875,2.875,0,0,0,2.87-2.87V57.975a2.875,2.875,0,0,0-2.87-2.87Z" transform="translate(-120.721 -55)"/><path class="b" d="M159.291,104.927a5.956,5.956,0,0,0-7.669-5.709,12.277,12.277,0,0,0,.137-1.829,12.616,12.616,0,0,0-14.939-12.395,11.039,11.039,0,0,0-20.448,5.572h-.184a10.166,10.166,0,0,0,0,20.316h37.321A5.95,5.95,0,0,0,159.291,104.927Z" transform="translate(-50.481 -66.728)"/><path class="b" d="M261.287,167.065a2.959,2.959,0,0,0-2.959-2.959,3.059,3.059,0,0,0-.852.126,5.775,5.775,0,0,0,.068-.909,6.266,6.266,0,0,0-6.245-6.266,6.03,6.03,0,0,0-1.156.11,5.477,5.477,0,0,0-10.156,2.765H239.9a5.052,5.052,0,0,0,0,10.1h18.535A2.954,2.954,0,0,0,261.287,167.065Z" transform="translate(-111.476 -102.215)"/><path class="b" d="M394.981,116.622a1.814,1.814,0,0,0-1.814-1.814,1.919,1.919,0,0,0-.526.079,3.928,3.928,0,0,0,.042-.557,3.837,3.837,0,0,0-3.837-3.837,3.953,3.953,0,0,0-.71.063,3.354,3.354,0,0,0-6.218,1.7h-.058a3.1,3.1,0,0,0,0,6.187h11.354A1.819,1.819,0,0,0,394.981,116.622Z" transform="translate(-179.727 -80.589)"/><text class="c" transform="translate(70.963 28.849)"><tspan x="0" y="0">101010000111110101010101</tspan></text><text class="c" transform="translate(74.906 28.849)"><tspan x="0" y="0">001101100110001101011111</tspan></text><text class="c" transform="translate(78.848 28.849)"><tspan x="0" y="0">111110101010101011110000</tspan></text><text class="c" transform="translate(82.79 28.849)"><tspan x="0" y="0">101010000111110101010101</tspan></text><text class="c" transform="translate(86.733 28.849)"><tspan x="0" y="0">000101011111000000110101</tspan></text><text class="c" transform="translate(90.675 28.849)"><tspan x="0" y="0">110011001101010101001100</tspan></text><rect class="d" width="119.066" height="75.736" transform="translate(23.917 96.536)"/><rect class="e" width="119.066" height="5.13" transform="translate(23.917 96.536)"/><path class="f" d="M265.851,242.135a1.545,1.545,0,1,1-1.545-1.545A1.545,1.545,0,0,1,265.851,242.135Z" transform="translate(-124.639 -143.034)"/><path class="f" d="M256.081,242.135a1.545,1.545,0,1,1-1.545-1.545A1.545,1.545,0,0,1,256.081,242.135Z" transform="translate(-120.005 -143.034)"/><path class="f" d="M246.3,242.135a1.545,1.545,0,1,1-1.545-1.545A1.545,1.545,0,0,1,246.3,242.135Z" transform="translate(-115.366 -143.034)"/><path class="e" d="M73.7,263.879l-.731-1.02a1.425,1.425,0,0,0-1.141-.6H66.664a1.241,1.241,0,0,0-1.051.6L65,263.879a1.24,1.24,0,0,1-1.051.6h-3.1a1.251,1.251,0,0,0-1.277,1.325l1,17.247a1.435,1.435,0,0,0,1.409,1.346H86.4a1.251,1.251,0,0,0,1.251-1.346l-1-17.247a1.43,1.43,0,0,0-1.4-1.34H74.844A1.424,1.424,0,0,1,73.7,263.879Z" transform="translate(-28.255 -153.313)"/><path class="g" d="M89.995,269.6H67.617a1.877,1.877,0,0,0-1.84,1.677l-1.346,14.939a1.514,1.514,0,0,0,1.535,1.677H88.349a1.882,1.882,0,0,0,1.84-1.677l1.346-14.939a1.514,1.514,0,0,0-1.54-1.677Z" transform="translate(-30.559 -156.795)"/><path class="e" d="M144.649,263.879l-.71-1.02a1.425,1.425,0,0,0-1.141-.6h-5.167a1.246,1.246,0,0,0-1.051.6l-.615,1.02a1.24,1.24,0,0,1-1.051.6h-3.08a1.251,1.251,0,0,0-1.256,1.34l1,17.247a1.435,1.435,0,0,0,1.325,1.346h24.427a1.246,1.246,0,0,0,1.251-1.346l-.972-17.262a1.44,1.44,0,0,0-1.409-1.34h-10.4A1.424,1.424,0,0,1,144.649,263.879Z" transform="translate(-61.937 -153.313)"/><path class="g" d="M160.906,269.6h-22.4a1.877,1.877,0,0,0-1.84,1.677l-1.346,14.939a1.514,1.514,0,0,0,1.54,1.677h22.377a1.882,1.882,0,0,0,1.84-1.677l1.346-14.939a1.514,1.514,0,0,0-1.519-1.677Z" transform="translate(-64.185 -156.795)"/><path class="e" d="M215.529,263.879l-.736-1.02a1.414,1.414,0,0,0-1.141-.6h-5.167a1.246,1.246,0,0,0-1.051.6l-.615,1.02a1.241,1.241,0,0,1-1.051.6h-3.08a1.24,1.24,0,0,0-1.251,1.34l.993,17.247a1.446,1.446,0,0,0,1.409,1.346h24.385a1.251,1.251,0,0,0,1.256-1.346l-1-17.262a1.43,1.43,0,0,0-1.409-1.34h-10.4A1.414,1.414,0,0,1,215.529,263.879Z" transform="translate(-95.549 -153.313)"/><path class="g" d="M231.775,269.6H209.4a1.882,1.882,0,0,0-1.84,1.677l-1.346,14.939a1.514,1.514,0,0,0,1.54,1.677h22.377a1.882,1.882,0,0,0,1.84-1.677l1.346-14.939a1.514,1.514,0,0,0-1.54-1.677Z" transform="translate(-97.812 -156.795)"/><path class="e" d="M73.721,323.919l-.731-1.02a1.425,1.425,0,0,0-1.141-.6H66.682a1.241,1.241,0,0,0-1.051.6l-.615,1.02a1.24,1.24,0,0,1-1.051.6h-3.1a1.251,1.251,0,0,0-1.256,1.34l1,17.247a1.43,1.43,0,0,0,1.409,1.34H86.442a1.246,1.246,0,0,0,1.251-1.34l-1-17.247a1.43,1.43,0,0,0-1.4-1.34H74.862A1.424,1.424,0,0,1,73.721,323.919Z" transform="translate(-28.273 -181.793)"/><path class="g" d="M89.994,329.64H67.617a1.877,1.877,0,0,0-1.84,1.677l-1.346,14.939a1.509,1.509,0,0,0,1.535,1.672H88.349a1.877,1.877,0,0,0,1.84-1.672l1.346-14.939a1.514,1.514,0,0,0-1.54-1.677Z" transform="translate(-30.559 -185.274)"/><path class="e" d="M144.649,323.919l-.71-1.02a1.425,1.425,0,0,0-1.141-.6h-5.167a1.246,1.246,0,0,0-1.051.6l-.615,1.02a1.24,1.24,0,0,1-1.051.6h-3.08a1.251,1.251,0,0,0-1.256,1.34l1,17.247a1.43,1.43,0,0,0,1.409,1.34h24.427a1.241,1.241,0,0,0,1.251-1.34l-1.057-17.247a1.44,1.44,0,0,0-1.409-1.34h-10.4A1.424,1.424,0,0,1,144.649,323.919Z" transform="translate(-61.937 -181.793)"/><path class="g" d="M160.906,329.64h-22.4a1.877,1.877,0,0,0-1.84,1.677l-1.346,14.939a1.509,1.509,0,0,0,1.54,1.672h22.377a1.877,1.877,0,0,0,1.84-1.672l1.346-14.939a1.514,1.514,0,0,0-1.519-1.677Z" transform="translate(-64.185 -185.275)"/><path class="e" d="M215.529,323.919l-.736-1.02a1.414,1.414,0,0,0-1.141-.6h-5.167a1.246,1.246,0,0,0-1.051.6l-.615,1.02a1.24,1.24,0,0,1-1.051.6h-3.08a1.241,1.241,0,0,0-1.251,1.34l.993,17.247a1.44,1.44,0,0,0,1.409,1.34h24.385a1.251,1.251,0,0,0,1.256-1.34l-1-17.247a1.43,1.43,0,0,0-1.409-1.34h-10.4A1.414,1.414,0,0,1,215.529,323.919Z" transform="translate(-95.549 -181.793)"/><path class="g" d="M231.774,329.64H209.4a1.882,1.882,0,0,0-1.84,1.677l-1.346,14.939a1.509,1.509,0,0,0,1.54,1.672h22.377a1.877,1.877,0,0,0,1.84-1.672l1.346-14.939a1.514,1.514,0,0,0-1.54-1.677Z" transform="translate(-97.812 -185.274)"/><rect class="g" width="41.174" height="12.09" rx="2.67" transform="translate(196.783 159.883)"/><path class="d" d="M440.418,368.369a2.539,2.539,0,1,1-2.539-2.539A2.539,2.539,0,0,1,440.418,368.369Z" transform="translate(-206.502 -202.441)"/><path class="g" d="M440.256,369.493a1.293,1.293,0,1,1-1.293-1.293,1.293,1.293,0,0,1,1.293,1.293Z" transform="translate(-207.608 -203.566)"/><rect class="d" width="2.891" height="2.891" transform="translate(223.019 164.482)"/><rect class="g" width="41.174" height="12.09" rx="2.67" transform="translate(196.783 147.267)"/><path class="d" d="M440.418,344.369a2.539,2.539,0,1,1-2.539-2.539A2.539,2.539,0,0,1,440.418,344.369Z" transform="translate(-206.502 -191.057)"/><path class="g" d="M440.256,345.493a1.293,1.293,0,1,1-1.293-1.293A1.293,1.293,0,0,1,440.256,345.493Z" transform="translate(-207.608 -192.181)"/><rect class="d" width="2.891" height="2.891" transform="translate(223.019 151.866)"/><rect class="g" width="41.174" height="12.09" rx="2.67" transform="translate(196.783 134.651)"/><path class="d" d="M440.418,320.369a2.539,2.539,0,1,1-2.539-2.539,2.539,2.539,0,0,1,2.539,2.539Z" transform="translate(-206.502 -179.673)"/><path class="g" d="M440.256,321.493a1.293,1.293,0,1,1-1.293-1.293A1.293,1.293,0,0,1,440.256,321.493Z" transform="translate(-207.608 -180.797)"/><rect class="d" width="2.891" height="2.891" transform="translate(223.019 139.251)"/><rect class="g" width="41.174" height="12.09" rx="2.67" transform="translate(196.783 122.036)"/><path class="d" d="M440.418,296.369a2.539,2.539,0,1,1-2.539-2.539A2.539,2.539,0,0,1,440.418,296.369Z" transform="translate(-206.502 -168.288)"/><path class="g" d="M440.256,297.493a1.293,1.293,0,1,1-1.293-1.293A1.293,1.293,0,0,1,440.256,297.493Z" transform="translate(-207.608 -169.413)"/><rect class="d" width="2.891" height="2.891" transform="translate(223.019 126.635)"/><rect class="g" width="41.174" height="12.09" rx="2.67" transform="translate(196.783 109.42)"/><path class="d" d="M440.418,272.369a2.539,2.539,0,1,1-2.539-2.539A2.539,2.539,0,0,1,440.418,272.369Z" transform="translate(-206.502 -156.904)"/><path class="g" d="M440.256,273.493a1.293,1.293,0,1,1-1.293-1.293A1.293,1.293,0,0,1,440.256,273.493Z" transform="translate(-207.608 -158.028)"/><rect class="d" width="2.891" height="2.891" transform="translate(223.019 114.019)"/><rect class="g" width="41.174" height="12.09" rx="2.67" transform="translate(196.783 96.804)"/><path class="d" d="M440.418,248.369a2.539,2.539,0,1,1-2.539-2.539,2.539,2.539,0,0,1,2.539,2.539Z" transform="translate(-206.502 -145.52)"/><path class="g" d="M440.256,249.493a1.293,1.293,0,1,1-1.293-1.293A1.293,1.293,0,0,1,440.256,249.493Z" transform="translate(-207.608 -146.644)"/><rect class="d" width="2.891" height="2.891" transform="translate(223.019 101.404)"/><g transform="translate(29.494 183.936)"><ellipse class="d" cx="101.919" cy="5.95" rx="101.919" ry="5.95"/></g><g transform="translate(33.947 140.343)"><path class="h" d="M85.842,340.487c-.82-1.351-2.166-.179-2.166-.179.194-2.581-2.181-4.342-2.181-4.342a3.181,3.181,0,0,0,3.154-2.628c.394-2.628-.962-1.4-2.224-1.425s-2.581,3.68-.92,5.745,1.219,5.619-2.628,9.025a7.5,7.5,0,0,0-2.008,3.154c.289-3.128.452-7.538-.468-10.482-1.577-5,1.419-6.345,2.281-8.847s-2.281-4.615-2.281-4.615,2.954-1.346,1.514-2.886-4.447-1.351-4.447.657a3.2,3.2,0,0,0,2.024,2.781s2.308,2.4,2.308,3.653-2.308,3.942-2.308,3.942,1.051-2.3-1.051-2.4-2.786,2.691-1.924,3.942,2.308.189,2.308.189a24.321,24.321,0,0,0,.662,4.326,34.8,34.8,0,0,1-.068,6.476,7.27,7.27,0,0,0-1.871-2.781c-3.848-3.406-4.289-6.949-2.628-9.02s.347-5.782-.915-5.751-2.628-1.2-2.224,1.43a3.181,3.181,0,0,0,3.154,2.628s-2.371,1.766-2.181,4.342c0,0-1.346-1.167-2.16.179-1.461,2.4,1.924,3.9,2.492,2.712,0,0,7.17,5.073,5.441,12.384l.4.594c-.047.589-.084.941-.084.941l.562-.242.641.946a21.137,21.137,0,0,0,.163,3.154l1.714-2.534c-1.74-7.28,5.43-12.363,5.43-12.363C83.918,344.376,87.3,342.889,85.842,340.487Z" transform="translate(-65.362 -321.988)"/><path class="i" d="M85.842,340.487c-.82-1.351-2.166-.179-2.166-.179.194-2.581-2.181-4.342-2.181-4.342a3.181,3.181,0,0,0,3.154-2.628c.394-2.628-.962-1.4-2.224-1.425s-2.581,3.68-.92,5.745,1.219,5.619-2.628,9.025a7.5,7.5,0,0,0-2.008,3.154c.289-3.128.452-7.538-.468-10.482-1.577-5,1.419-6.345,2.281-8.847s-2.281-4.615-2.281-4.615,2.954-1.346,1.514-2.886-4.447-1.351-4.447.657a3.2,3.2,0,0,0,2.024,2.781s2.308,2.4,2.308,3.653-2.308,3.942-2.308,3.942,1.051-2.3-1.051-2.4-2.786,2.691-1.924,3.942,2.308.189,2.308.189a24.321,24.321,0,0,0,.662,4.326,34.8,34.8,0,0,1-.068,6.476,7.27,7.27,0,0,0-1.871-2.781c-3.848-3.406-4.289-6.949-2.628-9.02s.347-5.782-.915-5.751-2.628-1.2-2.224,1.43a3.181,3.181,0,0,0,3.154,2.628s-2.371,1.766-2.181,4.342c0,0-1.346-1.167-2.16.179-1.461,2.4,1.924,3.9,2.492,2.712,0,0,7.17,5.073,5.441,12.384l.4.594c-.047.589-.084.941-.084.941l.562-.242.641.946a21.137,21.137,0,0,0,.163,3.154l1.714-2.534c-1.74-7.28,5.43-12.363,5.43-12.363C83.918,344.376,87.3,342.889,85.842,340.487Z" transform="translate(-65.362 -321.988)"/><g class="j" transform="translate(0.867)"><path class="k" d="M85.842,340.487c-.82-1.351-2.166-.179-2.166-.179.194-2.581-2.181-4.342-2.181-4.342a3.181,3.181,0,0,0,3.154-2.628c.394-2.628-.962-1.4-2.224-1.425s-2.581,3.68-.92,5.745,1.219,5.619-2.628,9.025a7.5,7.5,0,0,0-2.008,3.154c.289-3.128.452-7.538-.468-10.482-1.577-5,1.419-6.345,2.281-8.847s-2.281-4.615-2.281-4.615,2.954-1.346,1.514-2.886-4.447-1.351-4.447.657a3.2,3.2,0,0,0,2.024,2.781s2.308,2.4,2.308,3.653-2.308,3.942-2.308,3.942,1.051-2.3-1.051-2.4-2.786,2.691-1.924,3.942,2.308.189,2.308.189a24.321,24.321,0,0,0,.662,4.326,34.8,34.8,0,0,1-.068,6.476,7.27,7.27,0,0,0-1.871-2.781c-3.848-3.406-4.289-6.949-2.628-9.02s.347-5.782-.915-5.751-2.628-1.2-2.224,1.43a3.181,3.181,0,0,0,3.154,2.628s-2.371,1.766-2.181,4.342c0,0-1.346-1.167-2.16.179-1.461,2.4,1.924,3.9,2.492,2.712,0,0,7.17,5.073,5.441,12.384l.4.594c-.047.589-.084.941-.084.941l.562-.242.641.946a21.137,21.137,0,0,0,.163,3.154l1.714-2.534c-1.74-7.28,5.43-12.363,5.43-12.363C83.918,344.376,87.3,342.889,85.842,340.487Z" transform="translate(-66.229 -321.988)"/><path class="l" d="M85.842,340.487c-.82-1.351-2.166-.179-2.166-.179.194-2.581-2.181-4.342-2.181-4.342a3.181,3.181,0,0,0,3.154-2.628c.394-2.628-.962-1.4-2.224-1.425s-2.581,3.68-.92,5.745,1.219,5.619-2.628,9.025a7.5,7.5,0,0,0-2.008,3.154c.289-3.128.452-7.538-.468-10.482-1.577-5,1.419-6.345,2.281-8.847s-2.281-4.615-2.281-4.615,2.954-1.346,1.514-2.886-4.447-1.351-4.447.657a3.2,3.2,0,0,0,2.024,2.781s2.308,2.4,2.308,3.653-2.308,3.942-2.308,3.942,1.051-2.3-1.051-2.4-2.786,2.691-1.924,3.942,2.308.189,2.308.189a24.321,24.321,0,0,0,.662,4.326,34.8,34.8,0,0,1-.068,6.476,7.27,7.27,0,0,0-1.871-2.781c-3.848-3.406-4.289-6.949-2.628-9.02s.347-5.782-.915-5.751-2.628-1.2-2.224,1.43a3.181,3.181,0,0,0,3.154,2.628s-2.371,1.766-2.181,4.342c0,0-1.346-1.167-2.16.179-1.461,2.4,1.924,3.9,2.492,2.712,0,0,7.17,5.073,5.441,12.384l.4.594c-.047.589-.084.941-.084.941l.562-.242.641.946a21.137,21.137,0,0,0,.163,3.154l1.714-2.534c-1.74-7.28,5.43-12.363,5.43-12.363C83.918,344.376,87.3,342.889,85.842,340.487Z" transform="translate(-66.229 -321.988)"/></g><path class="h" d="M84.448,400.248H68.021L66.25,382.26H86.22Z" transform="translate(-65.372 -350.578)"/><path class="m" d="M84.448,400.248H68.021L66.25,382.26H86.22Z" transform="translate(-65.372 -350.578)"/><rect class="h" width="21.725" height="3.969" transform="translate(0 29.695)"/><rect class="n" width="21.725" height="3.969" transform="translate(0 29.695)"/></g><g transform="translate(189.768 167.867)"><path class="h" d="M375.131,375.964l-.736-1.02a1.408,1.408,0,0,0-1.141-.594h-5.162a1.246,1.246,0,0,0-1.077.594l-.615,1.02a1.236,1.236,0,0,1-1.051.6h-3.08a1.246,1.246,0,0,0-1.251,1.34l1,17.247a1.435,1.435,0,0,0,1.4,1.346h24.4a1.251,1.251,0,0,0,1.256-1.346l-1-17.247a1.43,1.43,0,0,0-1.409-1.34H376.25A1.414,1.414,0,0,1,375.131,375.964Z" transform="translate(-361.013 -374.35)"/><path class="m" d="M375.131,375.964l-.736-1.02a1.408,1.408,0,0,0-1.141-.594h-5.162a1.246,1.246,0,0,0-1.077.594l-.615,1.02a1.236,1.236,0,0,1-1.051.6h-3.08a1.246,1.246,0,0,0-1.251,1.34l1,17.247a1.435,1.435,0,0,0,1.4,1.346h24.4a1.251,1.251,0,0,0,1.256-1.346l-1-17.247a1.43,1.43,0,0,0-1.409-1.34H376.25A1.414,1.414,0,0,1,375.131,375.964Z" transform="translate(-361.013 -374.35)"/><path class="h" d="M391.395,381.69H369.017a1.877,1.877,0,0,0-1.84,1.672L365.832,398.3a1.514,1.514,0,0,0,1.54,1.677h22.377a1.876,1.876,0,0,0,1.84-1.677l1.346-14.939a1.509,1.509,0,0,0-1.54-1.672Z" transform="translate(-363.295 -377.831)"/><path class="o" d="M391.395,381.69H369.017a1.877,1.877,0,0,0-1.84,1.672L365.832,398.3a1.514,1.514,0,0,0,1.54,1.677h22.377a1.876,1.876,0,0,0,1.84-1.677l1.346-14.939a1.509,1.509,0,0,0-1.54-1.672Z" transform="translate(-363.295 -377.831)"/></g><g transform="translate(120.007 159.141)"><rect class="p" width="31.939" height="22.303" transform="translate(0.957 4.689)"/><rect class="h" width="25.442" height="7.47" rx="1.65" transform="translate(8.668 23.397)"/><rect class="q" width="25.442" height="7.47" rx="1.65" transform="translate(8.668 23.397)"/><rect class="h" width="25.442" height="7.47" rx="1.65" transform="translate(0 23.397)"/><path class="r" d="M269.084,407.947a1.577,1.577,0,1,1-1.577-1.577A1.577,1.577,0,0,1,269.084,407.947Z" transform="translate(-246.15 -380.813)"/><circle class="h" cx="0.799" cy="0.799" r="0.799" transform="translate(20.569 26.335)"/><rect class="r" width="1.787" height="1.787" transform="translate(16.216 26.241)"/><rect class="h" width="25.442" height="7.47" rx="1.65" transform="translate(8.668 15.601)"/><rect class="q" width="25.442" height="7.47" rx="1.65" transform="translate(8.668 15.601)"/><rect class="h" width="25.442" height="7.47" rx="1.65" transform="translate(0 15.601)"/><path class="r" d="M269.084,393.107a1.577,1.577,0,1,1-1.577-1.577,1.577,1.577,0,0,1,1.577,1.577Z" transform="translate(-246.15 -373.773)"/><path class="h" d="M269.018,393.8a.8.8,0,1,1-.767-.8A.8.8,0,0,1,269.018,393.8Z" transform="translate(-246.857 -374.47)"/><rect class="r" width="1.787" height="1.787" transform="translate(16.216 18.44)"/><rect class="h" width="25.442" height="7.47" rx="1.65" transform="translate(8.668 7.801)"/><rect class="q" width="25.442" height="7.47" rx="1.65" transform="translate(8.668 7.801)"/><rect class="h" width="25.442" height="7.47" rx="1.65" transform="translate(0 7.801)"/><path class="r" d="M269.084,378.267a1.577,1.577,0,1,1-1.577-1.577A1.577,1.577,0,0,1,269.084,378.267Z" transform="translate(-246.15 -366.734)"/><path class="h" d="M269.018,378.969a.8.8,0,1,1-.794-.8.8.8,0,0,1,.794.8Z" transform="translate(-246.856 -367.436)"/><rect class="r" width="1.787" height="1.787" transform="translate(16.216 10.639)"/><rect class="h" width="25.442" height="7.47" rx="1.65" transform="translate(8.668 0)"/><rect class="q" width="25.442" height="7.47" rx="1.65" transform="translate(8.668 0)"/><rect class="h" width="25.442" height="7.47" rx="1.65" transform="translate(0 0)"/><path class="r" d="M269.084,363.427a1.577,1.577,0,1,1-1.577-1.577A1.577,1.577,0,0,1,269.084,363.427Z" transform="translate(-246.15 -359.695)"/><path class="h" d="M269.018,364.129a.8.8,0,1,1-.794-.8.8.8,0,0,1,.794.8Z" transform="translate(-246.856 -360.397)"/><rect class="r" width="1.787" height="1.787" transform="translate(16.216 2.839)"/><rect class="p" width="31.939" height="10.392" transform="translate(29.563 16.595)"/><rect class="h" width="25.442" height="7.47" rx="1.65" transform="translate(37.269 23.397)"/><rect class="q" width="25.442" height="7.47" rx="1.65" transform="translate(37.269 23.397)"/><rect class="h" width="25.442" height="7.47" rx="1.65" transform="translate(28.606 23.397)"/><path class="r" d="M323.494,407.947a1.577,1.577,0,1,1-1.577-1.577A1.577,1.577,0,0,1,323.494,407.947Z" transform="translate(-271.959 -380.813)"/><path class="h" d="M323.438,408.649a.8.8,0,1,1-.8-.8A.8.8,0,0,1,323.438,408.649Z" transform="translate(-272.67 -381.515)"/><rect class="r" width="1.787" height="1.787" transform="translate(44.817 26.241)"/><rect class="h" width="25.442" height="7.47" rx="1.65" transform="translate(37.269 15.601)"/><rect class="q" width="25.442" height="7.47" rx="1.65" transform="translate(37.269 15.601)"/><rect class="h" width="25.442" height="7.47" rx="1.65" transform="translate(28.606 15.601)"/><path class="r" d="M323.494,393.107a1.577,1.577,0,1,1-1.577-1.577,1.577,1.577,0,0,1,1.577,1.577Z" transform="translate(-271.959 -373.773)"/><path class="h" d="M323.438,393.809a.8.8,0,1,1-.8-.8A.8.8,0,0,1,323.438,393.809Z" transform="translate(-272.67 -374.476)"/><rect class="r" width="1.787" height="1.787" transform="translate(44.817 18.44)"/></g><g transform="translate(44.796 45.981)"><path class="s" d="M164,390.59l-3.312.589-1.361-4.521-1.241-4.153,3.822-1.335,1.109,4.988Z" transform="translate(-119.786 -255.699)"/><path class="q" d="M163.046,386.282l-3.7.489-1.251-4.195,3.821-1.356Z" transform="translate(-119.791 -255.723)"/><path class="s" d="M123.245,393.215h-3.364l-.552-4.741-.5-4.331,3.995-.662.226,5.151Z" transform="translate(-101.163 -256.795)"/><path class="q" d="M123.051,388.683l-3.722-.163-.5-4.347,3.995-.673Z" transform="translate(-101.163 -256.804)"/><path class="p" d="M126.766,406.129a5.544,5.544,0,0,0-1.8-.978h0s-1.955-1.94-2.9-7.78l-2.56-.668a2.176,2.176,0,0,0-2.329.909,1.108,1.108,0,0,0-.163.336,13.52,13.52,0,0,0-.273,1.9,52.75,52.75,0,0,0-.037,6.413h.463l.184-4.027c.068-1.367,1.114.237,1.414,1.708s.936,3.038,3.932,3.112C126.2,407.122,127.649,406.986,126.766,406.129Z" transform="translate(-100.116 -263.038)"/><path class="p" d="M169.266,405.374a5.545,5.545,0,0,0-1.8-.978h0s-1.955-1.94-2.9-7.78l-2.56-.673a2.176,2.176,0,0,0-2.329.909,1.106,1.106,0,0,0-.163.336,13.523,13.523,0,0,0-.273,1.9,52.757,52.757,0,0,0-.037,6.413h.463l.184-4.026c.068-1.367,1.114.236,1.414,1.708s.936,3.038,3.932,3.112C168.7,406.368,170.149,406.231,169.266,405.374Z" transform="translate(-120.276 -262.677)"/><path class="h" d="M137.732,313.389l-5.451.962c-5.5-13.7-9.409-25.142-12.174-34.635-1.488-5.125-2.728-9.677-3.622-13.72l.168,14.918v33.605h-5.372c-13.462-64.13-3.921-78.743-3.921-78.743l16.127-2.686a72.943,72.943,0,0,1,1.351,9.052l.725,5.346,6.308,32.522Z" transform="translate(-94.166 -185.458)"/><g class="t" transform="translate(9.914 47.632)"><path d="M137.732,313.389l-5.451.962c-5.5-13.7-9.409-25.142-12.174-34.635-1.488-5.125-2.728-9.677-3.622-13.72l.168,14.918v33.605h-5.372c-13.462-64.13-3.921-78.743-3.921-78.743l16.127-2.686a72.943,72.943,0,0,1,1.351,9.052l.725,5.346,6.308,32.522Z" transform="translate(-104.08 -233.09)"/></g><path class="u" d="M177.25,195.143l5.435-5.372s.189-1.44.715-1.84,4.258-1.756,4.731-1.451,1.093,3.312.457,3.864a13.448,13.448,0,0,1-4.379,1.2l-5.882,6.986Z" transform="translate(-128.874 -163.327)"/><path class="p" d="M139.631,184.35c2.35,1.241,10.671,12.879,11.9,13.457s10.6-7.023,10.6-7.023l1.577,2.691s-7.69,10.865-12.037,10.34S139,194.09,139,194.09Z" transform="translate(-110.731 -162.338)"/><path class="v" d="M139.631,184.35c2.35,1.241,10.671,12.879,11.9,13.457s10.6-7.023,10.6-7.023l1.577,2.691s-7.69,10.865-12.037,10.34S139,194.09,139,194.09Z" transform="translate(-110.731 -162.338)"/><path class="h" d="M182.01,196.575l.652-.615,1.708,2.891-.615,1.183Z" transform="translate(-131.132 -167.845)"/><path class="q" d="M142.343,202.163c-1.945-1.856-3.343-3.4-3.343-3.4l.147-2.313.731-2.245A9.225,9.225,0,0,1,142.343,202.163Z" transform="translate(-110.731 -167.015)"/><path class="q" d="M131.378,296.5c-1.488-5.125-2.628-9.677-3.538-13.72a126.338,126.338,0,0,1,1.051-14.308S131.241,286.926,131.378,296.5Z" transform="translate(-105.437 -202.24)"/><path class="p" d="M121.986,208.672c.657-11.564.363-17.935.063-21.115-.326-3.39-.852-3.511-.852-3.511s-3.68-.357-6.865-.336a52.6,52.6,0,0,0-7.359.778,49.137,49.137,0,0,0-6.834,1.645c.373,1.051.71,2.1,1.051,3.028.421,1.256.794,2.418,1.13,3.506.631,2.029,1.125,3.785,1.519,5.362a58.27,58.27,0,0,1,1.745,12.09s-4.042,10.566-4.831,18.319l13.4,1.446,1.84-7.753,1.84,8.016,7.459-2.655Z" transform="translate(-92.297 -162.034)"/><path class="v" d="M121.986,208.672c.657-11.564.363-17.935.063-21.115-.326-3.39-.852-3.511-.852-3.511s-3.68-.357-6.865-.336a52.6,52.6,0,0,0-7.359.778,49.137,49.137,0,0,0-6.834,1.645c.373,1.051.71,2.1,1.051,3.028.421,1.256.794,2.418,1.13,3.506.631,2.029,1.125,3.785,1.519,5.362a58.27,58.27,0,0,1,1.745,12.09s-4.042,10.566-4.831,18.319l13.4,1.446,1.84-7.753,1.84,8.016,7.459-2.655Z" transform="translate(-92.297 -162.034)"/><path class="q" d="M107.292,211.12c-.179-.883-.389-1.824-.647-2.833-.163-.641-.342-1.314-.526-2.029.526-1.792,1.051-.389,1.051-.389A16.184,16.184,0,0,1,107.292,211.12Z" transform="translate(-95.134 -172.297)"/><path class="h" d="M116.83,190.543l6.66,11.917,1.577-12.789-3.022,3.79Z" transform="translate(-100.214 -164.862)"/><path class="h" d="M113.241,182.969a4.422,4.422,0,0,0-3.548,5.257l2.171-.72a25.861,25.861,0,0,1,6.965,3.811s1.64-3.022,3.217-4.011l2.234.263A9.993,9.993,0,0,0,113.241,182.969Z" transform="translate(-96.799 -161.535)"/><path class="w" d="M113.241,182.969a4.422,4.422,0,0,0-3.548,5.257l2.171-.72a25.861,25.861,0,0,1,6.965,3.811s1.64-3.022,3.217-4.011l2.234.263A9.993,9.993,0,0,0,113.241,182.969Z" transform="translate(-96.799 -161.535)"/><path class="u" d="M120.945,179.685a3.159,3.159,0,0,0-.526-.21c-.378-.3-.841-1.02-.815-2.775a13.449,13.449,0,0,1,.189-2.05l-4.873-.909s1.661,3.28.273,5.714c-.478.21-.762.526-.71.909.363,2.817,6.418,5.54,6.418,5.54S123.888,181.3,120.945,179.685Z" transform="translate(-99.099 -157.305)"/><path class="q" d="M120.243,174.649a13.456,13.456,0,0,0-.189,2.05,5.417,5.417,0,0,1-4.684-2.959Z" transform="translate(-99.522 -157.305)"/><path class="p" d="M120.5,144.842s5.719-.725,6.77,3.874a7.091,7.091,0,0,1-2.5,7.165Z" transform="translate(-101.955 -143.578)"/><path class="u" d="M114.934,149.525c4.237-.231,5.724,1.961,6.276,6.308.689,5.435-.31,9.378-5.672,8.5C108.258,163.15,107.9,149.909,114.934,149.525Z" transform="translate(-96.909 -145.811)"/><path class="x" d="M126.21,161.38a9.119,9.119,0,0,0,1.33,1.693,1.162,1.162,0,0,1-1.088.526Z" transform="translate(-104.664 -151.442)"/><path class="p" d="M120.483,160.463c.032.347-.137.647-.368.662s-.442-.247-.468-.594.137-.647.368-.662S120.457,160.111,120.483,160.463Z" transform="translate(-101.549 -150.725)"/><path class="p" d="M120.17,159.582l.736-.352S120.575,159.892,120.17,159.582Z" transform="translate(-101.799 -150.422)"/><path class="p" d="M128.693,159.673c.032.347-.137.647-.368.662s-.442-.247-.468-.594.137-.647.368-.662S128.667,159.326,128.693,159.673Z" transform="translate(-105.444 -150.351)"/><path class="p" d="M128.38,158.8l.731-.352S128.785,159.112,128.38,158.8Z" transform="translate(-105.693 -150.052)"/><path class="y" d="M119.233,155.426a2.213,2.213,0,0,0-1.8.741" transform="translate(-100.499 -148.616)"/><path class="y" d="M126.7,154.688a1.966,1.966,0,0,1,1.708.258" transform="translate(-104.896 -148.225)"/><path class="p" d="M109.576,155.452s1.787-3.59,1.34-6.26c0,0,8.211-3.89,9.089,4.61,0,0,.41-7.611-6.886-7.385s-6.676,10.886-2.739,13.856C110.391,160.272,108.467,157.7,109.576,155.452Z" transform="translate(-95.788 -144.342)"/><path class="p" d="M112.982,143.474s3.48-.852,4.468.068-6.045,7.422-9.725,8.079c0,0-1.251,4.074-.263,5.982,0,0-4.142-1.446-4.337-7.753S109.565,141.177,112.982,143.474Z" transform="translate(-93.712 -142.541)"/><path class="u" d="M110.069,163.8a1.861,1.861,0,0,0-2.1-1.577c-1.3.21-1.782,2.944,1.519,3.411C109.964,165.693,110.206,165.219,110.069,163.8Z" transform="translate(-95.541 -151.833)"/><path class="p" d="M101.345,145.9s-1.446-3.68-5.325-3.417-4.468,6.308-2.429,10.776.657,5.914.657,5.914,2.166-.263,2.166-4.268a14.424,14.424,0,0,1,.131,2.56s1.446-2.034.068-5.914,3.022-2.1,3.022-2.1Z" transform="translate(-88.645 -142.474)"/><path class="y" d="M123.645,145s-1.84,5.914-6.765,7.69" transform="translate(-100.238 -143.672)"/><path class="y" d="M120.38,168.5a3.411,3.411,0,0,0,2.429.988" transform="translate(-101.898 -154.82)"/><path class="z" d="M123.685,161.21a.941.941,0,1,1-.941-1.02.978.978,0,0,1,.941,1.02Z" transform="translate(-102.575 -150.878)"/><path class="z" d="M129.994,160.895a.941.941,0,1,1-.936-1.014A.983.983,0,0,1,129.994,160.895Z" transform="translate(-105.568 -150.731)"/><path class="z" d="M125.38,161.66s.489-1.051,1.446-.168" transform="translate(-104.27 -151.328)"/><path class="z" d="M116.507,162.007s-5.257-.168-5.877-.131" transform="translate(-97.273 -151.675)"/><path class="h" d="M111.512,207.789l-.242,13.42a.526.526,0,0,0,.589.526l8.836-.7a.526.526,0,0,0,.526-.526l.426-13.31a.526.526,0,0,0-.578-.557l-9.02.584a.526.526,0,0,0-.536.568Z" transform="translate(-97.577 -172.909)"/><path class="n" d="M111.512,207.789l-.242,13.42a.526.526,0,0,0,.589.526l8.836-.7a.526.526,0,0,0,.526-.526l.426-13.31a.526.526,0,0,0-.578-.557l-9.02.584a.526.526,0,0,0-.536.568Z" transform="translate(-97.577 -172.909)"/><path class="h" d="M112.011,208.4l-.242,13.42a.526.526,0,0,0,.589.552l8.836-.7a.526.526,0,0,0,.526-.526l.426-13.3a.526.526,0,0,0-.578-.562l-9.046.589A.526.526,0,0,0,112.011,208.4Z" transform="translate(-97.813 -173.212)"/><path class="o" d="M112.011,208.4l-.242,13.42a.526.526,0,0,0,.589.552l8.836-.7a.526.526,0,0,0,.526-.526l.426-13.3a.526.526,0,0,0-.578-.562l-9.046.589A.526.526,0,0,0,112.011,208.4Z" transform="translate(-97.813 -173.212)"/><path class="q" d="M121.458,220.394a1.314,1.314,0,1,1-1.314-1.314h.053a1.309,1.309,0,0,0,1.246,1.1,1.411,1.411,0,0,1,.016.216Z" transform="translate(-101.163 -178.812)"/><path class="u" d="M97.13,223.937l6.466-4.074s.494-1.367,1.093-1.645,4.536-.794,4.915-.4.352,3.475-.389,3.874a13.378,13.378,0,0,1-4.536.226l-7.243,5.556Z" transform="translate(-90.87 -178.145)"/><path class="p" d="M93.058,188.32s4.226,6.14,3.611,11.4L91.06,209l3.769-1.929,1.708,3.222s-4.337,6.676-9.856,5.1S93.058,188.32,93.058,188.32Z" transform="translate(-85.22 -164.221)"/><path class="v" d="M93.058,188.32s4.226,6.14,3.611,11.4L91.06,209l3.769-1.929,1.708,3.222s-4.337,6.676-9.856,5.1S93.058,188.32,93.058,188.32Z" transform="translate(-85.22 -164.221)"/><path class="h" d="M102.75,223.314l2.145,3.984.484-1.141-1.708-3.238Z" transform="translate(-93.535 -180.634)"/></g><g transform="translate(91.143 56.771)"><path class="h" d="M193.8,188.257a2.429,2.429,0,1,1,2.423-2.429,2.429,2.429,0,0,1-2.423,2.429Z" transform="translate(-181.919 -172.677)"/><path class="h" d="M186.384,189.283h-.058a13.062,13.062,0,0,1-6.471-1.824l1.319-2.323a10.334,10.334,0,0,0,5.151,1.451Zm6.466-1.945-1.325-2.26a10.365,10.365,0,0,0,3.764-3.79l2.276,1.309A12.979,12.979,0,0,1,192.85,187.338Zm-17.72-4.731a12.906,12.906,0,0,1-1.74-6.466h2.628a10.219,10.219,0,0,0,1.388,5.151Zm21.552-6.513a10.276,10.276,0,0,0-1.4-5.146l2.271-1.325a12.957,12.957,0,0,1,1.756,6.466Zm-19.291-5.083-2.271-1.314a13.015,13.015,0,0,1,4.731-4.731l1.319,2.271A10.46,10.46,0,0,0,177.39,171.011Zm14.077-3.806a10.418,10.418,0,0,0-5.13-1.472l-.01-2.733h0a13.048,13.048,0,0,1,6.444,1.824Z" transform="translate(-173.39 -163)"/><g class="aa" transform="translate(0 0)"><path class="k" d="M186.384,189.283h-.058a13.062,13.062,0,0,1-6.471-1.824l1.319-2.323a10.334,10.334,0,0,0,5.151,1.451Zm6.466-1.945-1.325-2.26a10.365,10.365,0,0,0,3.764-3.79l2.276,1.309A12.979,12.979,0,0,1,192.85,187.338Zm-17.72-4.731a12.906,12.906,0,0,1-1.74-6.466h2.628a10.219,10.219,0,0,0,1.388,5.151Zm21.552-6.513a10.276,10.276,0,0,0-1.4-5.146l2.271-1.325a12.957,12.957,0,0,1,1.756,6.466Zm-19.291-5.083-2.271-1.314a13.015,13.015,0,0,1,4.731-4.731l1.319,2.271A10.46,10.46,0,0,0,177.39,171.011Zm14.077-3.806a10.418,10.418,0,0,0-5.13-1.472l-.01-2.733h0a13.048,13.048,0,0,1,6.444,1.824Z" transform="translate(-173.39 -163)"/></g></g><g transform="translate(101.357 6.702)"><path class="h" d="M200.073,188.336a3.238,3.238,0,1,1,3.233-3.238A3.238,3.238,0,0,1,200.073,188.336Z" transform="translate(-194.723 -121.878)"/><path class="m" d="M200.073,188.336a3.238,3.238,0,1,1,3.233-3.238A3.238,3.238,0,0,1,200.073,188.336Z" transform="translate(-194.723 -121.878)"/><circle class="ab" cx="5.325" cy="5.325" r="5.325" transform="translate(0 67.176) rotate(-76.72)"/><rect class="h" width="87.767" height="1.908" transform="translate(10.976 62.062)"/><path class="h" d="M205.051,143.9H204V137.59a.526.526,0,0,1,.152-.373l32.154-32.065a.526.526,0,0,1,.373-.152h29.347v1.051H236.9l-31.844,31.755Z" transform="translate(-198.124 -85.419)"/><path class="h" d="M281.271,241.1H241.847a.526.526,0,0,1-.373-.152L204.152,203.63a.525.525,0,0,1-.152-.373V198h1.051v5.041l37.011,37.011h39.208Z" transform="translate(-198.124 -129.534)"/><path class="h" d="M268.806,202.462H247.691a.526.526,0,0,1-.368-.152l-14.193-14.1.741-.746,14.04,13.951h20.895Z" transform="translate(-211.942 -124.534)"/><path class="h" d="M272.536,175.134l-.746-.741,14.145-14.24a.552.552,0,0,1,.373-.152h21.336v1.051H286.529Z" transform="translate(-230.28 -111.509)"/><path class="h" d="M342.79,129.552H259.332a.526.526,0,0,1-.373-.158l-8.379-8.463.746-.741,8.226,8.311H342.79Z" transform="translate(-220.219 -92.625)"/><path class="h" d="M283.72,93.566l-.72-.746,13.667-13.667A.526.526,0,0,1,297.04,79h43.782v1.051H297.235Z" transform="translate(-235.597 -73.086)"/><path class="h" d="M281.357,298.167l-21.2-21.2a.526.526,0,0,1-.152-.352V264h1.051v12.4l21.026,21.026Z" transform="translate(-224.687 -160.841)"/><path class="h" d="M290.867,265.933l-.746-.731,13.94-14.03a.552.552,0,0,1,.373-.152h52.907v1.051H304.654Z" transform="translate(-238.975 -154.684)"/><path class="h" d="M350.036,293.831H326.471a.525.525,0,0,1-.373-.153L311.29,278.871l.746-.741,14.65,14.65h23.35Z" transform="translate(-249.017 -167.543)"/><circle class="h" cx="2.407" cy="2.407" r="2.407" transform="translate(102.817 4.032)"/><path class="h" d="M325.981,106.543a5.561,5.561,0,1,1,5.561-5.561A5.561,5.561,0,0,1,325.981,106.543Zm0-10.072a4.51,4.51,0,1,0,4.51,4.51A4.51,4.51,0,0,0,325.981,96.471Z" transform="translate(-253.347 -80.875)"/><circle class="h" cx="2.407" cy="2.407" r="2.407" transform="translate(70.226 17.699)"/><path class="h" d="M426.235,134.993a2.408,2.408,0,1,1-.7-1.706A2.408,2.408,0,0,1,426.235,134.993Z" transform="translate(-301.257 -98.502)"/><circle class="h" cx="2.407" cy="2.407" r="2.407" transform="translate(74.957 46.61)"/><path class="h" d="M385.981,188.543a5.561,5.561,0,1,1,5.561-5.561,5.561,5.561,0,0,1-5.561,5.561Zm0-10.072a4.51,4.51,0,1,0,4.51,4.51A4.51,4.51,0,0,0,385.981,178.471Z" transform="translate(-281.808 -119.772)"/><circle class="h" cx="2.407" cy="2.407" r="2.407" transform="translate(101.766 60.802)"/><circle class="h" cx="2.407" cy="2.407" r="2.407" transform="translate(54.457 74.995)"/><circle class="h" cx="2.407" cy="2.407" r="2.407" transform="translate(115.958 94.444)"/><path class="h" d="M354.972,279.373a5.567,5.567,0,1,1,5.561-5.567,5.567,5.567,0,0,1-5.561,5.567Zm0-10.077a4.515,4.515,0,1,0,4.51,4.51,4.515,4.515,0,0,0-4.51-4.51Z" transform="translate(-267.094 -162.852)"/><path class="h" d="M360.235,276.657a2.407,2.407,0,1,1-2.407-2.408A2.407,2.407,0,0,1,360.235,276.657Z" transform="translate(-269.95 -165.703)"/><circle class="h" cx="2.407" cy="2.407" r="2.407" transform="translate(98.612 123.355)"/><path class="h" d="M301.566,326.158a2.413,2.413,0,1,1-2.413-2.408,2.413,2.413,0,0,1,2.413,2.408Z" transform="translate(-242.115 -189.183)"/><rect class="h" width="10.366" height="13.536" rx="1.51" transform="translate(110.775)"/><rect class="ac" width="10.366" height="13.536" rx="1.51" transform="translate(110.775)"/><rect class="h" width="7.27" height="0.731" transform="translate(112.321 1.924)"/><rect class="h" width="7.27" height="0.731" transform="translate(112.321 3.201)"/><rect class="h" width="7.27" height="0.731" transform="translate(112.321 4.484)"/><rect class="h" width="7.27" height="0.731" transform="translate(112.321 5.761)"/><rect class="h" width="7.27" height="0.731" transform="translate(112.321 7.044)"/><rect class="h" width="7.27" height="0.731" transform="translate(112.321 8.326)"/><rect class="h" width="7.27" height="0.731" transform="translate(112.321 9.604)"/><rect class="h" width="4.71" height="0.731" transform="translate(112.321 10.886)"/><rect class="h" width="10.366" height="13.536" rx="1.51" transform="translate(61.932 71.773)"/><rect class="ac" width="10.366" height="13.536" rx="1.51" transform="translate(61.932 71.773)"/><rect class="h" width="7.27" height="0.731" transform="translate(63.477 73.691)"/><rect class="h" width="7.27" height="0.731" transform="translate(63.477 74.974)"/><rect class="h" width="7.27" height="0.731" transform="translate(63.477 76.251)"/><rect class="h" width="7.27" height="0.731" transform="translate(63.477 77.534)"/><rect class="h" width="7.27" height="0.731" transform="translate(63.477 78.811)"/><rect class="h" width="7.27" height="0.731" transform="translate(63.477 80.094)"/><rect class="h" width="7.27" height="0.731" transform="translate(63.477 81.376)"/><rect class="h" width="4.71" height="0.731" transform="translate(63.477 82.654)"/><rect class="h" width="10.366" height="13.536" rx="1.51" transform="translate(122.571 86.338)"/><rect class="ac" width="10.366" height="13.536" rx="1.51" transform="translate(122.571 86.338)"/><rect class="h" width="7.27" height="0.731" transform="translate(124.116 88.262)"/><rect class="h" width="7.27" height="0.731" transform="translate(124.116 89.54)"/><rect class="h" width="7.27" height="0.731" transform="translate(124.116 90.822)"/><rect class="h" width="7.27" height="0.731" transform="translate(124.116 92.105)"/><rect class="h" width="7.27" height="0.731" transform="translate(124.116 93.382)"/><rect class="h" width="7.27" height="0.731" transform="translate(124.116 94.665)"/><rect class="h" width="7.27" height="0.731" transform="translate(124.116 95.942)"/><rect class="h" width="4.71" height="0.731" transform="translate(124.116 97.225)"/><rect class="h" width="10.366" height="13.536" rx="1.51" transform="translate(126.682 25.951)"/><rect class="ac" width="10.366" height="13.536" rx="1.51" transform="translate(126.682 25.951)"/><rect class="h" width="7.27" height="0.731" transform="translate(128.227 27.875)"/><rect class="h" width="7.27" height="0.731" transform="translate(128.227 29.153)"/><rect class="h" width="7.27" height="0.731" transform="translate(128.227 30.435)"/><rect class="h" width="7.27" height="0.731" transform="translate(128.227 31.718)"/><rect class="h" width="7.27" height="0.731" transform="translate(128.227 32.995)"/><rect class="h" width="7.27" height="0.731" transform="translate(128.227 34.278)"/><rect class="h" width="7.27" height="0.731" transform="translate(128.227 35.555)"/><rect class="h" width="4.71" height="0.731" transform="translate(128.227 36.838)"/><rect class="h" width="10.366" height="13.536" rx="1.51" transform="translate(62.126 134.283)"/><rect class="ac" width="10.366" height="13.536" rx="1.51" transform="translate(62.126 134.283)"/><rect class="h" width="7.27" height="0.731" transform="translate(63.672 136.207)"/><rect class="h" width="7.27" height="0.731" transform="translate(63.672 137.484)"/><rect class="h" width="7.27" height="0.731" transform="translate(63.672 138.767)"/><rect class="h" width="7.27" height="0.731" transform="translate(63.672 140.044)"/><rect class="h" width="7.27" height="0.731" transform="translate(63.672 141.327)"/><rect class="h" width="7.27" height="0.731" transform="translate(63.672 142.61)"/><rect class="h" width="7.27" height="0.731" transform="translate(63.672 143.887)"/><rect class="h" width="4.71" height="0.731" transform="translate(63.672 145.17)"/><rect class="h" width="24.18" height="24.18" rx="1.54" transform="translate(112.026 50.831)"/><circle class="m" cx="8.148" cy="8.148" r="8.148" transform="translate(115.969 54.773)"/><path class="o" d="M421.607,180.089h8.148a8.137,8.137,0,1,1-4.074-7.07Z" transform="translate(-297.49 -117.168)"/><circle class="h" cx="6.308" cy="6.308" r="6.308" transform="translate(117.809 56.613)"/><circle class="ad" cx="6.308" cy="6.308" r="6.308" transform="translate(117.809 56.613)"/><text class="ae" transform="translate(121.367 62.522)"><tspan x="0" y="0">8</tspan><tspan class="af" y="0">0%</tspan></text><rect class="h" width="18.398" height="18.398" rx="1.17" transform="translate(95.158 101.845)"/><rect class="m" width="2.365" height="1.204" transform="translate(107.853 117.158)"/><rect class="k" width="2.365" height="1.204" transform="translate(107.853 105.146)"/><rect class="k" width="2.365" height="1.204" transform="translate(107.853 107.149)"/><rect class="ag" width="2.365" height="1.204" transform="translate(107.853 109.152)"/><rect class="m" width="2.365" height="1.204" transform="translate(107.853 111.149)"/><rect class="m" width="2.365" height="1.204" transform="translate(107.853 113.152)"/><rect class="m" width="2.365" height="1.204" transform="translate(107.853 115.155)"/><rect class="m" width="2.365" height="1.204" transform="translate(104.636 117.158)"/><rect class="k" width="2.365" height="1.204" transform="translate(104.636 111.149)"/><rect class="ag" width="2.365" height="1.204" transform="translate(104.636 113.152)"/><rect class="m" width="2.365" height="1.204" transform="translate(104.636 115.155)"/><rect class="m" width="2.365" height="1.204" transform="translate(101.413 117.158)"/><rect class="k" width="2.365" height="1.204" transform="translate(101.413 109.152)"/><rect class="ag" width="2.365" height="1.204" transform="translate(101.413 111.149)"/><rect class="m" width="2.365" height="1.204" transform="translate(101.413 113.152)"/><rect class="m" width="2.365" height="1.204" transform="translate(101.413 115.155)"/><rect class="m" width="2.365" height="1.204" transform="translate(98.196 117.158)"/><rect class="k" width="2.365" height="1.204" transform="translate(98.196 113.152)"/><rect class="ag" width="2.365" height="1.204" transform="translate(98.196 115.155)"/><rect class="h" width="18.398" height="18.398" rx="1.17" transform="translate(81.086 13.315)"/><path class="ah" d="M360.6,102.976v-1.151l-.594-.053a2.974,2.974,0,0,0-.441-1.051l.378-.463-.81-.846-.463.384a3.01,3.01,0,0,0-1.051-.442l-.058-.594h-1.151l-.053.594a3.039,3.039,0,0,0-1.051.442l-.457-.384-.815.815.379.463a3.154,3.154,0,0,0-.442,1.051l-.589.053v1.151l.589.058a3.221,3.221,0,0,0,.442,1.051l-.379.463.815.815.457-.384a3.039,3.039,0,0,0,1.051.442l.053.594h1.151l.058-.594a3.011,3.011,0,0,0,1.051-.442l.463.384.81-.815-.378-.463A3.011,3.011,0,0,0,360,103Zm-3.622.983a1.577,1.577,0,1,1,1.577-1.577,1.577,1.577,0,0,1-1.577,1.577Z" transform="translate(-268.982 -82.46)"/><path class="n" d="M370.877,110.031v-.9l-.463-.042a2.45,2.45,0,0,0-.347-.836l.3-.357-.636-.641-.363.3a2.423,2.423,0,0,0-.831-.347l-.047-.463h-.9l-.047.463a2.424,2.424,0,0,0-.831.347l-.363-.3-.636.641.3.357a2.352,2.352,0,0,0-.347.836l-.468.042v.9l.468.042a2.325,2.325,0,0,0,.347.831l-.3.363.636.636.363-.294a2.414,2.414,0,0,0,.831.342l.047.468h.9l.047-.468a2.413,2.413,0,0,0,.831-.342l.363.294.636-.636-.3-.363a2.423,2.423,0,0,0,.347-.831Zm-2.839.767a.879.879,0,1,0-.011-.016Z" transform="translate(-274.589 -86.245)"/><path class="ai" d="M362.827,115.354V114.6l-.389-.037a2.043,2.043,0,0,0-.294-.7l.252-.3-.526-.526-.3.252a1.887,1.887,0,0,0-.7-.294l-.037-.389h-.757l-.037.389a1.96,1.96,0,0,0-.7.294l-.3-.252-.526.526.247.3a2.035,2.035,0,0,0-.289.7l-.389.037v.757l.389.037a2.052,2.052,0,0,0,.289.7l-.247.3.526.526.3-.247a2.049,2.049,0,0,0,.7.289l.037.389h.757l.037-.389a1.966,1.966,0,0,0,.7-.289l.3.247.526-.526-.252-.3a2.06,2.06,0,0,0,.294-.7ZM360.44,116a1.025,1.025,0,1,1,1.025-1.025A1.051,1.051,0,0,1,360.44,116Z" transform="translate(-271.211 -89.024)"/><rect class="h" width="16.164" height="10.513" transform="translate(81.539 43.629)"/><rect class="ac" width="16.164" height="10.513" transform="translate(81.539 43.629)"/><rect class="h" width="14.981" height="8.016" transform="translate(82.127 45.6)"/><rect class="k" width="11.081" height="0.347" transform="translate(83.347 46.799)"/><rect class="k" width="5.32" height="0.347" transform="translate(83.347 47.855)"/><rect class="k" width="6.697" height="0.347" transform="translate(83.347 48.912)"/><rect class="k" width="2.36" height="0.347" transform="translate(83.347 49.969)"/><rect class="k" width="1.53" height="0.347" transform="translate(83.347 51.025)"/><rect class="h" width="16.164" height="10.513" transform="translate(107.296 123.791)"/><rect class="ac" width="16.164" height="10.513" transform="translate(107.296 123.791)"/><rect class="h" width="14.981" height="8.016" transform="translate(107.884 125.762)"/><rect class="k" width="11.081" height="0.347" transform="translate(109.104 126.961)"/><rect class="k" width="5.32" height="0.347" transform="translate(109.104 128.018)"/><rect class="k" width="6.697" height="0.347" transform="translate(109.104 129.074)"/><rect class="k" width="2.36" height="0.347" transform="translate(109.104 130.131)"/><rect class="k" width="1.53" height="0.347" transform="translate(109.104 131.187)"/><g class="aj" transform="translate(0.299 4.032)"><rect class="k" width="87.767" height="1.908" transform="translate(10.677 58.031)"/><path class="k" d="M205.051,143.9H204V137.59a.526.526,0,0,1,.152-.373l32.154-32.065a.526.526,0,0,1,.373-.152h29.347v1.051H236.9l-31.844,31.755Z" transform="translate(-198.423 -89.451)"/><path class="k" d="M281.271,241.1H241.847a.526.526,0,0,1-.373-.152L204.152,203.63a.525.525,0,0,1-.152-.373V198h1.051v5.041l37.011,37.011h39.208Z" transform="translate(-198.423 -133.565)"/><path class="k" d="M268.806,202.462H247.691a.526.526,0,0,1-.368-.152l-14.193-14.1.741-.746,14.04,13.951h20.895Z" transform="translate(-212.241 -128.566)"/><path class="k" d="M272.536,175.134l-.746-.741,14.145-14.24a.552.552,0,0,1,.373-.152h21.336v1.051H286.529Z" transform="translate(-230.579 -115.54)"/><path class="k" d="M342.79,129.552H259.332a.526.526,0,0,1-.373-.158l-8.379-8.463.746-.741,8.226,8.311H342.79Z" transform="translate(-220.518 -96.657)"/><path class="k" d="M283.72,93.566l-.72-.746,13.667-13.667A.526.526,0,0,1,297.04,79h43.782v1.051H297.235Z" transform="translate(-235.896 -77.118)"/><path class="k" d="M281.357,298.167l-21.2-21.2a.526.526,0,0,1-.152-.352V264h1.051v12.4l21.026,21.026Z" transform="translate(-224.986 -164.872)"/><path class="k" d="M290.867,265.933l-.746-.731,13.94-14.03a.552.552,0,0,1,.373-.152h52.907v1.051H304.654Z" transform="translate(-239.274 -158.715)"/><path class="k" d="M350.036,293.831H326.471a.525.525,0,0,1-.373-.153L311.29,278.871l.746-.741,14.65,14.65h23.35Z" transform="translate(-249.316 -171.575)"/><circle class="k" cx="2.407" cy="2.407" r="2.407" transform="translate(102.518)"/><path class="k" d="M325.981,106.543a5.561,5.561,0,1,1,5.561-5.561A5.561,5.561,0,0,1,325.981,106.543Zm0-10.072a4.51,4.51,0,1,0,4.51,4.51A4.51,4.51,0,0,0,325.981,96.471Z" transform="translate(-253.646 -84.907)"/><path class="k" d="M426.235,134.993a2.408,2.408,0,1,1-.7-1.706A2.408,2.408,0,0,1,426.235,134.993Z" transform="translate(-301.555 -102.534)"/><circle class="k" cx="2.407" cy="2.407" r="2.407" transform="translate(74.658 42.578)"/><path class="k" d="M385.981,188.543a5.561,5.561,0,1,1,5.561-5.561,5.561,5.561,0,0,1-5.561,5.561Zm0-10.072a4.51,4.51,0,1,0,4.51,4.51A4.51,4.51,0,0,0,385.981,178.471Z" transform="translate(-282.107 -123.803)"/><circle class="k" cx="2.407" cy="2.407" r="2.407" transform="translate(54.158 70.963)"/><circle class="k" cx="2.407" cy="2.407" r="2.407" transform="translate(115.659 90.412)"/><path class="k" d="M354.972,279.373a5.567,5.567,0,1,1,5.561-5.567,5.567,5.567,0,0,1-5.561,5.567Zm0-10.077a4.515,4.515,0,1,0,4.51,4.51,4.515,4.515,0,0,0-4.51-4.51Z" transform="translate(-267.393 -166.884)"/><circle class="k" cx="2.407" cy="2.407" r="2.407" transform="translate(98.313 119.323)"/><path class="k" d="M301.566,326.158a2.413,2.413,0,1,1-2.413-2.408,2.413,2.413,0,0,1,2.413,2.408Z" transform="translate(-242.414 -193.215)"/><path class="k" d="M199.493,188.617a6.113,6.113,0,1,1,4.333-1.791A6.113,6.113,0,0,1,199.493,188.617Zm0-10.65a4.536,4.536,0,1,0,4.536,4.536,4.536,4.536,0,0,0-4.536-4.536Z" transform="translate(-193.39 -123.315)"/></g></g></svg>