<svg width="208" height="208" viewBox="0 0 208 208" fill="none" xmlns="http://www.w3.org/2000/svg">
<path fill-rule="evenodd" clip-rule="evenodd" d="M104 18.6666V-6.86646e-05C75.3619 -6.86646e-05 49.4346 11.8463 30.667 30.6666L43.6606 43.6602C59.1028 28.2179 80.4362 18.6666 104 18.6666Z" fill="#CFD8DC"/>
<path fill-rule="evenodd" clip-rule="evenodd" d="M18.6666 104H-6.86646e-05C-6.86646e-05 75.3615 11.8463 49.4343 30.6666 30.6667L43.6602 43.6602C28.2179 59.1025 18.6666 80.4358 18.6666 104Z" fill="#CFD8DC"/>
<path fill-rule="evenodd" clip-rule="evenodd" d="M18.6666 104H-6.86646e-05C-6.86646e-05 132.638 11.8463 158.566 30.6666 177.333L43.6602 164.34C28.2179 148.898 18.6666 127.564 18.6666 104Z" fill="#CFD8DC"/>
<path fill-rule="evenodd" clip-rule="evenodd" d="M104 189.333V208C75.3619 208 49.4346 196.154 30.667 177.333L43.6606 164.34C59.1028 179.782 80.4362 189.333 104 189.333Z" fill="#CFD8DC"/>
<path fill-rule="evenodd" clip-rule="evenodd" d="M104 189.333V208C132.638 208 158.565 196.154 177.333 177.333L164.339 164.34C148.897 179.782 127.564 189.333 104 189.333Z" fill="#CFD8DC"/>
<path fill-rule="evenodd" clip-rule="evenodd" d="M189.333 104H208C208 132.638 196.154 158.566 177.333 177.333L164.34 164.34C179.782 148.898 189.333 127.564 189.333 104Z" fill="#CFD8DC"/>
<path fill-rule="evenodd" clip-rule="evenodd" d="M189.333 104H208C208 75.3615 196.154 49.4343 177.333 30.6667L164.34 43.6602C179.782 59.1025 189.333 80.4358 189.333 104Z" fill="#CFD8DC"/>
<path fill-rule="evenodd" clip-rule="evenodd" d="M104 18.6666V-6.86646e-05C132.638 -6.86646e-05 158.565 11.8463 177.333 30.6666L164.339 43.6602C148.897 28.2179 127.564 18.6666 104 18.6666Z" fill="#263238"/>
<path d="M39.5353 107.333V101.848H48.058V80.632H47.65L41.2126 89.064L36.8606 85.664L44.4313 75.6907H54.858V101.848H61.5673V107.333H39.5353ZM86.9816 107.333H64.5869V101.123L74.3336 92.7813C75.21 92.0258 75.9505 91.3458 76.5549 90.7413C77.1594 90.1067 77.6429 89.5022 78.0056 88.928C78.3985 88.3236 78.6705 87.7342 78.8216 87.16C79.0029 86.5858 79.0936 85.9662 79.0936 85.3013V84.6667C79.0936 84.0622 78.9727 83.5333 78.7309 83.08C78.4891 82.6267 78.1718 82.2489 77.7789 81.9467C77.386 81.6445 76.9327 81.4178 76.4189 81.2667C75.9354 81.1156 75.4367 81.04 74.9229 81.04C74.1674 81.04 73.5025 81.1609 72.9282 81.4027C72.3842 81.6445 71.9007 81.9769 71.4776 82.4C71.0847 82.7929 70.7522 83.2613 70.4802 83.8053C70.2082 84.3191 69.9967 84.8782 69.8456 85.4827L63.9069 83.216C64.2696 82.128 64.7682 81.1005 65.4029 80.1333C66.0376 79.136 66.8234 78.2747 67.7602 77.5493C68.7274 76.7938 69.8607 76.2045 71.1602 75.7813C72.4598 75.3582 73.9256 75.1467 75.5576 75.1467C77.2802 75.1467 78.8065 75.3885 80.1362 75.872C81.466 76.3556 82.5843 77.0205 83.4909 77.8667C84.4278 78.7129 85.138 79.7253 85.6216 80.904C86.1051 82.0525 86.3469 83.3067 86.3469 84.6667C86.3469 86.0267 86.1202 87.2658 85.6669 88.384C85.2136 89.5022 84.594 90.56 83.8083 91.5573C83.0527 92.5245 82.1611 93.4462 81.1336 94.3227C80.106 95.1991 79.0331 96.0907 77.9149 96.9973L72.0216 101.621H86.9816V107.333ZM95.7585 107.832C94.3985 107.832 93.3861 107.5 92.7212 106.835C92.0865 106.14 91.7692 105.263 91.7692 104.205V103.299C91.7692 102.241 92.0865 101.38 92.7212 100.715C93.3861 100.02 94.3985 99.672 95.7585 99.672C97.1185 99.672 98.1159 100.02 98.7505 100.715C99.4154 101.38 99.7479 102.241 99.7479 103.299V104.205C99.7479 105.263 99.4154 106.14 98.7505 106.835C98.1159 107.5 97.1185 107.832 95.7585 107.832ZM125.976 81.6293H111.606L110.926 91.648H111.288C111.591 90.8925 111.923 90.2125 112.286 89.608C112.679 88.9733 113.132 88.4445 113.646 88.0213C114.16 87.568 114.779 87.2205 115.504 86.9787C116.23 86.7369 117.091 86.616 118.088 86.616C119.448 86.616 120.718 86.8427 121.896 87.296C123.075 87.7493 124.103 88.4142 124.979 89.2907C125.856 90.1369 126.551 91.1947 127.064 92.464C127.578 93.7031 127.835 95.1085 127.835 96.68C127.835 98.2818 127.563 99.7778 127.019 101.168C126.505 102.528 125.72 103.707 124.662 104.704C123.634 105.701 122.365 106.487 120.854 107.061C119.343 107.605 117.62 107.877 115.686 107.877C114.144 107.877 112.784 107.711 111.606 107.379C110.427 107.046 109.384 106.608 108.478 106.064C107.571 105.49 106.785 104.84 106.12 104.115C105.456 103.389 104.881 102.619 104.398 101.803L109.339 97.904C110.034 99.1431 110.865 100.201 111.832 101.077C112.8 101.924 114.099 102.347 115.731 102.347C117.363 102.347 118.587 101.878 119.403 100.941C120.249 100.004 120.672 98.7653 120.672 97.224V96.8613C120.672 95.4107 120.249 94.2622 119.403 93.416C118.557 92.5698 117.393 92.1467 115.912 92.1467C114.673 92.1467 113.646 92.4036 112.83 92.9173C112.044 93.4009 111.44 93.8845 111.016 94.368L105.44 93.5973L106.619 75.6907H125.976V81.6293ZM137.156 107.333L159.097 75.6907H165.081L143.14 107.333H137.156ZM139.468 93.0987C136.808 93.0987 134.784 92.3431 133.393 90.832C132.003 89.3209 131.308 87.0845 131.308 84.1227C131.308 81.1609 132.003 78.9245 133.393 77.4133C134.784 75.9022 136.808 75.1467 139.468 75.1467C142.128 75.1467 144.152 75.9022 145.543 77.4133C146.933 78.9245 147.628 81.1609 147.628 84.1227C147.628 87.0845 146.933 89.3209 145.543 90.832C144.152 92.3431 142.128 93.0987 139.468 93.0987ZM139.468 89.2C140.254 89.2 140.843 88.8978 141.236 88.2933C141.629 87.6587 141.825 86.6613 141.825 85.3013V82.944C141.825 81.584 141.629 80.6018 141.236 79.9973C140.843 79.3627 140.254 79.0453 139.468 79.0453C138.682 79.0453 138.093 79.3627 137.7 79.9973C137.307 80.6018 137.111 81.584 137.111 82.944V85.3013C137.111 86.6613 137.307 87.6587 137.7 88.2933C138.093 88.8978 138.682 89.2 139.468 89.2ZM162.769 107.877C160.11 107.877 158.085 107.122 156.695 105.611C155.304 104.1 154.609 101.863 154.609 98.9013C154.609 95.9396 155.304 93.7031 156.695 92.192C158.085 90.6809 160.11 89.9253 162.769 89.9253C165.429 89.9253 167.454 90.6809 168.844 92.192C170.234 93.7031 170.929 95.9396 170.929 98.9013C170.929 101.863 170.234 104.1 168.844 105.611C167.454 107.122 165.429 107.877 162.769 107.877ZM162.769 103.979C163.555 103.979 164.144 103.676 164.537 103.072C164.93 102.437 165.127 101.44 165.127 100.08V97.7227C165.127 96.3627 164.93 95.3805 164.537 94.776C164.144 94.1413 163.555 93.824 162.769 93.824C161.984 93.824 161.394 94.1413 161.001 94.776C160.608 95.3805 160.412 96.3627 160.412 97.7227V100.08C160.412 101.44 160.608 102.437 161.001 103.072C161.394 103.676 161.984 103.979 162.769 103.979Z" fill="#263238"/>
<path d="M60.7567 138.16C60.1256 138.16 59.5567 138.062 59.0501 137.867C58.5434 137.662 58.1123 137.364 57.7567 136.973C57.4012 136.573 57.1256 136.08 56.9301 135.493C56.7345 134.898 56.6367 134.204 56.6367 133.413C56.6367 132.631 56.7345 131.938 56.9301 131.333C57.1256 130.72 57.4012 130.209 57.7567 129.8C58.1123 129.382 58.5434 129.067 59.0501 128.853C59.5567 128.64 60.1256 128.533 60.7567 128.533C61.6189 128.533 62.3301 128.711 62.8901 129.067C63.4501 129.413 63.8989 129.964 64.2367 130.72L62.4901 131.627C62.3656 131.236 62.1701 130.924 61.9034 130.693C61.6456 130.453 61.2634 130.333 60.7567 130.333C60.1612 130.333 59.6812 130.529 59.3167 130.92C58.9612 131.302 58.7834 131.862 58.7834 132.6V134.093C58.7834 134.831 58.9612 135.396 59.3167 135.787C59.6812 136.169 60.1612 136.36 60.7567 136.36C61.2545 136.36 61.6501 136.227 61.9434 135.96C62.2456 135.684 62.4678 135.356 62.6101 134.973L64.2634 135.933C63.9167 136.644 63.4589 137.196 62.8901 137.587C62.3301 137.969 61.6189 138.16 60.7567 138.16ZM71.2457 138.16C70.6323 138.16 70.0723 138.058 69.5657 137.853C69.059 137.649 68.6279 137.347 68.2723 136.947C67.9168 136.538 67.6412 136.036 67.4457 135.44C67.2501 134.836 67.1523 134.138 67.1523 133.347C67.1523 132.556 67.2501 131.862 67.4457 131.267C67.6412 130.662 67.9168 130.16 68.2723 129.76C68.6279 129.351 69.059 129.044 69.5657 128.84C70.0723 128.636 70.6323 128.533 71.2457 128.533C71.859 128.533 72.419 128.636 72.9257 128.84C73.4323 129.044 73.8635 129.351 74.219 129.76C74.5746 130.16 74.8501 130.662 75.0457 131.267C75.2412 131.862 75.339 132.556 75.339 133.347C75.339 134.138 75.2412 134.836 75.0457 135.44C74.8501 136.036 74.5746 136.538 74.219 136.947C73.8635 137.347 73.4323 137.649 72.9257 137.853C72.419 138.058 71.859 138.16 71.2457 138.16ZM71.2457 136.36C71.859 136.36 72.3346 136.16 72.6723 135.76C73.019 135.36 73.1923 134.787 73.1923 134.04V132.653C73.1923 131.907 73.019 131.333 72.6723 130.933C72.3346 130.533 71.859 130.333 71.2457 130.333C70.6323 130.333 70.1523 130.533 69.8057 130.933C69.4679 131.333 69.299 131.907 69.299 132.653V134.04C69.299 134.787 69.4679 135.36 69.8057 135.76C70.1523 136.16 70.6323 136.36 71.2457 136.36ZM85.9906 131.893H85.9506L85.2706 133.253L83.4572 136.547L81.6839 133.267L80.9772 131.8H80.9372V138H79.0306V128.693H81.1772L83.4572 133.053H83.4839L85.7372 128.693H87.8972V138H85.9906V131.893ZM91.9551 138V128.693H96.3551C96.7906 128.693 97.1817 128.769 97.5284 128.92C97.8751 129.062 98.1684 129.262 98.4084 129.52C98.6573 129.778 98.8484 130.093 98.9817 130.467C99.1151 130.831 99.1817 131.231 99.1817 131.667C99.1817 132.111 99.1151 132.516 98.9817 132.88C98.8484 133.244 98.6573 133.556 98.4084 133.813C98.1684 134.071 97.8751 134.276 97.5284 134.427C97.1817 134.569 96.7906 134.64 96.3551 134.64H93.9817V138H91.9551ZM93.9817 132.88H96.1151C96.4173 132.88 96.6528 132.804 96.8217 132.653C96.9995 132.493 97.0884 132.262 97.0884 131.96V131.373C97.0884 131.071 96.9995 130.844 96.8217 130.693C96.6528 130.533 96.4173 130.453 96.1151 130.453H93.9817V132.88ZM102.705 138V128.693H104.732V136.2H108.278V138H102.705ZM111.775 138V128.693H118.109V130.493H113.802V132.4H117.495V134.187H113.802V136.2H118.109V138H111.775ZM125.754 130.493V138H123.728V130.493H121.208V128.693H128.274V130.493H125.754ZM131.661 138V128.693H137.994V130.493H133.687V132.4H137.381V134.187H133.687V136.2H137.994V138H131.661ZM141.76 128.693H145.266C145.88 128.693 146.44 128.791 146.946 128.987C147.453 129.182 147.884 129.476 148.24 129.867C148.595 130.249 148.871 130.733 149.066 131.32C149.262 131.898 149.36 132.573 149.36 133.347C149.36 134.12 149.262 134.8 149.066 135.387C148.871 135.964 148.595 136.449 148.24 136.84C147.884 137.222 147.453 137.511 146.946 137.707C146.44 137.902 145.88 138 145.266 138H141.76V128.693ZM145.266 136.2C145.871 136.2 146.346 136.031 146.693 135.693C147.04 135.356 147.213 134.813 147.213 134.067V132.627C147.213 131.88 147.04 131.338 146.693 131C146.346 130.662 145.871 130.493 145.266 130.493H143.786V136.2H145.266Z" fill="#263238"/>
</svg>
